<?xml version="1.0" standalone="no"?>
<!DOCTYPE svg PUBLIC "-//W3C//DTD SVG 20010904//EN"
 "http://www.w3.org/TR/2001/REC-SVG-20010904/DTD/svg10.dtd">
<svg version="1.0" xmlns="http://www.w3.org/2000/svg"
 width="256.000000pt" height="256.000000pt" viewBox="0 0 256.000000 256.000000"
 preserveAspectRatio="xMidYMid meet">

<g transform="translate(0.000000,256.000000) scale(0.100000,-0.100000)"
fill="#2b354c" stroke="none">
<path d="M1115 2549 c-219 -30 -446 -125 -621 -259 -84 -66 -220 -213 -278
-302 -149 -230 -210 -436 -210 -708 0 -357 120 -649 373 -901 252 -253 544
-373 901 -373 357 0 649 120 901 373 190 189 299 393 356 661 24 117 24 363 0
480 -57 271 -178 492 -371 678 -182 175 -391 286 -641 337 -97 20 -314 27
-410 14z m339 -363 c61 -35 226 -130 366 -211 140 -81 266 -157 279 -169 50
-45 51 -54 51 -526 0 -472 -1 -482 -51 -526 -13 -11 -190 -117 -394 -235 -361
-209 -371 -214 -425 -214 -59 1 -28 -15 -487 247 -68 39 -121 73 -119 77 2 3
73 121 158 261 85 140 229 377 319 527 l164 272 143 1 c78 0 142 -3 142 -6 0
-6 -99 -175 -437 -746 -106 -180 -193 -331 -193 -336 0 -16 301 -184 319 -179
10 2 73 37 140 76 90 53 121 77 117 88 -3 8 -61 100 -128 205 -67 105 -121
196 -121 203 0 18 146 266 155 263 8 -3 64 -91 233 -361 61 -97 114 -176 119
-177 5 0 24 9 42 20 l33 21 -28 42 c-58 86 -341 550 -341 559 0 5 30 60 67
123 l67 114 52 -82 c29 -45 82 -127 118 -182 35 -55 98 -151 138 -214 l73
-115 3 342 c1 209 -2 350 -7 361 -6 10 -50 40 -98 68 -48 27 -210 120 -360
206 -150 86 -278 157 -284 157 -7 0 -46 -20 -88 -44 -42 -24 -202 -117 -356
-206 -154 -89 -286 -167 -293 -174 -9 -9 -12 -86 -10 -341 l3 -329 175 274
c96 151 189 288 206 305 46 45 113 65 222 65 50 0 92 -3 92 -7 0 -9 -39 -73
-271 -445 -97 -156 -217 -347 -265 -425 -49 -79 -93 -143 -98 -143 -5 0 -49
23 -97 51 l-89 51 0 473 c0 311 4 483 11 502 17 46 46 70 193 155 78 45 243
141 368 214 126 73 238 135 250 137 58 13 112 -4 222 -67z"/>
</g>
</svg>
