<svg id="svg" xmlns="http://www.w3.org/2000/svg" xmlns:xlink="http://www.w3.org/1999/xlink" width="400" height="400.2661343978709" viewBox="0, 0, 400,400.2661343978709" version="1.1"><g id="svgg"><path id="path0" d="M198.921 75.062 C 194.960 75.602,193.410 77.201,188.359 85.961 C 179.237 101.781,88.997 261.052,87.633 263.739 C 83.269 272.340,86.155 278.425,95.086 279.452 C 98.076 279.796,151.496 279.779,155.404 279.433 C 162.785 278.780,168.524 276.162,173.517 271.168 C 176.550 268.135,176.586 268.075,202.523 222.222 C 214.570 200.925,227.244 178.530,230.688 172.455 C 240.545 155.065,241.336 153.175,241.580 146.425 C 241.802 140.286,241.008 136.817,238.083 131.148 C 235.837 126.797,210.860 83.233,209.023 80.463 C 206.118 76.084,203.133 74.488,198.921 75.062 M267.731 196.317 C 263.981 196.988,262.179 198.624,258.568 204.636 C 254.500 211.409,225.738 260.934,224.475 263.340 C 219.843 272.167,222.793 278.539,231.936 279.462 C 236.633 279.936,307.179 279.643,308.982 279.142 C 314.528 277.601,317.484 271.877,315.425 266.667 C 314.570 264.504,284.470 212.479,279.122 203.920 C 275.261 197.742,271.987 195.557,267.731 196.317 " stroke="none" fill="#fbfbfb" fill-rule="evenodd"></path><path id="path1" d="M186.693 0.562 C 62.388 9.119,-23.923 127.365,5.859 248.303 C 25.935 329.824,95.853 390.568,179.375 399.052 C 309.787 412.300,416.907 299.883,397.704 169.928 C 382.634 67.946,289.834 -6.539,186.693 0.562 M203.544 75.513 C 206.949 76.522,207.029 76.643,223.429 105.256 C 242.225 138.050,241.909 137.333,241.580 146.425 C 241.336 153.175,240.545 155.065,230.688 172.455 C 227.244 178.530,214.570 200.925,202.523 222.222 C 174.320 272.081,175.740 269.787,170.671 273.645 C 162.819 279.622,162.209 279.703,124.817 279.703 C 89.748 279.703,90.245 279.759,87.247 275.449 C 84.830 271.974,84.926 269.074,87.633 263.739 C 90.424 258.239,189.916 83.006,191.950 80.009 C 195.072 75.408,198.589 74.044,203.544 75.513 M272.301 196.839 C 273.751 197.300,275.620 198.860,277.016 200.775 C 280.049 204.936,314.145 263.429,315.425 266.667 C 317.484 271.877,314.528 277.601,308.982 279.142 C 307.179 279.643,236.633 279.936,231.936 279.462 C 224.746 278.736,220.671 273.477,222.618 267.433 C 223.370 265.095,246.086 225.416,258.568 204.636 C 263.222 196.887,266.537 195.005,272.301 196.839 " stroke="none" fill="#ec4444" fill-rule="evenodd"></path></g></svg>