<svg id="svg" version="1.1" xmlns="http://www.w3.org/2000/svg" xmlns:xlink="http://www.w3.org/1999/xlink" width="400" height="400" viewBox="0, 0, 400,400"><g id="svgg"><path id="path0" d="M161.250 106.281 C 147.060 108.953,132.714 113.305,119.145 119.052 C 113.153 121.590,113.695 121.124,109.953 126.967 C 90.436 157.442,79.410 188.523,76.263 221.930 C 74.840 237.043,75.302 262.305,77.027 263.683 C 90.262 274.257,117.477 288.054,137.065 294.119 L 139.733 294.945 142.472 291.014 C 146.976 284.549,153.382 273.515,152.882 273.081 C 152.748 272.965,152.014 272.641,151.250 272.361 C 147.031 270.817,136.694 265.825,132.977 263.538 L 131.926 262.891 134.495 260.884 C 135.909 259.779,137.194 258.932,137.352 259.000 C 179.519 277.288,220.857 277.629,260.799 260.017 L 263.403 258.869 264.688 259.884 C 265.394 260.442,266.561 261.345,267.281 261.890 L 268.590 262.880 267.776 263.375 C 263.591 265.920,254.428 270.364,249.240 272.365 L 247.230 273.140 248.660 275.806 C 251.893 281.831,259.418 293.679,260.646 294.676 C 261.001 294.964,269.290 292.274,275.694 289.793 C 290.835 283.928,305.583 276.075,319.532 266.451 L 324.073 263.318 324.404 259.215 C 328.043 214.157,318.354 172.703,295.145 134.028 C 289.649 124.870,287.336 121.520,286.179 121.042 C 285.607 120.805,283.037 119.724,280.468 118.638 C 268.145 113.430,255.220 109.492,241.184 106.667 C 237.302 105.886,235.633 105.654,235.383 105.861 C 235.005 106.175,230.412 115.395,229.550 117.568 C 228.955 119.071,229.209 119.018,225.139 118.481 C 210.267 116.519,190.387 116.520,175.417 118.484 C 173.736 118.704,172.212 118.885,172.029 118.887 C 171.847 118.888,171.354 118.108,170.935 117.153 C 169.612 114.143,165.244 105.555,165.048 105.578 C 164.945 105.591,163.236 105.907,161.250 106.281 M163.775 185.284 C 178.675 189.095,185.804 207.068,178.323 221.963 C 169.185 240.157,144.560 238.098,137.906 218.584 C 131.537 199.908,146.358 180.830,163.775 185.284 M246.797 185.276 C 267.494 190.569,270.587 222.217,251.384 232.208 C 239.598 238.340,225.398 231.987,220.846 218.546 C 214.514 199.846,229.358 180.815,246.797 185.276 " stroke="none" fill="#fbfbfc" fill-rule="evenodd"></path><path id="path1" d="M188.611 0.164 C 188.076 0.222,185.889 0.403,183.750 0.566 C 69.380 9.273,-14.379 114.337,1.949 228.611 C 17.546 337.774,119.157 413.734,228.611 398.053 C 345.079 381.368,421.919 267.920,394.553 153.056 C 373.301 63.858,293.629 0.692,201.667 0.133 C 195.021 0.092,189.146 0.106,188.611 0.164 M167.703 110.486 C 169.061 113.198,170.515 116.198,170.935 117.153 C 171.354 118.108,171.847 118.888,172.029 118.887 C 172.212 118.885,173.736 118.704,175.417 118.484 C 190.387 116.520,210.267 116.519,225.139 118.481 C 229.209 119.018,228.955 119.071,229.550 117.568 C 230.412 115.395,235.005 106.175,235.383 105.861 C 235.633 105.654,237.302 105.886,241.184 106.667 C 255.220 109.492,268.145 113.430,280.468 118.638 C 283.037 119.724,285.607 120.805,286.179 121.042 C 287.336 121.520,289.649 124.870,295.145 134.028 C 318.354 172.703,328.043 214.157,324.404 259.215 L 324.073 263.318 319.532 266.451 C 305.583 276.075,290.835 283.928,275.694 289.793 C 269.290 292.274,261.001 294.964,260.646 294.676 C 259.418 293.679,251.893 281.831,248.660 275.806 L 247.230 273.140 249.240 272.365 C 254.428 270.364,263.591 265.920,267.776 263.375 L 268.590 262.880 267.281 261.890 C 266.561 261.345,265.394 260.442,264.688 259.884 L 263.403 258.869 260.799 260.017 C 220.857 277.629,179.519 277.288,137.352 259.000 C 137.194 258.932,135.909 259.779,134.495 260.884 L 131.926 262.891 132.977 263.538 C 136.694 265.825,147.031 270.817,151.250 272.361 C 152.014 272.641,152.748 272.965,152.882 273.081 C 153.382 273.515,146.976 284.549,142.472 291.014 L 139.733 294.945 137.065 294.119 C 117.477 288.054,90.262 274.257,77.027 263.683 C 75.302 262.305,74.840 237.043,76.263 221.930 C 79.410 188.523,90.436 157.442,109.953 126.967 C 113.695 121.124,113.153 121.590,119.145 119.052 C 133.323 113.047,154.350 106.875,165.048 105.578 C 165.151 105.566,166.346 107.774,167.703 110.486 M154.244 185.142 C 137.711 188.734,130.762 211.481,141.810 225.839 C 151.889 238.938,170.806 236.930,178.323 221.963 C 187.802 203.089,173.351 180.990,154.244 185.142 M236.667 185.292 C 217.222 190.326,213.068 219.176,230.101 230.888 C 241.895 238.998,257.868 233.048,262.724 218.737 C 269.137 199.834,254.259 180.738,236.667 185.292 " stroke="none" fill="#5c63f4" fill-rule="evenodd"></path></g></svg>