<svg id="svg" xmlns="http://www.w3.org/2000/svg" xmlns:xlink="http://www.w3.org/1999/xlink" width="400" height="400" viewBox="0, 0, 400,400" version="1.1"><g id="svgg"><path id="path0" d="M162.450 96.262 L 125.000 117.500 125.009 199.400 L 125.018 281.300 162.102 302.300 C 182.498 313.850,199.407 323.382,199.676 323.483 C 200.105 323.643,204.779 321.053,237.576 302.483 L 274.987 281.300 274.993 199.397 L 275.000 117.493 237.506 96.247 C 216.884 84.561,199.987 75.005,199.956 75.012 C 199.925 75.019,183.048 84.581,162.450 96.262 M226.300 106.890 C 240.490 115.336,252.175 122.316,252.266 122.400 C 252.419 122.540,200.423 152.400,200.026 152.400 C 199.791 152.400,147.786 122.679,147.738 122.517 C 147.661 122.260,199.699 91.402,200.100 91.467 C 200.320 91.503,212.110 98.443,226.300 106.890 M163.245 148.546 C 175.094 155.451,184.792 161.160,184.795 161.233 C 184.799 161.352,140.295 187.400,140.086 187.400 C 140.039 187.400,140.000 175.605,140.000 161.189 L 140.000 134.977 140.850 135.485 C 141.317 135.764,151.395 141.642,163.245 148.546 M259.932 187.334 C 259.833 187.434,215.312 161.442,215.261 161.255 C 215.238 161.170,225.272 155.245,237.559 148.088 L 259.900 135.076 259.951 161.170 C 259.979 175.523,259.970 187.296,259.932 187.334 M192.351 213.062 L 192.300 226.124 169.958 213.112 C 157.671 205.955,147.617 200.055,147.617 200.000 C 147.617 199.945,157.671 194.045,169.958 186.888 L 192.300 173.876 192.351 186.938 C 192.380 194.122,192.380 205.878,192.351 213.062 M230.845 187.346 C 242.694 194.251,252.389 199.945,252.389 200.000 C 252.389 200.055,242.694 205.749,230.845 212.654 C 218.995 219.558,208.918 225.436,208.450 225.715 L 207.600 226.223 207.600 200.000 L 207.600 173.777 208.450 174.285 C 208.918 174.564,218.995 180.442,230.845 187.346 M170.000 230.000 C 186.405 239.570,199.912 247.400,200.015 247.400 C 200.118 247.400,213.624 239.570,230.029 230.000 C 246.433 220.430,259.888 212.600,259.928 212.600 C 259.967 212.600,260.000 226.359,260.000 243.175 L 260.000 273.751 230.128 291.175 C 213.699 300.759,200.148 308.600,200.015 308.600 C 199.881 308.600,186.324 300.755,169.886 291.167 L 140.000 273.734 140.000 243.167 C 140.000 226.355,140.039 212.600,140.086 212.600 C 140.133 212.600,153.595 220.430,170.000 230.000 " stroke="none" fill="#fbfbfc" fill-rule="evenodd"></path><path id="path1" d="M190.100 0.136 C 83.460 5.514,0.029 93.213,0.002 199.958 C -0.026 310.667,89.285 399.996,200.000 399.996 C 325.902 399.996,420.387 285.293,396.374 161.600 C 377.474 64.247,289.186 -4.861,190.100 0.136 M237.506 96.247 L 275.000 117.493 274.993 199.397 L 274.987 281.300 237.576 302.483 C 204.779 321.053,200.105 323.643,199.676 323.483 C 199.407 323.382,182.498 313.850,162.102 302.300 L 125.018 281.300 125.009 199.400 L 125.000 117.500 162.450 96.262 C 183.048 84.581,199.925 75.019,199.956 75.012 C 199.987 75.005,216.884 84.561,237.506 96.247 M173.700 106.897 C 159.400 115.419,147.717 122.448,147.738 122.517 C 147.786 122.679,199.791 152.400,200.026 152.400 C 200.423 152.400,252.419 122.540,252.266 122.400 C 251.812 121.982,200.444 91.523,200.100 91.467 C 199.849 91.427,189.987 97.191,173.700 106.897 M140.000 161.189 C 140.000 175.605,140.039 187.400,140.086 187.400 C 140.295 187.400,184.799 161.352,184.795 161.233 C 184.792 161.160,175.094 155.451,163.245 148.546 C 151.395 141.642,141.317 135.764,140.850 135.485 L 140.000 134.977 140.000 161.189 M237.559 148.088 C 225.272 155.245,215.238 161.170,215.261 161.255 C 215.312 161.442,259.833 187.434,259.932 187.334 C 259.970 187.296,259.979 175.523,259.951 161.170 L 259.900 135.076 237.559 148.088 M169.958 186.888 C 157.671 194.045,147.617 199.945,147.617 200.000 C 147.617 200.055,157.671 205.955,169.958 213.112 L 192.300 226.124 192.351 213.062 C 192.380 205.878,192.380 194.122,192.351 186.938 L 192.300 173.876 169.958 186.888 M207.600 200.000 L 207.600 226.223 208.450 225.715 C 208.918 225.436,218.995 219.558,230.845 212.654 C 242.694 205.749,252.389 200.055,252.389 200.000 C 252.389 199.945,242.694 194.251,230.845 187.346 C 218.995 180.442,208.918 174.564,208.450 174.285 L 207.600 173.777 207.600 200.000 M140.000 243.167 L 140.000 273.734 169.886 291.167 C 186.324 300.755,199.881 308.600,200.015 308.600 C 200.148 308.600,213.699 300.759,230.128 291.175 L 260.000 273.751 260.000 243.175 C 260.000 226.359,259.967 212.600,259.928 212.600 C 259.888 212.600,246.433 220.430,230.029 230.000 C 213.624 239.570,200.118 247.400,200.015 247.400 C 199.912 247.400,186.405 239.570,170.000 230.000 C 153.595 220.430,140.133 212.600,140.086 212.600 C 140.039 212.600,140.000 226.355,140.000 243.167 " stroke="none" fill="#14b4ec" fill-rule="evenodd"></path></g></svg>