<svg id="svg" xmlns="http://www.w3.org/2000/svg" xmlns:xlink="http://www.w3.org/1999/xlink" width="400" height="400" viewBox="0, 0, 400,400" version="1.1"><g id="svgg"><path id="path0" d="M0.000 87.400 C 0.000 163.798,0.074 174.800,0.585 174.800 C 1.399 174.800,1.877 172.579,2.157 167.486 C 2.307 164.751,2.626 162.723,3.028 161.945 C 3.377 161.271,3.803 159.321,3.976 157.612 C 4.148 155.904,4.600 153.897,4.981 153.153 C 5.361 152.409,5.831 150.588,6.024 149.107 C 6.218 147.626,6.716 145.736,7.131 144.907 C 7.547 144.078,8.002 142.522,8.143 141.448 C 8.284 140.375,8.738 138.935,9.152 138.248 C 9.567 137.562,10.022 136.187,10.163 135.194 C 10.305 134.200,10.775 132.850,11.208 132.194 C 11.641 131.537,11.996 130.566,11.997 130.035 C 11.999 129.504,12.424 128.334,12.942 127.435 C 13.461 126.536,13.999 125.200,14.139 124.468 C 14.279 123.735,14.755 122.675,15.196 122.114 C 15.638 121.552,16.000 120.657,16.000 120.125 C 16.000 119.593,16.450 118.495,17.000 117.686 C 17.550 116.877,18.000 116.006,18.000 115.752 C 18.000 115.189,22.323 106.591,23.300 105.211 C 23.685 104.667,24.000 103.973,24.000 103.669 C 24.000 103.364,24.450 102.581,25.000 101.927 C 25.550 101.273,26.000 100.507,26.000 100.224 C 26.000 99.941,26.540 99.031,27.200 98.200 C 27.860 97.369,28.400 96.451,28.400 96.159 C 28.400 95.867,28.946 94.857,29.613 93.914 C 30.280 92.971,31.122 91.750,31.483 91.200 C 33.134 88.685,34.870 86.114,35.535 85.200 C 35.935 84.650,36.873 83.305,37.619 82.212 C 38.366 81.118,39.252 79.927,39.588 79.563 C 39.925 79.200,41.221 77.485,42.468 75.752 C 43.716 74.018,45.672 71.610,46.815 70.400 C 47.958 69.190,50.343 66.580,52.116 64.600 C 55.897 60.377,60.053 56.244,64.842 51.945 C 66.734 50.246,68.813 48.325,69.461 47.677 C 71.033 46.105,74.939 42.927,77.404 41.213 C 78.502 40.450,80.317 39.100,81.439 38.213 C 82.560 37.326,84.000 36.287,84.639 35.906 C 85.277 35.524,86.790 34.489,88.000 33.606 C 89.210 32.724,90.394 32.001,90.630 32.001 C 90.867 32.000,91.459 31.576,91.946 31.057 C 92.433 30.539,93.859 29.604,95.116 28.980 C 96.372 28.356,97.909 27.430,98.531 26.923 C 99.153 26.415,99.890 26.000,100.168 26.000 C 100.447 26.000,101.199 25.550,101.838 25.000 C 102.477 24.451,103.291 24.001,103.646 24.000 C 104.001 24.000,104.758 23.634,105.327 23.186 C 105.897 22.738,106.911 22.180,107.581 21.947 C 108.252 21.713,108.800 21.359,108.800 21.161 C 108.800 20.962,109.025 20.799,109.300 20.798 C 109.575 20.797,111.026 20.167,112.524 19.398 C 114.023 18.629,115.466 18.000,115.731 18.000 C 115.997 18.000,116.877 17.550,117.686 17.000 C 118.495 16.450,119.593 16.000,120.125 16.000 C 120.657 16.000,121.536 15.651,122.078 15.225 C 122.620 14.798,123.589 14.323,124.232 14.168 C 124.874 14.012,126.249 13.461,127.287 12.943 C 128.324 12.424,129.691 12.000,130.325 12.000 C 130.958 12.000,131.788 11.655,132.170 11.233 C 132.591 10.768,133.678 10.358,134.932 10.191 C 136.069 10.040,137.544 9.586,138.209 9.181 C 138.875 8.777,140.528 8.268,141.883 8.050 C 143.238 7.832,144.779 7.370,145.308 7.024 C 145.836 6.678,147.512 6.232,149.034 6.034 C 150.555 5.835,152.348 5.391,153.018 5.048 C 153.688 4.704,155.675 4.262,157.434 4.065 C 159.193 3.869,161.221 3.403,161.942 3.030 C 162.823 2.574,164.653 2.282,167.526 2.136 C 172.555 1.883,174.800 1.404,174.800 0.585 C 174.800 0.074,163.798 0.000,87.400 0.000 L 0.000 0.000 0.000 87.400 M224.400 0.585 C 224.400 1.391,226.614 1.877,231.485 2.142 C 234.184 2.289,236.219 2.631,237.485 3.149 C 238.538 3.580,240.631 4.033,242.135 4.155 C 243.639 4.277,245.430 4.656,246.114 4.997 C 246.798 5.338,248.627 5.811,250.179 6.048 C 251.730 6.284,253.540 6.797,254.200 7.188 C 254.860 7.578,256.357 8.003,257.528 8.133 C 258.698 8.263,260.249 8.736,260.975 9.184 C 261.701 9.633,262.924 10.000,263.693 10.000 C 264.489 10.000,265.533 10.347,266.115 10.804 C 266.677 11.247,268.066 11.785,269.200 12.000 C 270.334 12.215,271.723 12.753,272.285 13.196 C 272.848 13.638,273.647 14.000,274.062 14.000 C 274.476 14.000,275.827 14.540,277.064 15.200 C 278.301 15.860,279.623 16.400,280.002 16.400 C 280.382 16.400,281.121 16.726,281.646 17.124 C 282.171 17.523,283.344 18.063,284.253 18.326 C 285.161 18.589,286.128 19.073,286.402 19.402 C 286.675 19.731,287.211 20.000,287.593 20.000 C 287.976 20.000,288.925 20.432,289.703 20.960 C 290.481 21.488,291.515 22.046,292.000 22.200 C 292.485 22.354,293.519 22.912,294.297 23.440 C 295.075 23.968,295.932 24.400,296.202 24.400 C 296.472 24.400,297.121 24.736,297.646 25.146 C 298.171 25.556,299.679 26.466,300.998 27.168 C 302.317 27.870,303.768 28.794,304.224 29.222 C 304.679 29.650,305.341 30.000,305.695 30.000 C 306.049 30.000,306.847 30.413,307.469 30.917 C 308.901 32.079,310.594 33.231,311.999 34.000 C 312.601 34.330,314.063 35.374,315.247 36.321 C 316.431 37.267,318.688 38.977,320.263 40.121 C 321.838 41.264,324.088 43.050,325.263 44.089 C 326.438 45.128,329.200 47.457,331.400 49.265 C 336.475 53.436,348.276 65.319,351.029 69.031 C 352.184 70.588,354.055 72.838,355.186 74.031 C 356.317 75.224,357.899 77.190,358.700 78.400 C 360.101 80.515,361.588 82.438,363.228 84.256 C 363.652 84.727,364.000 85.258,364.000 85.435 C 364.000 85.858,365.885 88.655,367.288 90.314 C 367.900 91.037,368.400 91.807,368.400 92.027 C 368.400 92.246,369.210 93.655,370.200 95.158 C 371.190 96.661,372.000 98.081,372.000 98.314 C 372.000 98.548,372.425 99.247,372.945 99.869 C 373.465 100.491,374.030 101.450,374.200 102.000 C 374.371 102.550,374.845 103.429,375.255 103.954 C 375.665 104.479,376.000 105.128,376.000 105.398 C 376.000 105.668,376.432 106.525,376.960 107.303 C 377.488 108.081,378.052 109.141,378.212 109.659 C 378.373 110.176,378.815 111.050,379.194 111.600 C 379.573 112.150,380.011 113.126,380.166 113.768 C 380.322 114.411,380.798 115.380,381.225 115.922 C 381.651 116.464,382.000 117.320,382.000 117.823 C 382.000 118.327,382.450 119.273,383.000 119.927 C 383.550 120.581,384.000 121.560,384.000 122.104 C 384.000 122.647,384.354 123.542,384.786 124.091 C 385.218 124.641,385.765 125.970,386.000 127.045 C 386.235 128.120,386.752 129.450,387.149 130.000 C 387.545 130.550,387.997 131.802,388.153 132.782 C 388.308 133.761,388.766 135.111,389.171 135.782 C 389.575 136.452,390.033 137.900,390.188 139.000 C 390.343 140.100,390.792 141.540,391.185 142.200 C 391.577 142.860,391.999 144.438,392.121 145.707 C 392.244 146.976,392.694 148.596,393.122 149.307 C 393.571 150.054,394.012 151.762,394.166 153.352 C 394.313 154.865,394.725 156.665,395.082 157.352 C 395.440 158.040,395.874 160.282,396.050 162.351 C 396.225 164.414,396.720 167.204,397.149 168.551 C 397.603 169.976,398.025 172.756,398.157 175.200 C 398.535 182.148,398.853 184.400,399.457 184.400 C 399.913 184.400,400.000 169.589,400.000 92.200 L 400.000 0.000 312.200 0.000 C 235.451 0.000,224.400 0.074,224.400 0.585 M152.600 144.742 C 151.720 144.899,150.763 145.174,150.474 145.353 C 150.185 145.532,148.247 145.825,146.167 146.003 C 143.622 146.221,141.860 146.600,140.780 147.163 C 139.898 147.624,138.733 148.000,138.191 148.000 C 137.061 148.000,129.893 151.616,128.400 152.939 C 127.850 153.427,126.500 154.432,125.400 155.173 C 122.921 156.843,119.431 160.140,118.174 162.000 C 117.653 162.770,116.683 164.120,116.018 165.000 C 115.353 165.880,114.472 167.323,114.059 168.206 C 113.647 169.089,113.015 170.056,112.655 170.355 C 112.295 170.653,111.994 171.281,111.988 171.749 C 111.981 172.217,111.532 173.320,110.990 174.200 C 110.448 175.080,110.003 176.100,110.002 176.467 C 110.001 176.834,109.550 178.030,109.000 179.125 C 108.450 180.220,108.000 181.772,108.000 182.574 C 108.000 183.376,107.648 184.722,107.217 185.566 C 106.787 186.410,106.268 188.440,106.065 190.077 C 105.862 191.715,105.407 193.614,105.053 194.297 C 104.700 194.980,104.293 196.857,104.149 198.469 C 104.005 200.081,103.537 202.300,103.109 203.400 C 102.682 204.500,102.177 207.110,101.987 209.200 C 101.797 211.290,101.350 213.990,100.994 215.200 C 100.217 217.839,100.410 223.713,101.356 226.200 C 101.691 227.080,101.973 228.411,101.982 229.158 C 101.998 230.356,103.167 233.040,105.800 237.924 C 106.946 240.048,113.395 246.000,114.552 246.000 C 114.757 246.000,115.514 246.450,116.236 247.000 C 116.957 247.550,117.884 248.000,118.296 248.000 C 118.708 248.000,119.634 248.435,120.355 248.967 C 121.096 249.513,122.543 250.055,123.682 250.211 C 124.791 250.364,126.531 250.866,127.549 251.327 C 130.400 252.620,154.000 252.620,156.851 251.327 C 157.869 250.866,159.669 250.357,160.851 250.196 C 162.033 250.035,163.452 249.584,164.004 249.193 C 164.556 248.802,165.750 248.283,166.657 248.038 C 167.564 247.794,168.515 247.343,168.770 247.036 C 169.024 246.730,169.708 246.359,170.290 246.213 C 170.871 246.067,171.867 245.510,172.504 244.974 C 173.140 244.438,173.813 244.000,173.998 244.000 C 175.289 244.000,180.841 238.503,183.640 234.454 C 184.608 233.053,185.982 231.073,186.694 230.054 C 187.406 229.034,187.991 227.965,187.994 227.679 C 187.997 227.392,188.450 226.495,189.000 225.686 C 189.550 224.877,190.000 223.923,190.000 223.567 C 190.000 223.211,190.450 222.073,191.000 221.038 C 191.550 220.004,192.000 218.780,192.000 218.317 C 192.000 217.855,192.426 216.560,192.947 215.439 C 193.468 214.317,194.012 212.347,194.156 211.060 C 194.299 209.773,194.749 207.973,195.156 207.060 C 195.563 206.147,195.997 204.111,196.121 202.536 C 196.246 200.960,196.696 198.890,197.121 197.936 C 197.576 196.916,197.997 194.797,198.142 192.800 C 198.278 190.930,198.752 188.369,199.195 187.110 C 200.506 183.382,200.386 172.108,199.004 169.140 C 198.456 167.963,198.006 166.603,198.004 166.118 C 198.002 165.633,197.550 164.572,197.000 163.762 C 196.450 162.951,196.000 162.024,196.000 161.701 C 196.000 161.099,195.862 160.921,192.591 157.303 C 190.045 154.485,185.682 150.959,183.762 150.166 C 182.903 149.811,181.930 149.288,181.600 149.005 C 181.270 148.721,180.390 148.359,179.645 148.201 C 178.900 148.042,177.370 147.484,176.245 146.960 C 174.910 146.338,173.466 146.006,172.087 146.004 C 170.925 146.002,169.305 145.704,168.487 145.342 C 166.854 144.618,155.652 144.195,152.600 144.742 M227.800 146.449 C 225.476 147.179,224.041 150.031,224.001 154.000 C 223.991 154.990,223.613 156.610,223.162 157.600 C 222.712 158.590,222.242 160.660,222.119 162.200 C 221.996 163.740,221.553 165.769,221.134 166.709 C 220.715 167.648,220.218 169.988,220.030 171.909 C 219.842 173.829,219.413 175.940,219.077 176.600 C 218.741 177.260,218.278 179.370,218.049 181.289 C 217.819 183.208,217.357 185.310,217.021 185.958 C 216.686 186.607,216.304 188.457,216.172 190.069 C 216.041 191.681,215.577 193.871,215.141 194.935 C 214.704 195.999,214.246 198.159,214.121 199.735 C 213.997 201.311,213.557 203.359,213.144 204.287 C 212.730 205.215,212.282 207.375,212.148 209.087 C 212.014 210.799,211.577 212.963,211.177 213.895 C 210.777 214.827,210.324 216.897,210.171 218.495 C 210.018 220.093,209.542 222.297,209.115 223.394 C 208.687 224.490,208.238 226.650,208.116 228.194 C 207.995 229.737,207.557 231.759,207.143 232.688 C 206.730 233.616,206.236 235.908,206.046 237.781 C 205.856 239.654,205.435 241.595,205.110 242.093 C 204.325 243.298,203.819 248.514,204.384 249.571 C 205.229 251.150,208.211 251.600,217.824 251.600 C 230.085 251.600,231.592 250.972,232.176 245.625 C 232.330 244.209,232.743 242.499,233.092 241.825 C 233.441 241.151,233.861 239.140,234.024 237.356 C 234.188 235.572,234.636 233.504,235.020 232.761 C 235.404 232.018,235.868 229.941,236.050 228.144 C 236.232 226.348,236.745 223.954,237.190 222.824 C 237.636 221.695,238.000 219.994,238.000 219.045 C 238.000 214.200,236.856 214.491,256.834 214.259 C 271.215 214.092,272.388 214.025,274.034 213.277 C 275.005 212.836,276.814 212.288,278.054 212.059 C 279.294 211.831,280.914 211.275,281.654 210.824 C 282.394 210.372,283.333 210.002,283.740 210.001 C 285.973 209.997,298.000 200.053,298.000 198.212 C 298.000 197.909,298.419 197.153,298.932 196.531 C 299.921 195.331,302.400 190.442,302.400 189.691 C 302.400 189.446,302.741 188.650,303.157 187.923 C 303.574 187.195,304.041 185.700,304.195 184.600 C 304.349 183.500,304.818 181.845,305.238 180.922 C 306.514 178.113,306.358 167.916,305.000 165.362 C 304.450 164.327,304.000 163.068,304.000 162.564 C 304.000 161.567,299.991 156.372,298.094 154.910 C 297.459 154.421,296.449 153.566,295.849 153.010 C 295.249 152.455,294.533 152.000,294.257 152.000 C 293.981 152.000,293.145 151.550,292.400 151.000 C 291.655 150.450,290.665 150.000,290.200 150.000 C 289.735 150.000,288.745 149.550,288.000 149.000 C 286.977 148.245,286.149 147.999,284.622 147.998 C 283.510 147.996,282.060 147.713,281.400 147.369 C 278.916 146.073,231.583 145.261,227.800 146.449 M163.978 167.189 C 164.853 167.635,165.830 168.000,166.151 168.000 C 166.952 168.000,170.000 170.903,170.000 171.667 C 170.000 172.009,170.450 172.951,171.000 173.762 C 172.369 175.780,172.491 184.224,171.203 187.888 C 170.764 189.135,170.289 191.606,170.147 193.378 C 170.001 195.195,169.573 197.229,169.166 198.042 C 168.768 198.835,168.268 200.905,168.055 202.642 C 167.841 204.379,167.297 206.790,166.846 208.000 C 166.395 209.210,166.020 210.892,166.013 211.737 C 166.005 212.652,165.676 213.686,165.200 214.291 C 164.760 214.850,164.400 215.659,164.400 216.089 C 164.400 217.545,161.504 222.058,158.831 224.768 C 153.662 230.010,147.347 231.711,138.217 230.321 C 131.453 229.291,127.419 221.546,129.325 213.250 C 129.660 211.793,130.039 209.300,130.169 207.710 C 130.298 206.121,130.737 203.961,131.145 202.910 C 131.553 201.860,132.007 199.656,132.154 198.013 C 132.301 196.370,132.707 194.590,133.057 194.058 C 133.406 193.525,133.857 191.751,134.060 190.115 C 134.264 188.480,134.783 186.483,135.215 185.677 C 135.647 184.871,136.000 183.816,136.000 183.332 C 136.000 182.169,136.657 180.486,137.402 179.741 C 137.731 179.412,138.000 178.814,138.000 178.411 C 138.000 176.761,143.492 170.829,146.960 168.734 C 147.363 168.491,150.858 167.295,153.800 166.395 C 155.837 165.771,162.167 166.265,163.978 167.189 M270.467 167.542 C 274.283 168.495,275.002 168.903,276.190 170.784 C 276.728 171.636,277.355 172.449,277.584 172.590 C 278.344 173.060,278.089 179.557,277.240 181.374 C 276.822 182.268,276.270 183.668,276.014 184.484 C 275.359 186.572,270.476 191.440,268.502 191.974 C 267.676 192.198,266.287 192.745,265.415 193.190 C 263.954 193.937,263.081 194.000,254.192 194.000 C 243.850 194.000,242.655 193.795,243.495 192.168 C 243.714 191.746,243.991 190.030,244.111 188.356 C 244.231 186.681,244.691 184.431,245.133 183.356 C 245.575 182.280,246.051 179.960,246.191 178.200 C 246.332 176.440,246.709 174.596,247.030 174.103 C 247.352 173.610,247.716 172.350,247.840 171.303 C 248.164 168.577,248.751 167.270,249.739 167.077 C 252.675 166.504,267.656 166.839,270.467 167.542 M398.675 217.100 C 398.543 218.365,398.325 221.380,398.191 223.800 C 398.056 226.220,397.702 228.920,397.404 229.800 C 396.567 232.272,396.000 235.438,396.000 237.642 C 396.000 238.766,395.662 240.385,395.230 241.335 C 394.806 242.265,394.338 244.190,394.189 245.613 C 394.041 247.036,393.585 248.866,393.176 249.681 C 392.767 250.496,392.312 252.116,392.165 253.281 C 392.018 254.446,391.538 256.204,391.099 257.187 C 390.660 258.170,390.210 259.700,390.100 260.587 C 389.989 261.474,389.586 262.740,389.203 263.400 C 388.821 264.060,388.290 265.498,388.024 266.595 C 387.758 267.692,387.361 268.807,387.140 269.072 C 386.920 269.338,386.495 270.483,386.195 271.618 C 385.896 272.752,385.390 273.977,385.070 274.340 C 384.751 274.703,384.357 275.630,384.196 276.400 C 384.035 277.170,383.475 278.536,382.952 279.435 C 382.428 280.334,382.000 281.328,382.000 281.642 C 382.000 281.957,381.550 282.877,381.000 283.686 C 380.450 284.495,380.000 285.546,380.000 286.021 C 380.000 286.496,379.550 287.419,379.000 288.073 C 378.450 288.727,378.000 289.580,378.000 289.968 C 378.000 290.357,377.550 291.199,377.000 291.838 C 376.451 292.477,376.000 293.270,375.998 293.600 C 375.996 293.930,375.628 294.740,375.180 295.400 C 374.732 296.060,374.097 297.140,373.768 297.800 C 372.509 300.331,371.846 301.438,370.939 302.531 C 370.423 303.153,370.000 303.976,370.000 304.361 C 370.000 304.746,369.550 305.483,369.000 306.000 C 368.450 306.517,368.000 307.150,368.000 307.408 C 368.000 307.665,367.640 308.202,367.200 308.600 C 366.760 308.998,366.400 309.560,366.400 309.848 C 366.400 310.136,365.895 310.963,365.279 311.686 C 364.305 312.828,362.725 315.064,360.348 318.669 C 359.990 319.212,359.315 319.925,358.848 320.251 C 358.382 320.578,358.000 321.032,358.000 321.259 C 358.000 324.377,329.075 353.400,321.551 357.833 C 321.147 358.071,320.398 358.701,319.886 359.233 C 318.515 360.659,316.696 362.000,316.134 362.000 C 315.863 362.000,315.180 362.405,314.617 362.900 C 312.400 364.849,307.849 368.000,307.252 368.000 C 307.080 368.000,306.517 368.450,306.000 369.000 C 305.483 369.550,304.757 370.000,304.385 370.000 C 304.014 370.000,303.031 370.540,302.200 371.200 C 301.369 371.860,300.504 372.400,300.276 372.400 C 300.049 372.400,299.579 372.653,299.231 372.962 C 298.884 373.271,297.126 374.274,295.325 375.191 C 293.523 376.108,291.836 377.115,291.576 377.429 C 291.315 377.743,290.709 378.000,290.229 378.000 C 289.748 378.000,288.745 378.450,288.000 379.000 C 287.255 379.550,286.391 380.000,286.081 380.000 C 285.771 380.000,284.681 380.441,283.659 380.980 C 280.465 382.662,276.562 384.400,275.968 384.403 C 275.656 384.404,274.860 384.763,274.200 385.200 C 273.540 385.637,272.550 385.997,272.000 385.999 C 271.450 386.002,270.280 386.448,269.400 386.990 C 268.520 387.532,267.332 387.981,266.760 387.988 C 266.187 387.994,264.927 388.420,263.960 388.934 C 262.992 389.448,261.413 389.994,260.450 390.147 C 259.488 390.300,257.958 390.757,257.050 391.161 C 256.143 391.566,254.446 392.018,253.281 392.165 C 252.116 392.312,250.496 392.770,249.681 393.183 C 248.866 393.595,247.030 394.059,245.600 394.213 C 244.170 394.367,242.460 394.773,241.800 395.114 C 241.140 395.455,238.890 395.869,236.800 396.033 C 234.710 396.197,231.920 396.691,230.600 397.129 C 229.074 397.636,226.524 398.017,223.600 398.174 C 216.735 398.543,214.800 398.825,214.800 399.455 C 214.800 399.913,229.515 400.000,307.400 400.000 L 400.000 400.000 400.000 307.400 C 400.000 229.674,399.913 214.800,399.457 214.800 C 399.090 214.800,398.836 215.547,398.675 217.100 M0.000 312.200 L 0.000 400.000 92.400 400.000 C 169.696 400.000,184.800 399.912,184.800 399.460 C 184.800 398.920,177.160 397.990,172.786 397.997 C 171.789 397.999,169.918 397.629,168.629 397.177 C 167.341 396.724,164.737 396.248,162.843 396.120 C 160.949 395.992,158.567 395.564,157.550 395.169 C 156.532 394.774,154.552 394.322,153.150 394.164 C 151.747 394.007,149.949 393.540,149.153 393.126 C 148.358 392.713,146.738 392.268,145.553 392.136 C 144.369 392.005,142.860 391.582,142.200 391.196 C 141.540 390.810,140.183 390.378,139.184 390.235 C 138.185 390.093,136.490 389.532,135.416 388.988 C 134.343 388.445,132.938 388.000,132.295 388.000 C 131.652 388.000,130.682 387.650,130.139 387.223 C 129.596 386.796,128.186 386.246,127.006 386.001 C 125.827 385.756,124.650 385.301,124.391 384.989 C 124.132 384.677,123.263 384.300,122.460 384.153 C 121.657 384.005,120.491 383.461,119.869 382.942 C 119.247 382.424,118.437 382.002,118.069 382.005 C 117.701 382.008,115.780 381.204,113.800 380.219 C 111.820 379.233,109.570 378.141,108.800 377.792 C 107.336 377.128,105.949 376.351,103.600 374.880 C 102.830 374.398,101.916 374.002,101.570 374.001 C 101.223 374.001,100.517 373.550,100.000 373.000 C 99.483 372.450,98.797 372.000,98.475 372.000 C 98.154 372.000,96.661 371.190,95.158 370.200 C 93.655 369.210,92.269 368.400,92.078 368.400 C 91.887 368.400,90.627 367.514,89.277 366.431 C 87.928 365.348,86.413 364.332,85.912 364.174 C 85.410 364.015,84.640 363.564,84.200 363.171 C 82.344 361.511,80.466 360.070,78.400 358.719 C 77.190 357.928,75.660 356.720,75.000 356.035 C 74.340 355.350,72.105 353.492,70.034 351.905 C 65.411 348.362,53.716 336.816,49.265 331.400 C 47.457 329.200,45.128 326.438,44.089 325.263 C 43.050 324.088,41.264 321.838,40.121 320.263 C 38.977 318.688,37.315 316.484,36.428 315.365 C 35.541 314.245,34.587 312.801,34.308 312.155 C 34.029 311.509,33.478 310.625,33.085 310.190 C 31.552 308.495,30.497 306.957,30.210 306.000 C 30.045 305.450,29.501 304.550,29.000 304.000 C 28.499 303.450,27.958 302.564,27.796 302.031 C 27.634 301.498,27.342 300.868,27.145 300.631 C 26.190 299.477,24.645 296.873,24.281 295.800 C 24.056 295.140,23.451 294.091,22.936 293.469 C 22.421 292.847,22.000 292.063,22.000 291.727 C 22.000 291.391,21.550 290.581,21.000 289.927 C 20.450 289.273,20.000 288.324,20.000 287.818 C 20.000 287.312,19.740 286.682,19.422 286.418 C 19.104 286.154,18.550 285.054,18.191 283.974 C 17.832 282.893,17.386 281.915,17.200 281.800 C 17.014 281.685,16.549 280.650,16.167 279.500 C 15.785 278.350,15.142 276.867,14.738 276.205 C 14.334 275.542,14.002 274.603,14.001 274.118 C 14.001 273.633,13.550 272.572,13.000 271.762 C 12.450 270.951,12.000 269.817,12.000 269.241 C 12.000 268.665,11.550 267.348,11.000 266.315 C 10.450 265.282,10.000 263.988,10.000 263.439 C 10.000 262.891,9.550 261.596,9.000 260.562 C 8.416 259.462,8.000 258.019,8.000 257.088 C 8.000 256.198,7.650 254.928,7.208 254.212 C 6.772 253.507,6.249 251.755,6.045 250.318 C 5.842 248.881,5.377 247.129,5.012 246.423 C 4.647 245.717,4.255 243.848,4.141 242.270 C 4.027 240.691,3.581 238.538,3.149 237.485 C 2.631 236.219,2.289 234.185,2.142 231.485 C 1.877 226.614,1.391 224.400,0.585 224.400 C 0.074 224.400,0.000 235.451,0.000 312.200 " stroke="none" fill="#fbf8f8" fill-rule="evenodd"></path><path id="path1" d="M174.800 0.585 C 174.800 1.404,172.555 1.883,167.526 2.136 C 164.653 2.282,162.823 2.574,161.942 3.030 C 161.221 3.403,159.193 3.869,157.434 4.065 C 155.675 4.262,153.688 4.704,153.018 5.048 C 152.348 5.391,150.555 5.835,149.034 6.034 C 147.512 6.232,145.836 6.678,145.308 7.024 C 144.779 7.370,143.238 7.832,141.883 8.050 C 140.528 8.268,138.875 8.777,138.209 9.181 C 137.544 9.586,136.069 10.040,134.932 10.191 C 133.678 10.358,132.591 10.768,132.170 11.233 C 131.788 11.655,130.958 12.000,130.325 12.000 C 129.691 12.000,128.324 12.424,127.287 12.943 C 126.249 13.461,124.874 14.012,124.232 14.168 C 123.589 14.323,122.620 14.798,122.078 15.225 C 121.536 15.651,120.657 16.000,120.125 16.000 C 119.593 16.000,118.495 16.450,117.686 17.000 C 116.877 17.550,115.997 18.000,115.731 18.000 C 115.466 18.000,114.023 18.629,112.524 19.398 C 111.026 20.167,109.575 20.797,109.300 20.798 C 109.025 20.799,108.800 20.962,108.800 21.161 C 108.800 21.359,108.252 21.713,107.581 21.947 C 106.911 22.180,105.897 22.738,105.327 23.186 C 104.758 23.634,104.001 24.000,103.646 24.000 C 103.291 24.001,102.477 24.451,101.838 25.000 C 101.199 25.550,100.447 26.000,100.168 26.000 C 99.890 26.000,99.153 26.415,98.531 26.923 C 97.909 27.430,96.372 28.356,95.116 28.980 C 93.859 29.604,92.433 30.539,91.946 31.057 C 91.459 31.576,90.867 32.000,90.630 32.001 C 90.394 32.001,89.210 32.724,88.000 33.606 C 86.790 34.489,85.277 35.524,84.639 35.906 C 84.000 36.287,82.560 37.326,81.439 38.213 C 80.317 39.100,78.502 40.450,77.404 41.213 C 74.939 42.927,71.033 46.105,69.461 47.677 C 68.813 48.325,66.734 50.246,64.842 51.945 C 60.053 56.244,55.897 60.377,52.116 64.600 C 50.343 66.580,47.958 69.190,46.815 70.400 C 45.672 71.610,43.716 74.018,42.468 75.752 C 41.221 77.485,39.925 79.200,39.588 79.563 C 39.252 79.927,38.366 81.118,37.619 82.212 C 36.873 83.305,35.935 84.650,35.535 85.200 C 34.870 86.114,33.134 88.685,31.483 91.200 C 31.122 91.750,30.280 92.971,29.613 93.914 C 28.946 94.857,28.400 95.867,28.400 96.159 C 28.400 96.451,27.860 97.369,27.200 98.200 C 26.540 99.031,26.000 99.941,26.000 100.224 C 26.000 100.507,25.550 101.273,25.000 101.927 C 24.450 102.581,24.000 103.364,24.000 103.669 C 24.000 103.973,23.685 104.667,23.300 105.211 C 22.323 106.591,18.000 115.189,18.000 115.752 C 18.000 116.006,17.550 116.877,17.000 117.686 C 16.450 118.495,16.000 119.593,16.000 120.125 C 16.000 120.657,15.638 121.552,15.196 122.114 C 14.755 122.675,14.279 123.735,14.139 124.468 C 13.999 125.200,13.461 126.536,12.942 127.435 C 12.424 128.334,11.999 129.504,11.997 130.035 C 11.996 130.566,11.641 131.537,11.208 132.194 C 10.775 132.850,10.305 134.200,10.163 135.194 C 10.022 136.187,9.567 137.562,9.152 138.248 C 8.738 138.935,8.284 140.375,8.143 141.448 C 8.002 142.522,7.547 144.078,7.131 144.907 C 6.716 145.736,6.218 147.626,6.024 149.107 C 5.831 150.588,5.361 152.409,4.981 153.153 C 4.600 153.897,4.148 155.904,3.976 157.612 C 3.803 159.321,3.377 161.271,3.028 161.945 C 2.626 162.723,2.307 164.751,2.157 167.486 C 1.877 172.579,1.399 174.800,0.585 174.800 C 0.078 174.800,0.000 178.113,0.000 199.600 C 0.000 221.087,0.078 224.400,0.585 224.400 C 1.391 224.400,1.877 226.614,2.142 231.485 C 2.289 234.185,2.631 236.219,3.149 237.485 C 3.581 238.538,4.027 240.691,4.141 242.270 C 4.255 243.848,4.647 245.717,5.012 246.423 C 5.377 247.129,5.842 248.881,6.045 250.318 C 6.249 251.755,6.772 253.507,7.208 254.212 C 7.650 254.928,8.000 256.198,8.000 257.088 C 8.000 258.019,8.416 259.462,9.000 260.562 C 9.550 261.596,10.000 262.891,10.000 263.439 C 10.000 263.988,10.450 265.282,11.000 266.315 C 11.550 267.348,12.000 268.665,12.000 269.241 C 12.000 269.817,12.450 270.951,13.000 271.762 C 13.550 272.572,14.001 273.633,14.001 274.118 C 14.002 274.603,14.334 275.542,14.738 276.205 C 15.142 276.867,15.785 278.350,16.167 279.500 C 16.549 280.650,17.014 281.685,17.200 281.800 C 17.386 281.915,17.832 282.893,18.191 283.974 C 18.550 285.054,19.104 286.154,19.422 286.418 C 19.740 286.682,20.000 287.312,20.000 287.818 C 20.000 288.324,20.450 289.273,21.000 289.927 C 21.550 290.581,22.000 291.391,22.000 291.727 C 22.000 292.063,22.421 292.847,22.936 293.469 C 23.451 294.091,24.056 295.140,24.281 295.800 C 24.645 296.873,26.190 299.477,27.145 300.631 C 27.342 300.868,27.634 301.498,27.796 302.031 C 27.958 302.564,28.499 303.450,29.000 304.000 C 29.501 304.550,30.045 305.450,30.210 306.000 C 30.497 306.957,31.552 308.495,33.085 310.190 C 33.478 310.625,34.029 311.509,34.308 312.155 C 34.587 312.801,35.541 314.245,36.428 315.365 C 37.315 316.484,38.977 318.688,40.121 320.263 C 41.264 321.838,43.050 324.088,44.089 325.263 C 45.128 326.438,47.457 329.200,49.265 331.400 C 53.716 336.816,65.411 348.362,70.034 351.905 C 72.105 353.492,74.340 355.350,75.000 356.035 C 75.660 356.720,77.190 357.928,78.400 358.719 C 80.466 360.070,82.344 361.511,84.200 363.171 C 84.640 363.564,85.410 364.015,85.912 364.174 C 86.413 364.332,87.928 365.348,89.277 366.431 C 90.627 367.514,91.887 368.400,92.078 368.400 C 92.269 368.400,93.655 369.210,95.158 370.200 C 96.661 371.190,98.154 372.000,98.475 372.000 C 98.797 372.000,99.483 372.450,100.000 373.000 C 100.517 373.550,101.223 374.001,101.570 374.001 C 101.916 374.002,102.830 374.398,103.600 374.880 C 105.949 376.351,107.336 377.128,108.800 377.792 C 109.570 378.141,111.820 379.233,113.800 380.219 C 115.780 381.204,117.701 382.008,118.069 382.005 C 118.437 382.002,119.247 382.424,119.869 382.942 C 120.491 383.461,121.657 384.005,122.460 384.153 C 123.263 384.300,124.132 384.677,124.391 384.989 C 124.650 385.301,125.827 385.756,127.006 386.001 C 128.186 386.246,129.596 386.796,130.139 387.223 C 130.682 387.650,131.652 388.000,132.295 388.000 C 132.938 388.000,134.343 388.445,135.416 388.988 C 136.490 389.532,138.185 390.093,139.184 390.235 C 140.183 390.378,141.540 390.810,142.200 391.196 C 142.860 391.582,144.369 392.005,145.553 392.136 C 146.738 392.268,148.358 392.713,149.153 393.126 C 149.949 393.540,151.747 394.007,153.150 394.164 C 154.552 394.322,156.532 394.774,157.550 395.169 C 158.567 395.564,160.949 395.992,162.843 396.120 C 164.737 396.248,167.341 396.724,168.629 397.177 C 169.918 397.629,171.789 397.999,172.786 397.997 C 177.160 397.990,184.800 398.920,184.800 399.460 C 184.800 399.904,187.475 400.000,199.800 400.000 C 212.193 400.000,214.800 399.905,214.800 399.455 C 214.800 398.825,216.735 398.543,223.600 398.174 C 226.524 398.017,229.074 397.636,230.600 397.129 C 231.920 396.691,234.710 396.197,236.800 396.033 C 238.890 395.869,241.140 395.455,241.800 395.114 C 242.460 394.773,244.170 394.367,245.600 394.213 C 247.030 394.059,248.866 393.595,249.681 393.183 C 250.496 392.770,252.116 392.312,253.281 392.165 C 254.446 392.018,256.143 391.566,257.050 391.161 C 257.958 390.757,259.488 390.300,260.450 390.147 C 261.413 389.994,262.992 389.448,263.960 388.934 C 264.927 388.420,266.187 387.994,266.760 387.988 C 267.332 387.981,268.520 387.532,269.400 386.990 C 270.280 386.448,271.450 386.002,272.000 385.999 C 272.550 385.997,273.540 385.637,274.200 385.200 C 274.860 384.763,275.656 384.404,275.968 384.403 C 276.562 384.400,280.465 382.662,283.659 380.980 C 284.681 380.441,285.771 380.000,286.081 380.000 C 286.391 380.000,287.255 379.550,288.000 379.000 C 288.745 378.450,289.748 378.000,290.229 378.000 C 290.709 378.000,291.315 377.743,291.576 377.429 C 291.836 377.115,293.523 376.108,295.325 375.191 C 297.126 374.274,298.884 373.271,299.231 372.962 C 299.579 372.653,300.049 372.400,300.276 372.400 C 300.504 372.400,301.369 371.860,302.200 371.200 C 303.031 370.540,304.014 370.000,304.385 370.000 C 304.757 370.000,305.483 369.550,306.000 369.000 C 306.517 368.450,307.080 368.000,307.252 368.000 C 307.849 368.000,312.400 364.849,314.617 362.900 C 315.180 362.405,315.863 362.000,316.134 362.000 C 316.696 362.000,318.515 360.659,319.886 359.233 C 320.398 358.701,321.147 358.071,321.551 357.833 C 329.075 353.400,358.000 324.377,358.000 321.259 C 358.000 321.032,358.382 320.578,358.848 320.251 C 359.315 319.925,359.990 319.212,360.348 318.669 C 362.725 315.064,364.305 312.828,365.279 311.686 C 365.895 310.963,366.400 310.136,366.400 309.848 C 366.400 309.560,366.760 308.998,367.200 308.600 C 367.640 308.202,368.000 307.665,368.000 307.408 C 368.000 307.150,368.450 306.517,369.000 306.000 C 369.550 305.483,370.000 304.746,370.000 304.361 C 370.000 303.976,370.423 303.153,370.939 302.531 C 371.846 301.438,372.509 300.331,373.768 297.800 C 374.097 297.140,374.732 296.060,375.180 295.400 C 375.628 294.740,375.996 293.930,375.998 293.600 C 376.000 293.270,376.451 292.477,377.000 291.838 C 377.550 291.199,378.000 290.357,378.000 289.968 C 378.000 289.580,378.450 288.727,379.000 288.073 C 379.550 287.419,380.000 286.496,380.000 286.021 C 380.000 285.546,380.450 284.495,381.000 283.686 C 381.550 282.877,382.000 281.957,382.000 281.642 C 382.000 281.328,382.428 280.334,382.952 279.435 C 383.475 278.536,384.035 277.170,384.196 276.400 C 384.357 275.630,384.751 274.703,385.070 274.340 C 385.390 273.977,385.896 272.752,386.195 271.618 C 386.495 270.483,386.920 269.338,387.140 269.072 C 387.361 268.807,387.758 267.692,388.024 266.595 C 388.290 265.498,388.821 264.060,389.203 263.400 C 389.586 262.740,389.989 261.474,390.100 260.587 C 390.210 259.700,390.660 258.170,391.099 257.187 C 391.538 256.204,392.018 254.446,392.165 253.281 C 392.312 252.116,392.767 250.496,393.176 249.681 C 393.585 248.866,394.041 247.036,394.189 245.613 C 394.338 244.190,394.806 242.265,395.230 241.335 C 395.662 240.385,396.000 238.766,396.000 237.642 C 396.000 235.438,396.567 232.272,397.404 229.800 C 397.702 228.920,398.056 226.220,398.191 223.800 C 398.587 216.676,398.851 214.800,399.457 214.800 C 399.905 214.800,400.000 212.136,400.000 199.600 C 400.000 187.064,399.905 184.400,399.457 184.400 C 398.853 184.400,398.535 182.148,398.157 175.200 C 398.025 172.756,397.603 169.976,397.149 168.551 C 396.720 167.204,396.225 164.414,396.050 162.351 C 395.874 160.282,395.440 158.040,395.082 157.352 C 394.725 156.665,394.313 154.865,394.166 153.352 C 394.012 151.762,393.571 150.054,393.122 149.307 C 392.694 148.596,392.244 146.976,392.121 145.707 C 391.999 144.438,391.577 142.860,391.185 142.200 C 390.792 141.540,390.343 140.100,390.188 139.000 C 390.033 137.900,389.575 136.452,389.171 135.782 C 388.766 135.111,388.308 133.761,388.153 132.782 C 387.997 131.802,387.545 130.550,387.149 130.000 C 386.752 129.450,386.235 128.120,386.000 127.045 C 385.765 125.970,385.218 124.641,384.786 124.091 C 384.354 123.542,384.000 122.647,384.000 122.104 C 384.000 121.560,383.550 120.581,383.000 119.927 C 382.450 119.273,382.000 118.327,382.000 117.823 C 382.000 117.320,381.651 116.464,381.225 115.922 C 380.798 115.380,380.322 114.411,380.166 113.768 C 380.011 113.126,379.573 112.150,379.194 111.600 C 378.815 111.050,378.373 110.176,378.212 109.659 C 378.052 109.141,377.488 108.081,376.960 107.303 C 376.432 106.525,376.000 105.668,376.000 105.398 C 376.000 105.128,375.665 104.479,375.255 103.954 C 374.845 103.429,374.371 102.550,374.200 102.000 C 374.030 101.450,373.465 100.491,372.945 99.869 C 372.425 99.247,372.000 98.548,372.000 98.314 C 372.000 98.081,371.190 96.661,370.200 95.158 C 369.210 93.655,368.400 92.246,368.400 92.027 C 368.400 91.807,367.900 91.037,367.288 90.314 C 365.885 88.655,364.000 85.858,364.000 85.435 C 364.000 85.258,363.652 84.727,363.228 84.256 C 361.588 82.438,360.101 80.515,358.700 78.400 C 357.899 77.190,356.317 75.224,355.186 74.031 C 354.055 72.838,352.184 70.588,351.029 69.031 C 348.276 65.319,336.475 53.436,331.400 49.265 C 329.200 47.457,326.438 45.128,325.263 44.089 C 324.088 43.050,321.838 41.264,320.263 40.121 C 318.688 38.977,316.431 37.267,315.247 36.321 C 314.063 35.374,312.601 34.330,311.999 34.000 C 310.594 33.231,308.901 32.079,307.469 30.917 C 306.847 30.413,306.049 30.000,305.695 30.000 C 305.341 30.000,304.679 29.650,304.224 29.222 C 303.768 28.794,302.317 27.870,300.998 27.168 C 299.679 26.466,298.171 25.556,297.646 25.146 C 297.121 24.736,296.472 24.400,296.202 24.400 C 295.932 24.400,295.075 23.968,294.297 23.440 C 293.519 22.912,292.485 22.354,292.000 22.200 C 291.515 22.046,290.481 21.488,289.703 20.960 C 288.925 20.432,287.976 20.000,287.593 20.000 C 287.211 20.000,286.675 19.731,286.402 19.402 C 286.128 19.073,285.161 18.589,284.253 18.326 C 283.344 18.063,282.171 17.523,281.646 17.124 C 281.121 16.726,280.382 16.400,280.002 16.400 C 279.623 16.400,278.301 15.860,277.064 15.200 C 275.827 14.540,274.476 14.000,274.062 14.000 C 273.647 14.000,272.848 13.638,272.285 13.196 C 271.723 12.753,270.334 12.215,269.200 12.000 C 268.066 11.785,266.677 11.247,266.115 10.804 C 265.533 10.347,264.489 10.000,263.693 10.000 C 262.924 10.000,261.701 9.633,260.975 9.184 C 260.249 8.736,258.698 8.263,257.528 8.133 C 256.357 8.003,254.860 7.578,254.200 7.188 C 253.540 6.797,251.730 6.284,250.179 6.048 C 248.627 5.811,246.798 5.338,246.114 4.997 C 245.430 4.656,243.639 4.277,242.135 4.155 C 240.631 4.033,238.538 3.580,237.485 3.149 C 236.219 2.631,234.184 2.289,231.485 2.142 C 226.614 1.877,224.400 1.391,224.400 0.585 C 224.400 0.078,221.087 0.000,199.600 0.000 C 178.113 0.000,174.800 0.078,174.800 0.585 M168.487 145.342 C 169.305 145.704,170.925 146.002,172.087 146.004 C 173.466 146.006,174.910 146.338,176.245 146.960 C 177.370 147.484,178.900 148.042,179.645 148.201 C 180.390 148.359,181.270 148.721,181.600 149.005 C 181.930 149.288,182.903 149.811,183.762 150.166 C 185.682 150.959,190.045 154.485,192.591 157.303 C 195.862 160.921,196.000 161.099,196.000 161.701 C 196.000 162.024,196.450 162.951,197.000 163.762 C 197.550 164.572,198.002 165.633,198.004 166.118 C 198.006 166.603,198.456 167.963,199.004 169.140 C 200.386 172.108,200.506 183.382,199.195 187.110 C 198.752 188.369,198.278 190.930,198.142 192.800 C 197.997 194.797,197.576 196.916,197.121 197.936 C 196.696 198.890,196.246 200.960,196.121 202.536 C 195.997 204.111,195.563 206.147,195.156 207.060 C 194.749 207.973,194.299 209.773,194.156 211.060 C 194.012 212.347,193.468 214.317,192.947 215.439 C 192.426 216.560,192.000 217.855,192.000 218.317 C 192.000 218.780,191.550 220.004,191.000 221.038 C 190.450 222.073,190.000 223.211,190.000 223.567 C 190.000 223.923,189.550 224.877,189.000 225.686 C 188.450 226.495,187.997 227.392,187.994 227.679 C 187.991 227.965,187.406 229.034,186.694 230.054 C 185.982 231.073,184.608 233.053,183.640 234.454 C 180.841 238.503,175.289 244.000,173.998 244.000 C 173.813 244.000,173.140 244.438,172.504 244.974 C 171.867 245.510,170.871 246.067,170.290 246.213 C 169.708 246.359,169.024 246.730,168.770 247.036 C 168.515 247.343,167.564 247.794,166.657 248.038 C 165.750 248.283,164.556 248.802,164.004 249.193 C 163.452 249.584,162.033 250.035,160.851 250.196 C 159.669 250.357,157.869 250.866,156.851 251.327 C 154.000 252.620,130.400 252.620,127.549 251.327 C 126.531 250.866,124.791 250.364,123.682 250.211 C 122.543 250.055,121.096 249.513,120.355 248.967 C 119.634 248.435,118.708 248.000,118.296 248.000 C 117.884 248.000,116.957 247.550,116.236 247.000 C 115.514 246.450,114.757 246.000,114.552 246.000 C 113.395 246.000,106.946 240.048,105.800 237.924 C 103.167 233.040,101.998 230.356,101.982 229.158 C 101.973 228.411,101.691 227.080,101.356 226.200 C 100.410 223.713,100.217 217.839,100.994 215.200 C 101.350 213.990,101.797 211.290,101.987 209.200 C 102.177 207.110,102.682 204.500,103.109 203.400 C 103.537 202.300,104.005 200.081,104.149 198.469 C 104.293 196.857,104.700 194.980,105.053 194.297 C 105.407 193.614,105.862 191.715,106.065 190.077 C 106.268 188.440,106.787 186.410,107.217 185.566 C 107.648 184.722,108.000 183.376,108.000 182.574 C 108.000 181.772,108.450 180.220,109.000 179.125 C 109.550 178.030,110.001 176.834,110.002 176.467 C 110.003 176.100,110.448 175.080,110.990 174.200 C 111.532 173.320,111.981 172.217,111.988 171.749 C 111.994 171.281,112.295 170.653,112.655 170.355 C 113.015 170.056,113.647 169.089,114.059 168.206 C 114.472 167.323,115.353 165.880,116.018 165.000 C 116.683 164.120,117.653 162.770,118.174 162.000 C 119.431 160.140,122.921 156.843,125.400 155.173 C 126.500 154.432,127.850 153.427,128.400 152.939 C 129.893 151.616,137.061 148.000,138.191 148.000 C 138.733 148.000,139.898 147.624,140.780 147.163 C 141.860 146.600,143.622 146.221,146.167 146.003 C 148.247 145.825,150.185 145.532,150.474 145.353 C 152.297 144.225,165.945 144.216,168.487 145.342 M277.000 146.374 C 278.760 146.577,280.740 147.025,281.400 147.369 C 282.060 147.713,283.510 147.996,284.622 147.998 C 286.149 147.999,286.977 148.245,288.000 149.000 C 288.745 149.550,289.735 150.000,290.200 150.000 C 290.665 150.000,291.655 150.450,292.400 151.000 C 293.145 151.550,293.981 152.000,294.257 152.000 C 294.533 152.000,295.249 152.455,295.849 153.010 C 296.449 153.566,297.459 154.421,298.094 154.910 C 299.991 156.372,304.000 161.567,304.000 162.564 C 304.000 163.068,304.450 164.327,305.000 165.362 C 306.358 167.916,306.514 178.113,305.238 180.922 C 304.818 181.845,304.349 183.500,304.195 184.600 C 304.041 185.700,303.574 187.195,303.157 187.923 C 302.741 188.650,302.400 189.446,302.400 189.691 C 302.400 190.442,299.921 195.331,298.932 196.531 C 298.419 197.153,298.000 197.909,298.000 198.212 C 298.000 200.053,285.973 209.997,283.740 210.001 C 283.333 210.002,282.394 210.372,281.654 210.824 C 280.914 211.275,279.294 211.831,278.054 212.059 C 276.814 212.288,275.005 212.836,274.034 213.277 C 272.388 214.025,271.215 214.092,256.834 214.259 C 236.856 214.491,238.000 214.200,238.000 219.045 C 238.000 219.994,237.636 221.695,237.190 222.824 C 236.745 223.954,236.232 226.348,236.050 228.144 C 235.868 229.941,235.404 232.018,235.020 232.761 C 234.636 233.504,234.188 235.572,234.024 237.356 C 233.861 239.140,233.441 241.151,233.092 241.825 C 232.743 242.499,232.330 244.209,232.176 245.625 C 231.592 250.972,230.085 251.600,217.824 251.600 C 208.211 251.600,205.229 251.150,204.384 249.571 C 203.819 248.514,204.325 243.298,205.110 242.093 C 205.435 241.595,205.856 239.654,206.046 237.781 C 206.236 235.908,206.730 233.616,207.143 232.688 C 207.557 231.759,207.995 229.737,208.116 228.194 C 208.238 226.650,208.687 224.490,209.115 223.394 C 209.542 222.297,210.018 220.093,210.171 218.495 C 210.324 216.897,210.777 214.827,211.177 213.895 C 211.577 212.963,212.014 210.799,212.148 209.087 C 212.282 207.375,212.730 205.215,213.144 204.287 C 213.557 203.359,213.997 201.311,214.121 199.735 C 214.246 198.159,214.704 195.999,215.141 194.935 C 215.577 193.871,216.041 191.681,216.172 190.069 C 216.304 188.457,216.686 186.607,217.021 185.958 C 217.357 185.310,217.819 183.208,218.049 181.289 C 218.278 179.370,218.741 177.260,219.077 176.600 C 219.413 175.940,219.842 173.829,220.030 171.909 C 220.218 169.988,220.715 167.648,221.134 166.709 C 221.553 165.769,221.996 163.740,222.119 162.200 C 222.242 160.660,222.712 158.590,223.162 157.600 C 223.613 156.610,223.991 154.990,224.001 154.000 C 224.041 150.031,225.476 147.179,227.800 146.449 C 229.369 145.956,272.795 145.890,277.000 146.374 M153.800 166.395 C 150.858 167.295,147.363 168.491,146.960 168.734 C 143.492 170.829,138.000 176.761,138.000 178.411 C 138.000 178.814,137.731 179.412,137.402 179.741 C 136.657 180.486,136.000 182.169,136.000 183.332 C 136.000 183.816,135.647 184.871,135.215 185.677 C 134.783 186.483,134.264 188.480,134.060 190.115 C 133.857 191.751,133.406 193.525,133.057 194.058 C 132.707 194.590,132.301 196.370,132.154 198.013 C 132.007 199.656,131.553 201.860,131.145 202.910 C 130.737 203.961,130.298 206.121,130.169 207.710 C 130.039 209.300,129.660 211.793,129.325 213.250 C 127.419 221.546,131.453 229.291,138.217 230.321 C 147.347 231.711,153.662 230.010,158.831 224.768 C 161.504 222.058,164.400 217.545,164.400 216.089 C 164.400 215.659,164.760 214.850,165.200 214.291 C 165.676 213.686,166.005 212.652,166.013 211.737 C 166.020 210.892,166.395 209.210,166.846 208.000 C 167.297 206.790,167.841 204.379,168.055 202.642 C 168.268 200.905,168.768 198.835,169.166 198.042 C 169.573 197.229,170.001 195.195,170.147 193.378 C 170.289 191.606,170.764 189.135,171.203 187.888 C 172.491 184.224,172.369 175.780,171.000 173.762 C 170.450 172.951,170.000 172.009,170.000 171.667 C 170.000 170.903,166.952 168.000,166.151 168.000 C 165.830 168.000,164.853 167.635,163.978 167.189 C 162.167 166.265,155.837 165.771,153.800 166.395 M249.739 167.077 C 248.751 167.270,248.164 168.577,247.840 171.303 C 247.716 172.350,247.352 173.610,247.030 174.103 C 246.709 174.596,246.332 176.440,246.191 178.200 C 246.051 179.960,245.575 182.280,245.133 183.356 C 244.691 184.431,244.231 186.681,244.111 188.356 C 243.991 190.030,243.714 191.746,243.495 192.168 C 242.655 193.795,243.850 194.000,254.192 194.000 C 263.081 194.000,263.954 193.937,265.415 193.190 C 266.287 192.745,267.676 192.198,268.502 191.974 C 270.476 191.440,275.359 186.572,276.014 184.484 C 276.270 183.668,276.822 182.268,277.240 181.374 C 278.089 179.557,278.344 173.060,277.584 172.590 C 277.355 172.449,276.728 171.636,276.190 170.784 C 274.197 167.626,270.507 166.781,259.049 166.854 C 254.402 166.884,250.213 166.985,249.739 167.077 " stroke="none" fill="#fb0423" fill-rule="evenodd"></path></g></svg>