<svg id="svg" xmlns="http://www.w3.org/2000/svg" xmlns:xlink="http://www.w3.org/1999/xlink" width="400" height="400" viewBox="0, 0, 400,400" version="1.1"><g id="svgg"><path id="path0" d="M0.000 200.000 L 0.000 400.000 200.000 400.000 L 400.000 400.000 400.000 200.000 L 400.000 0.000 200.000 0.000 L 0.000 0.000 0.000 200.000 M213.000 12.761 C 221.467 13.275,226.593 13.956,237.400 16.001 C 238.500 16.209,240.570 16.661,242.000 17.006 C 243.430 17.351,245.320 17.792,246.200 17.986 C 248.423 18.477,250.355 18.993,252.000 19.533 C 252.770 19.786,256.190 20.903,259.600 22.014 C 264.874 23.734,272.102 26.463,274.364 27.590 C 274.714 27.764,275.450 28.088,276.000 28.310 C 287.948 33.132,313.977 49.270,320.000 55.590 C 320.110 55.706,321.460 56.878,323.000 58.195 C 331.561 65.517,342.277 76.930,349.894 86.838 C 353.153 91.078,362.000 104.349,362.000 104.999 C 362.000 105.073,362.780 106.454,363.734 108.067 C 365.960 111.833,370.281 120.493,371.970 124.572 C 372.692 126.316,373.426 128.026,373.602 128.372 C 375.421 131.958,379.604 144.547,382.185 154.200 C 388.072 176.218,389.532 208.217,385.597 229.000 C 382.873 243.389,382.572 244.771,380.934 250.400 C 378.695 258.094,377.004 263.107,374.392 269.800 C 374.220 270.240,373.690 271.477,373.214 272.550 C 372.738 273.622,371.991 275.409,371.553 276.520 C 367.132 287.735,353.047 310.293,344.155 320.400 C 343.671 320.950,342.415 322.390,341.363 323.600 C 336.375 329.340,325.329 340.217,321.400 343.259 C 320.740 343.769,319.840 344.516,319.400 344.917 C 311.877 351.782,283.155 370.000,279.855 370.000 C 279.747 370.000,278.250 370.647,276.529 371.437 C 273.223 372.955,271.120 373.879,269.800 374.393 C 264.596 376.418,261.285 377.589,255.800 379.344 C 253.380 380.119,250.680 380.927,249.800 381.141 C 248.920 381.355,247.210 381.791,246.000 382.110 C 242.671 382.988,238.599 383.868,234.600 384.575 C 232.620 384.924,230.100 385.378,229.000 385.583 C 226.770 385.998,217.954 386.954,210.537 387.586 C 199.189 388.552,181.345 387.468,167.800 384.988 C 165.820 384.626,163.390 384.184,162.400 384.007 C 160.417 383.652,155.894 382.631,153.400 381.975 C 152.520 381.744,151.080 381.374,150.200 381.153 C 149.320 380.933,147.520 380.388,146.200 379.942 C 144.880 379.496,142.720 378.799,141.400 378.394 C 138.846 377.608,135.228 376.347,132.600 375.326 C 131.720 374.984,130.640 374.564,130.200 374.393 C 129.147 373.983,127.110 373.099,124.400 371.876 C 123.190 371.330,120.955 370.322,119.434 369.637 C 111.394 366.014,99.990 359.300,90.808 352.784 C 88.667 351.264,80.502 344.908,79.075 343.649 C 70.843 336.389,63.241 328.878,58.195 323.019 C 56.878 321.490,55.530 319.944,55.200 319.583 C 52.599 316.739,45.540 307.017,41.814 301.148 C 32.754 286.875,23.197 266.029,20.014 253.600 C 19.817 252.830,19.357 251.210,18.993 250.000 C 18.628 248.790,18.173 247.080,17.981 246.200 C 17.789 245.320,17.350 243.430,17.005 242.000 C 10.581 215.406,10.749 183.050,17.449 156.200 C 17.778 154.880,18.227 153.080,18.446 152.200 C 19.360 148.526,22.755 137.640,23.561 135.800 C 24.021 134.752,27.038 127.172,28.045 124.535 C 29.576 120.527,36.175 107.898,39.454 102.700 C 39.974 101.875,40.825 100.525,41.343 99.700 C 45.789 92.631,52.241 83.797,56.592 78.818 C 62.831 71.681,70.456 63.954,76.357 58.788 C 77.983 57.365,79.513 56.017,79.757 55.794 C 80.000 55.571,81.010 54.766,82.000 54.005 C 82.990 53.243,83.890 52.513,84.000 52.382 C 84.514 51.770,90.490 47.502,96.400 43.527 C 104.848 37.845,115.770 31.783,122.600 28.986 C 124.580 28.176,126.380 27.377,126.600 27.211 C 126.820 27.046,128.800 26.240,131.000 25.420 C 133.200 24.600,135.360 23.776,135.800 23.589 C 136.549 23.272,144.388 20.689,148.400 19.439 C 149.390 19.130,151.010 18.688,152.000 18.456 C 166.435 15.070,167.725 14.827,177.800 13.590 C 181.320 13.158,185.820 12.790,187.800 12.773 C 189.780 12.755,192.210 12.587,193.200 12.400 C 195.197 12.021,203.239 12.168,213.000 12.761 M141.600 97.035 C 139.897 97.669,139.189 97.978,136.800 99.125 C 135.370 99.812,133.210 100.939,132.000 101.630 C 128.631 103.555,126.479 104.751,123.200 106.521 C 121.550 107.411,119.529 108.558,118.708 109.070 C 117.887 109.581,117.119 110.000,117.000 110.000 C 116.881 110.000,116.113 110.419,115.292 110.930 C 114.471 111.442,112.450 112.589,110.800 113.479 C 109.150 114.369,107.080 115.511,106.200 116.016 C 105.320 116.521,103.821 117.357,102.869 117.873 C 98.792 120.081,96.574 121.326,96.200 121.614 C 95.980 121.783,94.363 122.677,92.607 123.600 C 90.851 124.523,88.961 125.583,88.407 125.956 C 87.853 126.329,86.709 126.986,85.865 127.417 C 82.409 129.180,79.544 132.606,78.481 136.246 C 77.669 139.025,77.803 200.614,78.625 202.651 C 80.763 207.949,82.178 209.286,90.200 213.579 C 91.960 214.521,93.580 215.424,93.800 215.585 C 94.020 215.747,95.550 216.603,97.200 217.488 C 98.850 218.373,100.920 219.511,101.800 220.016 C 102.680 220.521,104.192 221.364,105.160 221.888 C 108.068 223.463,110.454 224.804,113.270 226.444 C 114.738 227.300,116.047 228.000,116.178 228.000 C 116.309 228.000,117.087 228.423,117.908 228.939 C 118.729 229.456,120.834 230.651,122.588 231.596 C 124.341 232.540,126.411 233.670,127.188 234.108 C 140.278 241.487,140.558 241.606,144.764 241.590 C 149.435 241.573,150.124 241.300,161.200 235.078 C 161.970 234.645,163.770 233.661,165.200 232.891 C 166.630 232.121,168.278 231.156,168.862 230.746 C 169.446 230.336,170.001 230.000,170.096 230.000 C 170.271 230.000,180.909 224.115,185.538 221.457 C 186.935 220.656,188.135 220.000,188.205 220.000 C 188.276 220.000,190.316 218.830,192.740 217.400 C 195.164 215.970,197.234 214.800,197.340 214.800 C 197.447 214.800,198.854 214.020,200.467 213.067 C 203.838 211.076,206.644 209.477,209.160 208.113 C 211.320 206.942,212.861 206.078,219.000 202.599 C 221.640 201.102,225.510 198.943,227.600 197.799 C 229.690 196.656,232.300 195.187,233.400 194.535 C 234.500 193.882,237.020 192.475,239.000 191.407 C 240.980 190.340,243.875 188.713,245.432 187.793 C 246.990 186.872,248.700 186.013,249.232 185.884 C 253.846 184.760,254.110 184.734,256.527 185.154 C 259.124 185.605,263.128 187.432,269.800 191.212 C 275.461 194.418,280.605 197.289,283.400 198.800 C 290.041 202.391,292.577 204.188,294.284 206.515 C 297.212 210.504,297.200 210.402,297.200 230.512 L 297.200 248.456 295.962 251.429 C 294.199 255.664,293.125 256.464,276.143 266.188 C 254.117 278.801,254.641 278.745,239.512 270.080 C 238.694 269.611,236.804 268.563,235.312 267.751 C 233.821 266.939,231.202 265.488,229.494 264.526 C 227.786 263.565,225.536 262.303,224.494 261.723 C 220.472 259.484,220.007 259.214,218.526 258.265 C 216.127 256.728,214.545 254.829,213.141 251.800 L 211.842 249.000 211.678 238.200 C 211.570 231.070,211.368 227.308,211.083 227.130 C 210.721 226.905,208.199 228.066,205.278 229.803 C 203.338 230.957,197.895 234.000,197.771 234.000 C 197.693 234.000,196.227 234.855,194.514 235.900 C 192.801 236.945,190.680 238.162,189.800 238.605 L 188.200 239.410 188.086 251.005 C 187.915 268.281,187.988 268.419,201.000 275.618 C 204.740 277.687,207.860 279.520,207.933 279.690 C 208.007 279.861,208.282 280.000,208.546 280.000 C 208.810 280.000,210.370 280.784,212.013 281.743 C 215.716 283.904,229.095 291.339,235.000 294.517 C 237.420 295.820,239.670 297.102,240.000 297.367 C 240.581 297.833,242.126 298.658,247.600 301.424 C 252.496 303.897,257.243 303.963,262.000 301.623 C 264.593 300.347,270.426 297.219,271.000 296.796 C 271.391 296.508,279.620 291.877,284.000 289.480 C 285.210 288.818,290.041 286.144,294.735 283.538 C 299.429 280.932,303.341 278.800,303.427 278.800 C 303.514 278.800,304.569 278.170,305.773 277.400 C 306.977 276.630,308.034 276.000,308.123 276.000 C 308.212 276.000,309.849 275.100,311.761 274.000 C 313.673 272.900,315.336 272.000,315.458 272.000 C 316.228 272.000,319.873 267.508,320.848 265.357 L 322.000 262.818 322.000 230.917 L 322.000 199.017 320.971 196.325 C 319.666 192.908,316.830 190.186,311.776 187.499 C 309.809 186.453,307.210 185.038,306.000 184.355 C 304.790 183.671,302.810 182.562,301.600 181.890 C 300.390 181.218,298.860 180.341,298.200 179.942 C 297.540 179.542,296.190 178.796,295.200 178.284 C 292.510 176.892,288.659 174.740,288.168 174.354 C 287.738 174.016,273.363 165.964,268.400 163.281 C 266.970 162.508,265.350 161.573,264.800 161.204 C 258.851 157.208,251.573 156.913,245.678 160.428 C 244.257 161.276,242.171 162.461,239.200 164.108 C 238.430 164.535,235.550 166.193,232.800 167.793 C 223.256 173.346,210.939 180.335,204.688 183.747 C 203.196 184.561,201.306 185.606,200.488 186.069 C 199.669 186.532,197.560 187.676,195.800 188.611 C 194.040 189.547,190.822 191.322,188.649 192.556 C 186.476 193.790,184.627 194.800,184.541 194.800 C 184.455 194.800,183.713 195.221,182.892 195.736 C 182.071 196.251,180.590 197.126,179.600 197.679 C 178.610 198.232,175.460 200.031,172.600 201.676 C 166.824 204.999,164.854 206.118,160.280 208.673 C 158.563 209.632,155.863 211.194,154.280 212.144 C 145.688 217.299,144.295 216.955,121.400 204.009 C 120.740 203.636,119.120 202.733,117.800 202.002 C 116.480 201.272,114.770 200.293,114.000 199.828 C 113.230 199.363,112.060 198.724,111.400 198.408 C 108.238 196.895,104.656 193.379,103.243 190.400 L 102.200 188.200 102.088 169.888 C 101.927 143.388,100.382 146.154,122.000 134.238 C 128.270 130.781,133.670 127.785,134.000 127.580 C 142.239 122.446,146.471 122.613,156.904 128.483 C 160.037 130.246,163.860 132.360,165.400 133.181 C 187.278 144.851,187.148 144.677,187.208 162.321 C 187.237 170.734,187.352 172.883,187.782 173.048 C 188.409 173.289,190.475 172.273,196.750 168.636 C 199.253 167.186,201.365 166.000,201.443 166.000 C 201.522 166.000,202.714 165.321,204.093 164.492 C 205.472 163.663,207.260 162.640,208.066 162.219 C 211.440 160.460,211.175 161.580,211.236 148.800 C 211.266 142.530,211.164 137.040,211.010 136.600 C 209.197 131.433,207.420 129.552,201.000 125.997 C 199.680 125.267,196.260 123.323,193.400 121.677 C 187.542 118.307,186.770 117.869,183.400 116.000 C 178.473 113.267,177.393 112.657,175.421 111.494 C 174.309 110.838,169.566 108.160,164.880 105.543 C 160.194 102.926,155.629 100.323,154.735 99.759 C 151.023 97.416,144.313 96.024,141.600 97.035 " stroke="none" fill="#fbfafb" fill-rule="evenodd"></path><path id="path1" d="M193.200 12.400 C 192.210 12.587,189.780 12.755,187.800 12.773 C 185.820 12.790,181.320 13.158,177.800 13.590 C 167.725 14.827,166.435 15.070,152.000 18.456 C 151.010 18.688,149.390 19.130,148.400 19.439 C 144.388 20.689,136.549 23.272,135.800 23.589 C 135.360 23.776,133.200 24.600,131.000 25.420 C 128.800 26.240,126.820 27.046,126.600 27.211 C 126.380 27.377,124.580 28.176,122.600 28.986 C 115.770 31.783,104.848 37.845,96.400 43.527 C 90.490 47.502,84.514 51.770,84.000 52.382 C 83.890 52.513,82.990 53.243,82.000 54.005 C 81.010 54.766,80.000 55.571,79.757 55.794 C 79.513 56.017,77.983 57.365,76.357 58.788 C 70.456 63.954,62.831 71.681,56.592 78.818 C 52.241 83.797,45.789 92.631,41.343 99.700 C 40.825 100.525,39.974 101.875,39.454 102.700 C 36.175 107.898,29.576 120.527,28.045 124.535 C 27.038 127.172,24.021 134.752,23.561 135.800 C 22.755 137.640,19.360 148.526,18.446 152.200 C 18.227 153.080,17.778 154.880,17.449 156.200 C 15.042 165.844,13.200 178.304,12.539 189.400 C 11.527 206.380,13.222 226.337,17.005 242.000 C 17.350 243.430,17.789 245.320,17.981 246.200 C 18.173 247.080,18.628 248.790,18.993 250.000 C 19.357 251.210,19.817 252.830,20.014 253.600 C 22.715 264.146,31.314 283.745,38.421 295.548 C 44.256 305.238,51.270 315.287,55.200 319.583 C 55.530 319.944,56.878 321.490,58.195 323.019 C 63.241 328.878,70.843 336.389,79.075 343.649 C 88.923 352.335,107.305 364.171,119.434 369.637 C 120.955 370.322,123.190 371.330,124.400 371.876 C 127.110 373.099,129.147 373.983,130.200 374.393 C 130.640 374.564,131.720 374.984,132.600 375.326 C 135.228 376.347,138.846 377.608,141.400 378.394 C 142.720 378.799,144.880 379.496,146.200 379.942 C 147.520 380.388,149.320 380.933,150.200 381.153 C 151.080 381.374,152.520 381.744,153.400 381.975 C 155.894 382.631,160.417 383.652,162.400 384.007 C 163.390 384.184,165.820 384.626,167.800 384.988 C 181.345 387.468,199.189 388.552,210.537 387.586 C 217.954 386.954,226.770 385.998,229.000 385.583 C 230.100 385.378,232.620 384.924,234.600 384.575 C 238.599 383.868,242.671 382.988,246.000 382.110 C 247.210 381.791,248.920 381.355,249.800 381.141 C 250.680 380.927,253.380 380.119,255.800 379.344 C 261.285 377.589,264.596 376.418,269.800 374.393 C 271.120 373.879,273.223 372.955,276.529 371.437 C 278.250 370.647,279.747 370.000,279.855 370.000 C 283.155 370.000,311.877 351.782,319.400 344.917 C 319.840 344.516,320.740 343.769,321.400 343.259 C 323.671 341.501,329.183 336.323,333.887 331.528 C 339.321 325.990,338.882 326.455,341.363 323.600 C 342.415 322.390,343.671 320.950,344.155 320.400 C 353.047 310.293,367.132 287.735,371.553 276.520 C 371.991 275.409,372.738 273.622,373.214 272.550 C 373.690 271.477,374.220 270.240,374.392 269.800 C 377.004 263.107,378.695 258.094,380.934 250.400 C 382.572 244.771,382.873 243.389,385.597 229.000 C 388.661 212.818,388.556 188.307,385.345 169.800 C 384.446 164.616,382.807 156.527,382.185 154.200 C 379.604 144.547,375.421 131.958,373.602 128.372 C 373.426 128.026,372.692 126.316,371.970 124.572 C 370.281 120.493,365.960 111.833,363.734 108.067 C 362.780 106.454,362.000 105.073,362.000 104.999 C 362.000 104.349,353.153 91.078,349.894 86.838 C 342.277 76.930,331.561 65.517,323.000 58.195 C 321.460 56.878,320.110 55.706,320.000 55.590 C 313.977 49.270,287.948 33.132,276.000 28.310 C 275.450 28.088,274.714 27.764,274.364 27.590 C 272.102 26.463,264.874 23.734,259.600 22.014 C 256.190 20.903,252.770 19.786,252.000 19.533 C 250.355 18.993,248.423 18.477,246.200 17.986 C 245.320 17.792,243.430 17.351,242.000 17.006 C 239.387 16.376,238.267 16.151,232.000 14.995 C 221.207 13.005,198.147 11.462,193.200 12.400 M151.255 97.920 C 152.275 98.367,153.841 99.194,154.735 99.759 C 155.629 100.323,160.194 102.926,164.880 105.543 C 169.566 108.160,174.309 110.838,175.421 111.494 C 177.393 112.657,178.473 113.267,183.400 116.000 C 186.770 117.869,187.542 118.307,193.400 121.677 C 196.260 123.323,199.680 125.267,201.000 125.997 C 207.420 129.552,209.197 131.433,211.010 136.600 C 211.164 137.040,211.266 142.530,211.236 148.800 C 211.175 161.580,211.440 160.460,208.066 162.219 C 207.260 162.640,205.472 163.663,204.093 164.492 C 202.714 165.321,201.522 166.000,201.443 166.000 C 201.365 166.000,199.253 167.186,196.750 168.636 C 190.475 172.273,188.409 173.289,187.782 173.048 C 187.352 172.883,187.237 170.734,187.208 162.321 C 187.148 144.677,187.278 144.851,165.400 133.181 C 163.860 132.360,160.037 130.246,156.904 128.483 C 146.471 122.613,142.239 122.446,134.000 127.580 C 133.670 127.785,128.270 130.781,122.000 134.238 C 106.272 142.908,105.559 143.391,103.967 146.480 C 101.970 150.354,101.969 150.363,102.088 169.888 L 102.200 188.200 103.243 190.400 C 104.656 193.379,108.238 196.895,111.400 198.408 C 112.060 198.724,113.230 199.363,114.000 199.828 C 114.770 200.293,116.480 201.272,117.800 202.002 C 119.120 202.733,120.740 203.636,121.400 204.009 C 144.295 216.955,145.688 217.299,154.280 212.144 C 155.863 211.194,158.563 209.632,160.280 208.673 C 164.854 206.118,166.824 204.999,172.600 201.676 C 175.460 200.031,178.610 198.232,179.600 197.679 C 180.590 197.126,182.071 196.251,182.892 195.736 C 183.713 195.221,184.455 194.800,184.541 194.800 C 184.627 194.800,186.476 193.790,188.649 192.556 C 190.822 191.322,194.040 189.547,195.800 188.611 C 197.560 187.676,199.669 186.532,200.488 186.069 C 201.306 185.606,203.196 184.561,204.688 183.747 C 210.939 180.335,223.256 173.346,232.800 167.793 C 235.550 166.193,238.430 164.535,239.200 164.108 C 242.171 162.461,244.257 161.276,245.678 160.428 C 251.573 156.913,258.851 157.208,264.800 161.204 C 265.350 161.573,266.970 162.508,268.400 163.281 C 273.363 165.964,287.738 174.016,288.168 174.354 C 288.659 174.740,292.510 176.892,295.200 178.284 C 296.190 178.796,297.540 179.542,298.200 179.942 C 298.860 180.341,300.390 181.218,301.600 181.890 C 302.810 182.562,304.790 183.671,306.000 184.355 C 307.210 185.038,309.809 186.453,311.776 187.499 C 316.830 190.186,319.666 192.908,320.971 196.325 L 322.000 199.017 322.000 230.917 L 322.000 262.818 320.848 265.357 C 319.873 267.508,316.228 272.000,315.458 272.000 C 315.336 272.000,313.673 272.900,311.761 274.000 C 309.849 275.100,308.212 276.000,308.123 276.000 C 308.034 276.000,306.977 276.630,305.773 277.400 C 304.569 278.170,303.514 278.800,303.427 278.800 C 303.341 278.800,299.429 280.932,294.735 283.538 C 290.041 286.144,285.210 288.818,284.000 289.480 C 279.620 291.877,271.391 296.508,271.000 296.796 C 270.426 297.219,264.593 300.347,262.000 301.623 C 257.243 303.963,252.496 303.897,247.600 301.424 C 242.126 298.658,240.581 297.833,240.000 297.367 C 239.670 297.102,237.420 295.820,235.000 294.517 C 229.095 291.339,215.716 283.904,212.013 281.743 C 210.370 280.784,208.810 280.000,208.546 280.000 C 208.282 280.000,208.007 279.861,207.933 279.690 C 207.860 279.520,204.740 277.687,201.000 275.618 C 187.988 268.419,187.915 268.281,188.086 251.005 L 188.200 239.410 189.800 238.605 C 190.680 238.162,192.801 236.945,194.514 235.900 C 196.227 234.855,197.693 234.000,197.771 234.000 C 197.895 234.000,203.338 230.957,205.278 229.803 C 208.199 228.066,210.721 226.905,211.083 227.130 C 211.368 227.308,211.570 231.070,211.678 238.200 L 211.842 249.000 213.141 251.800 C 214.545 254.829,216.127 256.728,218.526 258.265 C 220.007 259.214,220.472 259.484,224.494 261.723 C 225.536 262.303,227.786 263.565,229.494 264.526 C 231.202 265.488,233.821 266.939,235.312 267.751 C 236.804 268.563,238.694 269.611,239.512 270.080 C 254.641 278.745,254.117 278.801,276.143 266.188 C 293.125 256.464,294.199 255.664,295.962 251.429 L 297.200 248.456 297.200 230.512 C 297.200 210.402,297.212 210.504,294.284 206.515 C 292.577 204.188,290.041 202.391,283.400 198.800 C 280.605 197.289,275.461 194.418,269.800 191.212 C 263.128 187.432,259.124 185.605,256.527 185.154 C 254.110 184.734,253.846 184.760,249.232 185.884 C 248.700 186.013,246.990 186.872,245.432 187.793 C 243.875 188.713,240.980 190.340,239.000 191.407 C 237.020 192.475,234.500 193.882,233.400 194.535 C 232.300 195.187,229.690 196.656,227.600 197.799 C 225.510 198.943,221.640 201.102,219.000 202.599 C 212.861 206.078,211.320 206.942,209.160 208.113 C 206.644 209.477,203.838 211.076,200.467 213.067 C 198.854 214.020,197.447 214.800,197.340 214.800 C 197.234 214.800,195.164 215.970,192.740 217.400 C 190.316 218.830,188.276 220.000,188.205 220.000 C 188.135 220.000,186.935 220.656,185.538 221.457 C 180.909 224.115,170.271 230.000,170.096 230.000 C 170.001 230.000,169.446 230.336,168.862 230.746 C 168.278 231.156,166.630 232.121,165.200 232.891 C 163.770 233.661,161.970 234.645,161.200 235.078 C 150.124 241.300,149.435 241.573,144.764 241.590 C 140.558 241.606,140.278 241.487,127.188 234.108 C 126.411 233.670,124.341 232.540,122.588 231.596 C 120.834 230.651,118.729 229.456,117.908 228.939 C 117.087 228.423,116.309 228.000,116.178 228.000 C 116.047 228.000,114.738 227.300,113.270 226.444 C 110.454 224.804,108.068 223.463,105.160 221.888 C 104.192 221.364,102.680 220.521,101.800 220.016 C 100.920 219.511,98.850 218.373,97.200 217.488 C 95.550 216.603,94.020 215.747,93.800 215.585 C 93.580 215.424,91.960 214.521,90.200 213.579 C 82.178 209.286,80.763 207.949,78.625 202.651 C 77.803 200.614,77.669 139.025,78.481 136.246 C 79.544 132.606,82.409 129.180,85.865 127.417 C 86.709 126.986,87.853 126.329,88.407 125.956 C 88.961 125.583,90.851 124.523,92.607 123.600 C 94.363 122.677,95.980 121.783,96.200 121.614 C 96.574 121.326,98.792 120.081,102.869 117.873 C 103.821 117.357,105.320 116.521,106.200 116.016 C 107.080 115.511,109.150 114.369,110.800 113.479 C 112.450 112.589,114.471 111.442,115.292 110.930 C 116.113 110.419,116.881 110.000,117.000 110.000 C 117.119 110.000,117.887 109.581,118.708 109.070 C 119.529 108.558,121.550 107.411,123.200 106.521 C 126.479 104.751,128.631 103.555,132.000 101.630 C 133.210 100.939,135.370 99.812,136.800 99.125 C 139.189 97.978,139.897 97.669,141.600 97.035 C 142.972 96.524,149.416 97.115,151.255 97.920 " stroke="none" fill="#8344e4" fill-rule="evenodd"></path></g></svg>