<svg id="svg" version="1.1" xmlns="http://www.w3.org/2000/svg" xmlns:xlink="http://www.w3.org/1999/xlink" width="400" height="400" viewBox="0, 0, 400,400"><g id="svgg"><path id="path0" d="M102.185 128.500 C 102.080 128.775,102.041 160.680,102.097 199.400 L 102.200 269.800 130.800 269.800 L 159.400 269.800 159.608 246.000 C 159.722 232.910,159.857 222.155,159.908 222.100 C 160.325 221.647,232.470 222.082,234.200 222.548 C 238.935 223.825,241.453 225.807,243.387 229.783 C 244.125 231.302,244.186 232.569,244.387 250.600 L 244.600 269.800 273.300 269.903 L 302.000 270.005 302.000 249.833 C 302.000 229.757,301.931 228.496,300.525 223.000 C 299.800 220.164,299.660 219.796,298.014 216.388 C 294.751 209.635,289.573 204.651,281.873 200.850 C 278.156 199.016,277.195 198.389,277.804 198.195 C 293.754 193.108,302.153 178.451,299.403 160.497 C 297.397 147.399,289.945 138.064,278.000 133.687 C 270.287 130.861,264.655 129.658,254.199 128.606 C 246.031 127.783,102.495 127.684,102.185 128.500 M236.440 170.464 C 243.737 172.954,242.049 182.044,234.077 183.197 C 228.242 184.041,160.483 183.702,160.014 182.826 C 159.575 182.006,159.431 171.707,159.843 170.633 C 160.157 169.815,234.061 169.652,236.440 170.464 " stroke="none" fill="#050404" fill-rule="evenodd"></path><path id="path1" d="M175.700 0.298 C 172.530 0.399,171.600 0.554,171.600 0.984 C 171.600 1.391,170.772 1.598,168.500 1.760 C 161.320 2.272,159.947 2.472,159.731 3.035 C 159.585 3.415,158.874 3.600,157.557 3.600 C 156.481 3.600,155.600 3.780,155.600 4.000 C 155.600 4.222,154.529 4.400,153.187 4.400 C 151.412 4.400,150.714 4.558,150.545 5.000 C 150.404 5.367,149.797 5.600,148.981 5.600 C 148.247 5.600,147.536 5.780,147.400 6.000 C 147.264 6.220,146.353 6.400,145.376 6.400 C 144.064 6.400,143.600 6.557,143.600 7.000 C 143.600 7.433,143.156 7.600,142.000 7.600 C 141.120 7.600,140.400 7.780,140.400 8.000 C 140.400 8.220,139.783 8.400,139.029 8.400 C 138.274 8.400,137.387 8.670,137.057 9.000 C 136.727 9.330,135.994 9.600,135.429 9.600 C 134.863 9.600,134.400 9.780,134.400 10.000 C 134.400 10.220,133.770 10.400,133.000 10.400 C 132.022 10.400,131.600 10.581,131.600 11.000 C 131.600 11.433,131.156 11.600,130.000 11.600 C 129.120 11.600,128.400 11.780,128.400 12.000 C 128.400 12.220,127.854 12.400,127.187 12.400 C 126.479 12.400,125.879 12.649,125.745 13.000 C 125.618 13.330,125.084 13.600,124.557 13.600 C 124.031 13.600,123.600 13.780,123.600 14.000 C 123.600 14.220,123.150 14.400,122.600 14.400 C 121.978 14.400,121.600 14.627,121.600 15.000 C 121.600 15.433,121.156 15.600,120.000 15.600 C 119.120 15.600,118.400 15.780,118.400 16.000 C 118.400 16.220,117.950 16.400,117.400 16.400 C 116.778 16.400,116.400 16.627,116.400 17.000 C 116.400 17.373,116.022 17.600,115.400 17.600 C 114.850 17.600,114.400 17.780,114.400 18.000 C 114.400 18.220,113.950 18.400,113.400 18.400 C 112.778 18.400,112.400 18.627,112.400 19.000 C 112.400 19.373,112.022 19.600,111.400 19.600 C 110.850 19.600,110.400 19.780,110.400 20.000 C 110.400 20.220,109.950 20.400,109.400 20.400 C 108.778 20.400,108.400 20.627,108.400 21.000 C 108.400 21.373,108.022 21.600,107.400 21.600 C 106.850 21.600,106.400 21.780,106.400 22.000 C 106.400 22.220,105.950 22.400,105.400 22.400 C 104.778 22.400,104.400 22.627,104.400 23.000 C 104.400 23.373,104.022 23.600,103.400 23.600 C 102.850 23.600,102.400 23.780,102.400 24.000 C 102.400 24.220,102.065 24.400,101.656 24.400 C 101.247 24.400,100.574 24.850,100.161 25.400 C 99.747 25.951,99.004 26.400,98.505 26.400 C 97.967 26.400,97.600 26.643,97.600 27.000 C 97.600 27.373,97.222 27.600,96.600 27.600 C 96.050 27.600,95.600 27.780,95.600 28.000 C 95.600 28.220,95.330 28.400,95.000 28.400 C 94.670 28.400,94.400 28.670,94.400 29.000 C 94.400 29.373,94.022 29.600,93.400 29.600 C 92.850 29.600,92.400 29.780,92.400 30.000 C 92.400 30.220,92.065 30.400,91.656 30.400 C 91.247 30.400,90.574 30.850,90.161 31.400 C 89.747 31.951,89.004 32.400,88.505 32.400 C 87.967 32.400,87.600 32.643,87.600 33.000 C 87.600 33.330,87.330 33.600,87.000 33.600 C 86.670 33.600,86.400 33.780,86.400 34.000 C 86.400 34.220,86.065 34.400,85.656 34.400 C 85.247 34.400,84.574 34.850,84.161 35.400 C 83.748 35.950,83.183 36.400,82.905 36.400 C 82.627 36.400,82.400 36.670,82.400 37.000 C 82.400 37.340,82.041 37.600,81.571 37.600 C 80.686 37.600,79.600 38.466,79.600 39.171 C 79.600 39.407,79.330 39.600,79.000 39.600 C 78.670 39.600,78.400 39.780,78.400 40.000 C 78.400 40.220,78.065 40.400,77.656 40.400 C 77.247 40.400,76.574 40.850,76.161 41.400 C 75.748 41.950,75.183 42.400,74.905 42.400 C 74.627 42.400,74.400 42.670,74.400 43.000 C 74.400 43.330,74.085 43.606,73.700 43.613 C 72.835 43.628,71.600 44.529,71.600 45.144 C 71.600 45.395,71.407 45.600,71.171 45.600 C 70.618 45.600,69.600 46.618,69.600 47.171 C 69.600 47.407,69.407 47.600,69.171 47.600 C 68.618 47.600,67.600 48.618,67.600 49.171 C 67.600 49.407,67.216 49.600,66.747 49.600 C 66.278 49.600,65.300 50.230,64.574 51.000 C 63.848 51.770,63.062 52.400,62.827 52.400 C 62.592 52.400,62.400 52.593,62.400 52.829 C 62.400 53.382,61.382 54.400,60.829 54.400 C 60.593 54.400,60.400 54.593,60.400 54.829 C 60.400 55.382,59.382 56.400,58.829 56.400 C 58.593 56.400,58.400 56.593,58.400 56.829 C 58.400 57.382,57.382 58.400,56.829 58.400 C 56.593 58.400,56.400 58.593,56.400 58.829 C 56.400 59.382,55.382 60.400,54.829 60.400 C 54.593 60.400,54.400 60.593,54.400 60.829 C 54.400 61.382,53.382 62.400,52.829 62.400 C 52.593 62.400,52.400 62.592,52.400 62.827 C 52.400 63.062,51.770 63.848,51.000 64.574 C 50.230 65.300,49.600 66.278,49.600 66.747 C 49.600 67.216,49.407 67.600,49.171 67.600 C 48.618 67.600,47.600 68.618,47.600 69.171 C 47.600 69.407,47.407 69.600,47.171 69.600 C 46.618 69.600,45.600 70.618,45.600 71.171 C 45.600 71.407,45.395 71.600,45.144 71.600 C 44.529 71.600,43.628 72.835,43.613 73.700 C 43.606 74.085,43.330 74.400,43.000 74.400 C 42.670 74.400,42.400 74.627,42.400 74.905 C 42.400 75.183,41.950 75.748,41.400 76.161 C 40.850 76.574,40.400 77.247,40.400 77.656 C 40.400 78.065,40.220 78.400,40.000 78.400 C 39.780 78.400,39.600 78.670,39.600 79.000 C 39.600 79.330,39.407 79.600,39.171 79.600 C 38.466 79.600,37.600 80.686,37.600 81.571 C 37.600 82.041,37.340 82.400,37.000 82.400 C 36.670 82.400,36.400 82.627,36.400 82.905 C 36.400 83.183,35.950 83.748,35.400 84.161 C 34.850 84.574,34.400 85.247,34.400 85.656 C 34.400 86.065,34.220 86.400,34.000 86.400 C 33.780 86.400,33.600 86.670,33.600 87.000 C 33.600 87.330,33.330 87.600,33.000 87.600 C 32.643 87.600,32.400 87.967,32.400 88.505 C 32.400 89.004,31.951 89.747,31.400 90.161 C 30.850 90.574,30.400 91.247,30.400 91.656 C 30.400 92.065,30.220 92.400,30.000 92.400 C 29.780 92.400,29.600 92.850,29.600 93.400 C 29.600 94.022,29.373 94.400,29.000 94.400 C 28.670 94.400,28.400 94.670,28.400 95.000 C 28.400 95.330,28.220 95.600,28.000 95.600 C 27.780 95.600,27.600 96.050,27.600 96.600 C 27.600 97.222,27.373 97.600,27.000 97.600 C 26.643 97.600,26.400 97.967,26.400 98.505 C 26.400 99.004,25.951 99.747,25.400 100.161 C 24.850 100.574,24.400 101.247,24.400 101.656 C 24.400 102.065,24.220 102.400,24.000 102.400 C 23.780 102.400,23.600 102.850,23.600 103.400 C 23.600 104.022,23.373 104.400,23.000 104.400 C 22.627 104.400,22.400 104.778,22.400 105.400 C 22.400 105.950,22.220 106.400,22.000 106.400 C 21.780 106.400,21.600 106.850,21.600 107.400 C 21.600 108.022,21.373 108.400,21.000 108.400 C 20.627 108.400,20.400 108.778,20.400 109.400 C 20.400 109.950,20.220 110.400,20.000 110.400 C 19.780 110.400,19.600 110.850,19.600 111.400 C 19.600 112.022,19.373 112.400,19.000 112.400 C 18.627 112.400,18.400 112.778,18.400 113.400 C 18.400 113.950,18.220 114.400,18.000 114.400 C 17.780 114.400,17.600 114.850,17.600 115.400 C 17.600 116.022,17.373 116.400,17.000 116.400 C 16.627 116.400,16.400 116.778,16.400 117.400 C 16.400 117.950,16.220 118.400,16.000 118.400 C 15.780 118.400,15.600 119.120,15.600 120.000 C 15.600 121.156,15.433 121.600,15.000 121.600 C 14.627 121.600,14.400 121.978,14.400 122.600 C 14.400 123.150,14.220 123.600,14.000 123.600 C 13.780 123.600,13.600 124.031,13.600 124.557 C 13.600 125.084,13.330 125.618,13.000 125.745 C 12.649 125.879,12.400 126.479,12.400 127.187 C 12.400 127.854,12.220 128.400,12.000 128.400 C 11.780 128.400,11.600 129.120,11.600 130.000 C 11.600 131.156,11.433 131.600,11.000 131.600 C 10.581 131.600,10.400 132.022,10.400 133.000 C 10.400 133.770,10.220 134.400,10.000 134.400 C 9.780 134.400,9.600 134.863,9.600 135.429 C 9.600 135.994,9.330 136.727,9.000 137.057 C 8.670 137.387,8.400 138.274,8.400 139.029 C 8.400 139.783,8.220 140.400,8.000 140.400 C 7.780 140.400,7.600 141.120,7.600 142.000 C 7.600 143.156,7.433 143.600,7.000 143.600 C 6.557 143.600,6.400 144.064,6.400 145.376 C 6.400 146.353,6.220 147.264,6.000 147.400 C 5.780 147.536,5.600 148.247,5.600 148.981 C 5.600 149.797,5.367 150.404,5.000 150.545 C 4.558 150.714,4.400 151.412,4.400 153.187 C 4.400 154.529,4.222 155.600,4.000 155.600 C 3.780 155.600,3.600 156.481,3.600 157.557 C 3.600 158.874,3.415 159.585,3.035 159.731 C 2.472 159.947,2.272 161.320,1.760 168.500 C 1.609 170.620,1.379 171.600,1.032 171.600 C 0.312 171.600,0.000 180.189,0.000 200.000 C -0.000 219.811,0.312 228.400,1.032 228.400 C 1.379 228.400,1.609 229.380,1.760 231.500 C 2.272 238.680,2.472 240.053,3.035 240.269 C 3.415 240.415,3.600 241.126,3.600 242.443 C 3.600 243.519,3.780 244.400,4.000 244.400 C 4.222 244.400,4.400 245.471,4.400 246.813 C 4.400 248.588,4.558 249.286,5.000 249.455 C 5.367 249.596,5.600 250.203,5.600 251.019 C 5.600 251.753,5.780 252.464,6.000 252.600 C 6.220 252.736,6.400 253.647,6.400 254.624 C 6.400 255.936,6.557 256.400,7.000 256.400 C 7.433 256.400,7.600 256.844,7.600 258.000 C 7.600 258.880,7.780 259.600,8.000 259.600 C 8.220 259.600,8.400 260.217,8.400 260.971 C 8.400 261.726,8.670 262.613,9.000 262.943 C 9.330 263.273,9.600 264.006,9.600 264.571 C 9.600 265.137,9.780 265.600,10.000 265.600 C 10.220 265.600,10.400 266.230,10.400 267.000 C 10.400 267.978,10.581 268.400,11.000 268.400 C 11.433 268.400,11.600 268.844,11.600 270.000 C 11.600 270.880,11.780 271.600,12.000 271.600 C 12.220 271.600,12.400 272.146,12.400 272.813 C 12.400 273.521,12.649 274.121,13.000 274.255 C 13.330 274.382,13.600 274.916,13.600 275.443 C 13.600 275.969,13.780 276.400,14.000 276.400 C 14.220 276.400,14.400 276.850,14.400 277.400 C 14.400 278.022,14.627 278.400,15.000 278.400 C 15.433 278.400,15.600 278.844,15.600 280.000 C 15.600 280.880,15.780 281.600,16.000 281.600 C 16.220 281.600,16.400 282.050,16.400 282.600 C 16.400 283.222,16.627 283.600,17.000 283.600 C 17.373 283.600,17.600 283.978,17.600 284.600 C 17.600 285.150,17.780 285.600,18.000 285.600 C 18.220 285.600,18.400 286.050,18.400 286.600 C 18.400 287.222,18.627 287.600,19.000 287.600 C 19.373 287.600,19.600 287.978,19.600 288.600 C 19.600 289.150,19.780 289.600,20.000 289.600 C 20.220 289.600,20.400 290.050,20.400 290.600 C 20.400 291.222,20.627 291.600,21.000 291.600 C 21.373 291.600,21.600 291.978,21.600 292.600 C 21.600 293.150,21.780 293.600,22.000 293.600 C 22.220 293.600,22.400 294.050,22.400 294.600 C 22.400 295.222,22.627 295.600,23.000 295.600 C 23.373 295.600,23.600 295.978,23.600 296.600 C 23.600 297.150,23.780 297.600,24.000 297.600 C 24.220 297.600,24.400 297.935,24.400 298.344 C 24.400 298.753,24.850 299.426,25.400 299.839 C 25.951 300.253,26.400 300.996,26.400 301.495 C 26.400 302.033,26.643 302.400,27.000 302.400 C 27.346 302.400,27.600 302.762,27.600 303.254 C 27.600 303.724,28.050 304.525,28.600 305.035 C 29.150 305.545,29.600 306.330,29.600 306.781 C 29.600 307.231,29.780 307.600,30.000 307.600 C 30.220 307.600,30.400 307.935,30.400 308.344 C 30.400 308.753,30.850 309.426,31.400 309.839 C 31.951 310.253,32.400 310.996,32.400 311.495 C 32.400 312.033,32.643 312.400,33.000 312.400 C 33.330 312.400,33.600 312.670,33.600 313.000 C 33.600 313.330,33.780 313.600,34.000 313.600 C 34.220 313.600,34.400 313.935,34.400 314.344 C 34.400 314.753,34.850 315.426,35.400 315.839 C 35.950 316.252,36.400 316.817,36.400 317.095 C 36.400 317.373,36.670 317.600,37.000 317.600 C 37.340 317.600,37.600 317.959,37.600 318.429 C 37.600 319.314,38.466 320.400,39.171 320.400 C 39.407 320.400,39.600 320.670,39.600 321.000 C 39.600 321.330,39.780 321.600,40.000 321.600 C 40.220 321.600,40.400 321.898,40.400 322.262 C 40.400 322.626,41.120 323.609,42.000 324.446 C 42.880 325.283,43.606 326.200,43.613 326.484 C 43.630 327.197,44.591 328.400,45.144 328.400 C 45.395 328.400,45.600 328.593,45.600 328.829 C 45.600 329.382,46.618 330.400,47.171 330.400 C 47.407 330.400,47.600 330.593,47.600 330.829 C 47.600 331.382,48.618 332.400,49.171 332.400 C 49.407 332.400,49.600 332.784,49.600 333.253 C 49.600 333.722,50.230 334.700,51.000 335.426 C 51.770 336.152,52.400 336.938,52.400 337.173 C 52.400 337.408,52.593 337.600,52.829 337.600 C 53.382 337.600,54.400 338.618,54.400 339.171 C 54.400 339.407,54.593 339.600,54.829 339.600 C 55.382 339.600,56.400 340.618,56.400 341.171 C 56.400 341.407,56.593 341.600,56.829 341.600 C 57.382 341.600,58.400 342.618,58.400 343.171 C 58.400 343.407,58.593 343.600,58.829 343.600 C 59.382 343.600,60.400 344.618,60.400 345.171 C 60.400 345.407,60.593 345.600,60.829 345.600 C 61.382 345.600,62.400 346.618,62.400 347.171 C 62.400 347.407,62.592 347.600,62.827 347.600 C 63.062 347.600,63.848 348.230,64.574 349.000 C 65.300 349.770,66.278 350.400,66.747 350.400 C 67.216 350.400,67.600 350.593,67.600 350.829 C 67.600 351.382,68.618 352.400,69.171 352.400 C 69.407 352.400,69.600 352.593,69.600 352.829 C 69.600 353.382,70.618 354.400,71.171 354.400 C 71.407 354.400,71.600 354.605,71.600 354.856 C 71.600 355.409,72.803 356.370,73.516 356.387 C 73.800 356.394,74.717 357.120,75.554 358.000 C 76.391 358.880,77.374 359.600,77.738 359.600 C 78.102 359.600,78.400 359.780,78.400 360.000 C 78.400 360.220,78.670 360.400,79.000 360.400 C 79.330 360.400,79.600 360.593,79.600 360.829 C 79.600 361.534,80.686 362.400,81.571 362.400 C 82.041 362.400,82.400 362.660,82.400 363.000 C 82.400 363.330,82.627 363.600,82.905 363.600 C 83.183 363.600,83.748 364.050,84.161 364.600 C 84.574 365.150,85.247 365.600,85.656 365.600 C 86.065 365.600,86.400 365.780,86.400 366.000 C 86.400 366.220,86.670 366.400,87.000 366.400 C 87.330 366.400,87.600 366.670,87.600 367.000 C 87.600 367.357,87.967 367.600,88.505 367.600 C 89.004 367.600,89.747 368.049,90.161 368.600 C 90.574 369.150,91.247 369.600,91.656 369.600 C 92.065 369.600,92.400 369.780,92.400 370.000 C 92.400 370.220,92.850 370.400,93.400 370.400 C 94.022 370.400,94.400 370.627,94.400 371.000 C 94.400 371.330,94.670 371.600,95.000 371.600 C 95.330 371.600,95.600 371.780,95.600 372.000 C 95.600 372.220,96.050 372.400,96.600 372.400 C 97.222 372.400,97.600 372.627,97.600 373.000 C 97.600 373.357,97.967 373.600,98.505 373.600 C 99.004 373.600,99.747 374.049,100.161 374.600 C 100.574 375.150,101.247 375.600,101.656 375.600 C 102.065 375.600,102.400 375.780,102.400 376.000 C 102.400 376.220,102.850 376.400,103.400 376.400 C 104.022 376.400,104.400 376.627,104.400 377.000 C 104.400 377.373,104.778 377.600,105.400 377.600 C 105.950 377.600,106.400 377.780,106.400 378.000 C 106.400 378.220,106.850 378.400,107.400 378.400 C 108.022 378.400,108.400 378.627,108.400 379.000 C 108.400 379.373,108.778 379.600,109.400 379.600 C 109.950 379.600,110.400 379.780,110.400 380.000 C 110.400 380.220,110.850 380.400,111.400 380.400 C 112.022 380.400,112.400 380.627,112.400 381.000 C 112.400 381.373,112.778 381.600,113.400 381.600 C 113.950 381.600,114.400 381.780,114.400 382.000 C 114.400 382.220,114.850 382.400,115.400 382.400 C 116.022 382.400,116.400 382.627,116.400 383.000 C 116.400 383.373,116.778 383.600,117.400 383.600 C 117.950 383.600,118.400 383.780,118.400 384.000 C 118.400 384.220,119.120 384.400,120.000 384.400 C 121.156 384.400,121.600 384.567,121.600 385.000 C 121.600 385.373,121.978 385.600,122.600 385.600 C 123.150 385.600,123.600 385.780,123.600 386.000 C 123.600 386.220,124.031 386.400,124.557 386.400 C 125.084 386.400,125.618 386.670,125.745 387.000 C 125.879 387.351,126.479 387.600,127.187 387.600 C 127.854 387.600,128.400 387.780,128.400 388.000 C 128.400 388.220,129.120 388.400,130.000 388.400 C 131.156 388.400,131.600 388.567,131.600 389.000 C 131.600 389.419,132.022 389.600,133.000 389.600 C 133.770 389.600,134.400 389.780,134.400 390.000 C 134.400 390.220,134.863 390.400,135.429 390.400 C 135.994 390.400,136.727 390.670,137.057 391.000 C 137.387 391.330,138.274 391.600,139.029 391.600 C 139.783 391.600,140.400 391.780,140.400 392.000 C 140.400 392.220,141.120 392.400,142.000 392.400 C 143.156 392.400,143.600 392.567,143.600 393.000 C 143.600 393.443,144.064 393.600,145.376 393.600 C 146.353 393.600,147.264 393.780,147.400 394.000 C 147.536 394.220,148.247 394.400,148.981 394.400 C 149.797 394.400,150.404 394.633,150.545 395.000 C 150.714 395.442,151.412 395.600,153.187 395.600 C 154.529 395.600,155.600 395.778,155.600 396.000 C 155.600 396.220,156.481 396.400,157.557 396.400 C 158.874 396.400,159.585 396.585,159.731 396.965 C 159.947 397.528,161.320 397.728,168.500 398.240 C 170.620 398.391,171.600 398.621,171.600 398.968 C 171.600 399.688,180.189 400.000,200.000 400.000 C 219.811 400.000,228.400 399.688,228.400 398.968 C 228.400 398.621,229.380 398.391,231.500 398.240 C 238.680 397.728,240.053 397.528,240.269 396.965 C 240.415 396.585,241.126 396.400,242.443 396.400 C 243.519 396.400,244.400 396.220,244.400 396.000 C 244.400 395.778,245.471 395.600,246.813 395.600 C 248.588 395.600,249.286 395.442,249.455 395.000 C 249.596 394.633,250.203 394.400,251.019 394.400 C 251.753 394.400,252.464 394.220,252.600 394.000 C 252.736 393.780,253.647 393.600,254.624 393.600 C 255.936 393.600,256.400 393.443,256.400 393.000 C 256.400 392.567,256.844 392.400,258.000 392.400 C 258.880 392.400,259.600 392.220,259.600 392.000 C 259.600 391.780,260.217 391.600,260.971 391.600 C 261.726 391.600,262.613 391.330,262.943 391.000 C 263.273 390.670,264.006 390.400,264.571 390.400 C 265.137 390.400,265.600 390.220,265.600 390.000 C 265.600 389.780,266.230 389.600,267.000 389.600 C 267.978 389.600,268.400 389.419,268.400 389.000 C 268.400 388.567,268.844 388.400,270.000 388.400 C 270.880 388.400,271.600 388.220,271.600 388.000 C 271.600 387.780,272.146 387.600,272.813 387.600 C 273.521 387.600,274.121 387.351,274.255 387.000 C 274.382 386.670,274.916 386.400,275.443 386.400 C 275.969 386.400,276.400 386.220,276.400 386.000 C 276.400 385.780,276.850 385.600,277.400 385.600 C 278.022 385.600,278.400 385.373,278.400 385.000 C 278.400 384.567,278.844 384.400,280.000 384.400 C 280.880 384.400,281.600 384.220,281.600 384.000 C 281.600 383.780,282.050 383.600,282.600 383.600 C 283.222 383.600,283.600 383.373,283.600 383.000 C 283.600 382.627,283.978 382.400,284.600 382.400 C 285.150 382.400,285.600 382.220,285.600 382.000 C 285.600 381.780,286.050 381.600,286.600 381.600 C 287.222 381.600,287.600 381.373,287.600 381.000 C 287.600 380.627,287.978 380.400,288.600 380.400 C 289.150 380.400,289.600 380.220,289.600 380.000 C 289.600 379.780,290.050 379.600,290.600 379.600 C 291.222 379.600,291.600 379.373,291.600 379.000 C 291.600 378.627,291.978 378.400,292.600 378.400 C 293.150 378.400,293.600 378.220,293.600 378.000 C 293.600 377.780,294.050 377.600,294.600 377.600 C 295.222 377.600,295.600 377.373,295.600 377.000 C 295.600 376.627,295.978 376.400,296.600 376.400 C 297.150 376.400,297.600 376.220,297.600 376.000 C 297.600 375.780,297.935 375.600,298.344 375.600 C 298.753 375.600,299.426 375.150,299.839 374.600 C 300.253 374.049,300.996 373.600,301.495 373.600 C 302.033 373.600,302.400 373.357,302.400 373.000 C 302.400 372.627,302.778 372.400,303.400 372.400 C 303.950 372.400,304.400 372.220,304.400 372.000 C 304.400 371.780,304.670 371.600,305.000 371.600 C 305.330 371.600,305.600 371.330,305.600 371.000 C 305.600 370.627,305.978 370.400,306.600 370.400 C 307.150 370.400,307.600 370.220,307.600 370.000 C 307.600 369.780,307.935 369.600,308.344 369.600 C 308.753 369.600,309.426 369.150,309.839 368.600 C 310.253 368.049,310.996 367.600,311.495 367.600 C 312.033 367.600,312.400 367.357,312.400 367.000 C 312.400 366.670,312.670 366.400,313.000 366.400 C 313.330 366.400,313.600 366.220,313.600 366.000 C 313.600 365.780,313.935 365.600,314.344 365.600 C 314.753 365.600,315.426 365.150,315.839 364.600 C 316.252 364.050,316.817 363.600,317.095 363.600 C 317.373 363.600,317.600 363.330,317.600 363.000 C 317.600 362.660,317.959 362.400,318.429 362.400 C 319.314 362.400,320.400 361.534,320.400 360.829 C 320.400 360.593,320.670 360.400,321.000 360.400 C 321.330 360.400,321.600 360.220,321.600 360.000 C 321.600 359.780,321.935 359.600,322.344 359.600 C 322.753 359.600,323.426 359.150,323.839 358.600 C 324.252 358.050,324.817 357.600,325.095 357.600 C 325.373 357.600,325.600 357.330,325.600 357.000 C 325.600 356.670,325.915 356.394,326.300 356.387 C 327.165 356.372,328.400 355.471,328.400 354.856 C 328.400 354.605,328.593 354.400,328.829 354.400 C 329.382 354.400,330.400 353.382,330.400 352.829 C 330.400 352.593,330.593 352.400,330.829 352.400 C 331.382 352.400,332.400 351.382,332.400 350.829 C 332.400 350.593,332.784 350.400,333.253 350.400 C 333.722 350.400,334.700 349.770,335.426 349.000 C 336.152 348.230,336.938 347.600,337.173 347.600 C 337.408 347.600,337.600 347.407,337.600 347.171 C 337.600 346.618,338.618 345.600,339.171 345.600 C 339.407 345.600,339.600 345.407,339.600 345.171 C 339.600 344.618,340.618 343.600,341.171 343.600 C 341.407 343.600,341.600 343.407,341.600 343.171 C 341.600 342.618,342.618 341.600,343.171 341.600 C 343.407 341.600,343.600 341.407,343.600 341.171 C 343.600 340.618,344.618 339.600,345.171 339.600 C 345.407 339.600,345.600 339.407,345.600 339.171 C 345.600 338.618,346.618 337.600,347.171 337.600 C 347.407 337.600,347.600 337.408,347.600 337.173 C 347.600 336.938,348.230 336.152,349.000 335.426 C 349.770 334.700,350.400 333.722,350.400 333.253 C 350.400 332.784,350.593 332.400,350.829 332.400 C 351.382 332.400,352.400 331.382,352.400 330.829 C 352.400 330.593,352.593 330.400,352.829 330.400 C 353.382 330.400,354.400 329.382,354.400 328.829 C 354.400 328.593,354.605 328.400,354.856 328.400 C 355.471 328.400,356.372 327.165,356.387 326.300 C 356.394 325.915,356.670 325.600,357.000 325.600 C 357.330 325.600,357.600 325.373,357.600 325.095 C 357.600 324.817,358.050 324.252,358.600 323.839 C 359.150 323.426,359.600 322.753,359.600 322.344 C 359.600 321.935,359.780 321.600,360.000 321.600 C 360.220 321.600,360.400 321.330,360.400 321.000 C 360.400 320.670,360.593 320.400,360.829 320.400 C 361.534 320.400,362.400 319.314,362.400 318.429 C 362.400 317.959,362.660 317.600,363.000 317.600 C 363.330 317.600,363.600 317.373,363.600 317.095 C 363.600 316.817,364.050 316.252,364.600 315.839 C 365.150 315.426,365.600 314.753,365.600 314.344 C 365.600 313.935,365.780 313.600,366.000 313.600 C 366.220 313.600,366.400 313.330,366.400 313.000 C 366.400 312.670,366.670 312.400,367.000 312.400 C 367.357 312.400,367.600 312.033,367.600 311.495 C 367.600 310.996,368.049 310.253,368.600 309.839 C 369.150 309.426,369.600 308.753,369.600 308.344 C 369.600 307.935,369.780 307.600,370.000 307.600 C 370.220 307.600,370.400 307.150,370.400 306.600 C 370.400 305.978,370.627 305.600,371.000 305.600 C 371.330 305.600,371.600 305.330,371.600 305.000 C 371.600 304.670,371.780 304.400,372.000 304.400 C 372.220 304.400,372.400 303.950,372.400 303.400 C 372.400 302.778,372.627 302.400,373.000 302.400 C 373.357 302.400,373.600 302.033,373.600 301.495 C 373.600 300.996,374.049 300.253,374.600 299.839 C 375.150 299.426,375.600 298.753,375.600 298.344 C 375.600 297.935,375.780 297.600,376.000 297.600 C 376.220 297.600,376.400 297.150,376.400 296.600 C 376.400 295.978,376.627 295.600,377.000 295.600 C 377.373 295.600,377.600 295.222,377.600 294.600 C 377.600 294.050,377.780 293.600,378.000 293.600 C 378.220 293.600,378.400 293.150,378.400 292.600 C 378.400 291.978,378.627 291.600,379.000 291.600 C 379.373 291.600,379.600 291.222,379.600 290.600 C 379.600 290.050,379.780 289.600,380.000 289.600 C 380.220 289.600,380.400 289.150,380.400 288.600 C 380.400 287.978,380.627 287.600,381.000 287.600 C 381.373 287.600,381.600 287.222,381.600 286.600 C 381.600 286.050,381.780 285.600,382.000 285.600 C 382.220 285.600,382.400 285.150,382.400 284.600 C 382.400 283.978,382.627 283.600,383.000 283.600 C 383.373 283.600,383.600 283.222,383.600 282.600 C 383.600 282.050,383.780 281.600,384.000 281.600 C 384.220 281.600,384.400 280.880,384.400 280.000 C 384.400 278.844,384.567 278.400,385.000 278.400 C 385.373 278.400,385.600 278.022,385.600 277.400 C 385.600 276.850,385.780 276.400,386.000 276.400 C 386.220 276.400,386.400 275.969,386.400 275.443 C 386.400 274.916,386.670 274.382,387.000 274.255 C 387.351 274.121,387.600 273.521,387.600 272.813 C 387.600 272.146,387.780 271.600,388.000 271.600 C 388.220 271.600,388.400 270.880,388.400 270.000 C 388.400 268.844,388.567 268.400,389.000 268.400 C 389.419 268.400,389.600 267.978,389.600 267.000 C 389.600 266.230,389.780 265.600,390.000 265.600 C 390.220 265.600,390.400 265.137,390.400 264.571 C 390.400 264.006,390.670 263.273,391.000 262.943 C 391.330 262.613,391.600 261.726,391.600 260.971 C 391.600 260.217,391.780 259.600,392.000 259.600 C 392.220 259.600,392.400 258.880,392.400 258.000 C 392.400 256.844,392.567 256.400,393.000 256.400 C 393.443 256.400,393.600 255.936,393.600 254.624 C 393.600 253.647,393.780 252.736,394.000 252.600 C 394.220 252.464,394.400 251.753,394.400 251.019 C 394.400 250.203,394.633 249.596,395.000 249.455 C 395.442 249.286,395.600 248.588,395.600 246.813 C 395.600 245.471,395.778 244.400,396.000 244.400 C 396.220 244.400,396.400 243.519,396.400 242.443 C 396.400 241.126,396.585 240.415,396.965 240.269 C 397.528 240.053,397.728 238.680,398.240 231.500 C 398.391 229.380,398.621 228.400,398.968 228.400 C 399.688 228.400,400.000 219.811,400.000 200.000 C 400.000 180.189,399.688 171.600,398.968 171.600 C 398.621 171.600,398.391 170.620,398.240 168.500 C 397.728 161.320,397.528 159.947,396.965 159.731 C 396.585 159.585,396.400 158.874,396.400 157.557 C 396.400 156.481,396.220 155.600,396.000 155.600 C 395.778 155.600,395.600 154.529,395.600 153.187 C 395.600 151.412,395.442 150.714,395.000 150.545 C 394.633 150.404,394.400 149.797,394.400 148.981 C 394.400 148.247,394.220 147.536,394.000 147.400 C 393.780 147.264,393.600 146.353,393.600 145.376 C 393.600 144.064,393.443 143.600,393.000 143.600 C 392.567 143.600,392.400 143.156,392.400 142.000 C 392.400 141.120,392.220 140.400,392.000 140.400 C 391.780 140.400,391.600 139.783,391.600 139.029 C 391.600 138.274,391.330 137.387,391.000 137.057 C 390.670 136.727,390.400 135.994,390.400 135.429 C 390.400 134.863,390.220 134.400,390.000 134.400 C 389.780 134.400,389.600 133.770,389.600 133.000 C 389.600 132.022,389.419 131.600,389.000 131.600 C 388.567 131.600,388.400 131.156,388.400 130.000 C 388.400 129.120,388.220 128.400,388.000 128.400 C 387.780 128.400,387.600 127.854,387.600 127.187 C 387.600 126.479,387.351 125.879,387.000 125.745 C 386.670 125.618,386.400 125.084,386.400 124.557 C 386.400 124.031,386.220 123.600,386.000 123.600 C 385.780 123.600,385.600 123.150,385.600 122.600 C 385.600 121.978,385.373 121.600,385.000 121.600 C 384.567 121.600,384.400 121.156,384.400 120.000 C 384.400 119.120,384.220 118.400,384.000 118.400 C 383.780 118.400,383.600 117.950,383.600 117.400 C 383.600 116.778,383.373 116.400,383.000 116.400 C 382.627 116.400,382.400 116.022,382.400 115.400 C 382.400 114.850,382.220 114.400,382.000 114.400 C 381.780 114.400,381.600 113.950,381.600 113.400 C 381.600 112.778,381.373 112.400,381.000 112.400 C 380.627 112.400,380.400 112.022,380.400 111.400 C 380.400 110.850,380.220 110.400,380.000 110.400 C 379.780 110.400,379.600 109.950,379.600 109.400 C 379.600 108.778,379.373 108.400,379.000 108.400 C 378.627 108.400,378.400 108.022,378.400 107.400 C 378.400 106.850,378.220 106.400,378.000 106.400 C 377.780 106.400,377.600 105.950,377.600 105.400 C 377.600 104.778,377.373 104.400,377.000 104.400 C 376.627 104.400,376.400 104.022,376.400 103.400 C 376.400 102.850,376.220 102.400,376.000 102.400 C 375.780 102.400,375.600 102.065,375.600 101.656 C 375.600 101.247,375.150 100.574,374.600 100.161 C 374.049 99.747,373.600 99.004,373.600 98.505 C 373.600 97.967,373.357 97.600,373.000 97.600 C 372.654 97.600,372.400 97.238,372.400 96.746 C 372.400 96.276,371.950 95.475,371.400 94.965 C 370.850 94.455,370.400 93.670,370.400 93.219 C 370.400 92.769,370.220 92.400,370.000 92.400 C 369.780 92.400,369.600 92.065,369.600 91.656 C 369.600 91.247,369.150 90.574,368.600 90.161 C 368.049 89.747,367.600 89.004,367.600 88.505 C 367.600 87.967,367.357 87.600,367.000 87.600 C 366.670 87.600,366.400 87.330,366.400 87.000 C 366.400 86.670,366.220 86.400,366.000 86.400 C 365.780 86.400,365.600 86.065,365.600 85.656 C 365.600 85.247,365.150 84.574,364.600 84.161 C 364.050 83.748,363.600 83.183,363.600 82.905 C 363.600 82.627,363.330 82.400,363.000 82.400 C 362.660 82.400,362.400 82.041,362.400 81.571 C 362.400 80.686,361.534 79.600,360.829 79.600 C 360.593 79.600,360.400 79.330,360.400 79.000 C 360.400 78.670,360.220 78.400,360.000 78.400 C 359.780 78.400,359.600 78.102,359.600 77.738 C 359.600 77.374,358.880 76.391,358.000 75.554 C 357.120 74.717,356.394 73.800,356.387 73.516 C 356.370 72.803,355.409 71.600,354.856 71.600 C 354.605 71.600,354.400 71.407,354.400 71.171 C 354.400 70.618,353.382 69.600,352.829 69.600 C 352.593 69.600,352.400 69.407,352.400 69.171 C 352.400 68.618,351.382 67.600,350.829 67.600 C 350.593 67.600,350.400 67.216,350.400 66.747 C 350.400 66.278,349.770 65.300,349.000 64.574 C 348.230 63.848,347.600 63.062,347.600 62.827 C 347.600 62.592,347.407 62.400,347.171 62.400 C 346.618 62.400,345.600 61.382,345.600 60.829 C 345.600 60.593,345.407 60.400,345.171 60.400 C 344.618 60.400,343.600 59.382,343.600 58.829 C 343.600 58.593,343.407 58.400,343.171 58.400 C 342.618 58.400,341.600 57.382,341.600 56.829 C 341.600 56.593,341.407 56.400,341.171 56.400 C 340.618 56.400,339.600 55.382,339.600 54.829 C 339.600 54.593,339.407 54.400,339.171 54.400 C 338.618 54.400,337.600 53.382,337.600 52.829 C 337.600 52.593,337.408 52.400,337.173 52.400 C 336.938 52.400,336.152 51.770,335.426 51.000 C 334.700 50.230,333.722 49.600,333.253 49.600 C 332.784 49.600,332.400 49.407,332.400 49.171 C 332.400 48.618,331.382 47.600,330.829 47.600 C 330.593 47.600,330.400 47.407,330.400 47.171 C 330.400 46.618,329.382 45.600,328.829 45.600 C 328.593 45.600,328.400 45.395,328.400 45.144 C 328.400 44.591,327.197 43.630,326.484 43.613 C 326.200 43.606,325.283 42.880,324.446 42.000 C 323.609 41.120,322.626 40.400,322.262 40.400 C 321.898 40.400,321.600 40.220,321.600 40.000 C 321.600 39.780,321.330 39.600,321.000 39.600 C 320.670 39.600,320.400 39.407,320.400 39.171 C 320.400 38.466,319.314 37.600,318.429 37.600 C 317.959 37.600,317.600 37.340,317.600 37.000 C 317.600 36.670,317.373 36.400,317.095 36.400 C 316.817 36.400,316.252 35.950,315.839 35.400 C 315.426 34.850,314.753 34.400,314.344 34.400 C 313.935 34.400,313.600 34.220,313.600 34.000 C 313.600 33.780,313.330 33.600,313.000 33.600 C 312.670 33.600,312.400 33.330,312.400 33.000 C 312.400 32.643,312.033 32.400,311.495 32.400 C 310.996 32.400,310.253 31.951,309.839 31.400 C 309.426 30.850,308.753 30.400,308.344 30.400 C 307.935 30.400,307.600 30.220,307.600 30.000 C 307.600 29.780,307.150 29.600,306.600 29.600 C 305.978 29.600,305.600 29.373,305.600 29.000 C 305.600 28.670,305.330 28.400,305.000 28.400 C 304.670 28.400,304.400 28.220,304.400 28.000 C 304.400 27.780,303.950 27.600,303.400 27.600 C 302.778 27.600,302.400 27.373,302.400 27.000 C 302.400 26.643,302.033 26.400,301.495 26.400 C 300.996 26.400,300.253 25.951,299.839 25.400 C 299.426 24.850,298.753 24.400,298.344 24.400 C 297.935 24.400,297.600 24.220,297.600 24.000 C 297.600 23.780,297.150 23.600,296.600 23.600 C 295.978 23.600,295.600 23.373,295.600 23.000 C 295.600 22.627,295.222 22.400,294.600 22.400 C 294.050 22.400,293.600 22.220,293.600 22.000 C 293.600 21.780,293.150 21.600,292.600 21.600 C 291.978 21.600,291.600 21.373,291.600 21.000 C 291.600 20.627,291.222 20.400,290.600 20.400 C 290.050 20.400,289.600 20.220,289.600 20.000 C 289.600 19.780,289.150 19.600,288.600 19.600 C 287.978 19.600,287.600 19.373,287.600 19.000 C 287.600 18.627,287.222 18.400,286.600 18.400 C 286.050 18.400,285.600 18.220,285.600 18.000 C 285.600 17.780,285.150 17.600,284.600 17.600 C 283.978 17.600,283.600 17.373,283.600 17.000 C 283.600 16.627,283.222 16.400,282.600 16.400 C 282.050 16.400,281.600 16.220,281.600 16.000 C 281.600 15.780,280.880 15.600,280.000 15.600 C 278.844 15.600,278.400 15.433,278.400 15.000 C 278.400 14.627,278.022 14.400,277.400 14.400 C 276.850 14.400,276.400 14.220,276.400 14.000 C 276.400 13.780,275.969 13.600,275.443 13.600 C 274.916 13.600,274.382 13.330,274.255 13.000 C 274.121 12.649,273.521 12.400,272.813 12.400 C 272.146 12.400,271.600 12.220,271.600 12.000 C 271.600 11.780,270.880 11.600,270.000 11.600 C 268.844 11.600,268.400 11.433,268.400 11.000 C 268.400 10.581,267.978 10.400,267.000 10.400 C 266.230 10.400,265.600 10.220,265.600 10.000 C 265.600 9.780,265.137 9.600,264.571 9.600 C 264.006 9.600,263.273 9.330,262.943 9.000 C 262.613 8.670,261.726 8.400,260.971 8.400 C 260.217 8.400,259.600 8.220,259.600 8.000 C 259.600 7.780,258.880 7.600,258.000 7.600 C 256.844 7.600,256.400 7.433,256.400 7.000 C 256.400 6.557,255.936 6.400,254.624 6.400 C 253.647 6.400,252.736 6.220,252.600 6.000 C 252.464 5.780,251.753 5.600,251.019 5.600 C 250.203 5.600,249.596 5.367,249.455 5.000 C 249.286 4.558,248.588 4.400,246.813 4.400 C 245.471 4.400,244.400 4.222,244.400 4.000 C 244.400 3.780,243.519 3.600,242.443 3.600 C 241.126 3.600,240.415 3.415,240.269 3.035 C 240.053 2.472,238.680 2.272,231.500 1.760 C 229.380 1.609,228.400 1.379,228.400 1.032 C 228.400 0.130,195.504 -0.328,175.700 0.298 M254.199 128.606 C 264.655 129.658,270.287 130.861,278.000 133.687 C 289.945 138.064,297.397 147.399,299.403 160.497 C 302.153 178.451,293.754 193.108,277.804 198.195 C 277.195 198.389,278.156 199.016,281.873 200.850 C 289.573 204.651,294.751 209.635,298.014 216.388 C 299.660 219.796,299.800 220.164,300.525 223.000 C 301.931 228.496,302.000 229.757,302.000 249.833 L 302.000 270.005 273.300 269.903 L 244.600 269.800 244.387 250.600 C 244.186 232.569,244.125 231.302,243.387 229.783 C 241.453 225.807,238.935 223.825,234.200 222.548 C 232.470 222.082,160.325 221.647,159.908 222.100 C 159.857 222.155,159.722 232.910,159.608 246.000 L 159.400 269.800 130.800 269.800 L 102.200 269.800 102.097 199.400 C 102.041 160.680,102.080 128.775,102.185 128.500 C 102.495 127.684,246.031 127.783,254.199 128.606 M159.843 170.633 C 159.431 171.707,159.575 182.006,160.014 182.826 C 160.483 183.702,228.242 184.041,234.077 183.197 C 242.049 182.044,243.737 172.954,236.440 170.464 C 234.061 169.652,160.157 169.815,159.843 170.633 " stroke="none" fill="#fbdc04" fill-rule="evenodd"></path></g></svg>