<svg id="svg" version="1.1" xmlns="http://www.w3.org/2000/svg" xmlns:xlink="http://www.w3.org/1999/xlink" width="400" height="400" viewBox="0, 0, 400,400"><g id="svgg"><path id="path0" d="M184.200 106.683 C 179.814 107.421,175.178 108.799,171.200 110.545 C 170.870 110.690,170.060 111.162,169.400 111.593 C 168.740 112.025,167.570 112.725,166.800 113.150 C 166.030 113.575,164.320 114.854,163.000 115.992 C 160.636 118.032,160.327 118.345,158.235 120.831 C 156.381 123.035,156.000 122.079,156.000 115.213 C 156.000 110.016,155.914 109.246,155.269 108.662 C 154.386 107.863,89.850 107.624,88.374 108.414 C 87.699 108.775,87.057 126.744,87.700 127.284 C 87.755 127.330,92.840 127.465,99.000 127.584 L 110.200 127.800 110.400 156.800 C 110.510 172.750,110.746 186.025,110.924 186.300 C 111.265 186.827,130.847 187.064,132.167 186.557 C 132.736 186.339,132.800 183.380,132.800 157.200 C 132.800 131.020,132.864 128.061,133.433 127.843 C 134.369 127.483,152.720 127.548,152.945 127.911 C 153.123 128.198,152.313 130.825,151.314 133.200 C 150.843 134.321,150.162 137.610,149.533 141.800 C 148.731 147.139,150.021 160.621,151.515 162.523 C 151.721 162.785,152.018 163.540,152.175 164.200 C 152.332 164.860,152.987 166.258,153.630 167.306 C 154.274 168.354,154.800 169.335,154.800 169.485 C 154.800 169.889,156.827 172.798,158.200 174.364 C 166.255 183.553,175.360 188.059,187.000 188.618 C 194.349 188.972,203.664 187.741,205.644 186.155 C 205.950 185.910,206.696 185.592,207.302 185.447 C 210.006 184.801,217.039 179.925,220.328 176.417 C 223.176 173.378,227.600 166.914,227.600 165.791 C 227.600 165.642,227.854 164.954,228.165 164.260 C 232.000 155.697,231.979 139.544,228.121 130.800 C 225.202 124.184,220.118 117.570,215.649 114.574 C 214.852 114.040,213.570 113.163,212.800 112.625 C 212.030 112.086,211.197 111.636,210.949 111.623 C 210.701 111.610,210.283 111.342,210.021 111.026 C 209.759 110.710,208.972 110.329,208.272 110.180 C 207.573 110.030,206.550 109.675,206.000 109.391 C 200.986 106.803,190.918 105.552,184.200 106.683 M233.780 108.508 C 233.673 108.787,233.633 113.332,233.693 118.608 L 233.800 128.200 251.454 128.304 C 266.341 128.392,269.185 128.500,269.593 128.991 C 270.105 129.609,268.406 131.922,262.387 138.800 C 260.943 140.450,259.230 142.450,258.581 143.245 C 257.473 144.599,250.981 152.192,249.042 154.400 C 247.435 156.230,243.024 161.394,241.200 163.581 C 240.210 164.767,239.027 166.112,238.570 166.569 C 238.114 167.026,236.809 168.596,235.670 170.057 L 233.600 172.713 233.600 176.304 L 233.600 179.895 235.100 180.143 C 238.260 180.666,310.538 180.419,311.600 179.883 L 312.600 179.377 312.708 170.525 C 312.801 162.870,312.729 161.586,312.179 161.036 C 311.615 160.472,309.363 160.400,292.371 160.400 C 275.902 160.400,273.200 160.318,273.200 159.821 C 273.200 159.242,275.738 156.053,278.656 152.967 C 279.505 152.068,281.730 149.646,283.600 147.583 C 285.470 145.520,288.260 142.469,289.800 140.802 C 291.340 139.136,295.207 134.898,298.394 131.386 C 301.581 127.874,304.843 124.280,305.643 123.400 C 306.443 122.520,307.526 121.325,308.049 120.744 C 308.572 120.163,309.540 119.091,310.200 118.362 C 312.540 115.776,312.795 115.169,312.797 112.162 C 312.802 107.545,317.193 108.000,272.656 108.000 C 241.759 108.000,233.936 108.102,233.780 108.508 M197.995 128.852 C 200.962 130.396,204.232 133.465,205.400 135.800 C 205.840 136.680,206.353 137.512,206.541 137.649 C 207.512 138.358,208.878 146.291,208.564 149.400 C 206.941 165.479,191.805 173.566,179.787 164.775 C 168.459 156.490,169.715 135.725,181.948 129.067 C 186.318 126.689,193.650 126.590,197.995 128.852 M158.000 190.758 L 157.000 191.036 157.004 217.618 C 157.008 245.606,157.109 247.423,158.852 250.884 C 159.264 251.700,159.600 252.554,159.600 252.781 C 159.600 254.648,165.574 261.983,169.348 264.751 C 179.479 272.180,196.666 274.080,207.800 269.002 C 208.460 268.701,209.360 268.352,209.800 268.227 C 215.774 266.528,223.351 258.024,226.754 249.200 L 227.757 246.600 227.902 219.257 C 228.035 193.886,227.996 191.859,227.361 191.157 C 226.648 190.369,209.797 190.036,207.200 190.758 L 206.200 191.036 205.992 216.618 L 205.785 242.200 204.719 244.242 C 201.536 250.344,192.255 253.026,185.455 249.809 C 179.112 246.808,178.816 245.274,178.807 215.362 C 178.800 192.975,178.761 191.689,178.069 191.062 C 177.297 190.363,160.341 190.107,158.000 190.758 M95.829 191.429 C 94.999 192.258,94.854 268.694,95.680 269.520 C 96.188 270.028,115.297 270.245,116.567 269.757 C 117.126 269.543,117.200 268.025,117.200 256.806 C 117.200 246.691,117.309 244.007,117.734 243.654 C 118.096 243.354,122.585 243.177,131.634 243.105 L 145.000 243.000 145.108 234.050 C 145.183 227.785,145.079 224.936,144.759 224.550 C 144.388 224.104,141.828 224.000,131.165 224.000 C 118.586 224.000,118.011 223.967,117.614 223.226 C 117.134 222.329,117.058 211.643,117.527 210.905 C 117.767 210.527,121.728 210.384,134.221 210.305 L 150.600 210.200 150.708 200.828 C 150.791 193.598,150.699 191.383,150.308 191.134 C 149.231 190.451,96.521 190.736,95.829 191.429 M234.093 191.134 C 233.701 191.383,233.610 193.836,233.693 202.028 L 233.800 212.600 246.400 212.800 C 253.330 212.910,259.315 213.154,259.700 213.343 C 260.346 213.659,260.400 214.719,260.400 227.035 L 260.400 240.385 261.300 240.605 C 261.795 240.727,266.070 240.775,270.800 240.713 L 279.400 240.600 279.505 227.234 C 279.577 218.185,279.754 213.696,280.054 213.334 C 280.517 212.777,290.828 212.529,292.167 213.043 C 292.736 213.261,292.800 216.118,292.800 241.243 L 292.800 269.200 264.419 269.200 C 243.629 269.200,235.763 269.325,235.012 269.667 L 233.987 270.134 234.093 280.567 L 234.200 291.000 263.400 291.200 L 292.600 291.400 292.800 302.800 L 293.000 314.200 302.800 314.200 L 312.600 314.200 312.701 253.130 C 312.793 198.006,312.741 191.998,312.173 191.430 C 311.479 190.736,235.176 190.447,234.093 191.134 " stroke="none" fill="#f8f8f8" fill-rule="evenodd"></path><path id="path1" d="M174.800 0.400 C 174.800 0.642,173.067 0.800,170.400 0.800 C 166.920 0.800,166.000 0.916,166.000 1.353 C 166.000 1.778,165.056 1.945,161.963 2.069 C 158.680 2.201,157.855 2.359,157.543 2.916 C 157.239 3.459,156.588 3.600,154.380 3.600 C 151.867 3.600,151.600 3.677,151.600 4.400 C 151.600 5.129,151.333 5.200,148.600 5.200 C 146.200 5.200,145.600 5.320,145.600 5.800 C 145.600 6.255,145.107 6.400,143.563 6.400 C 141.862 6.400,141.491 6.532,141.316 7.200 C 141.142 7.865,140.770 8.000,139.116 8.000 C 137.462 8.000,137.090 8.135,136.916 8.800 C 136.743 9.462,136.370 9.600,134.753 9.600 C 133.284 9.600,132.800 9.749,132.800 10.200 C 132.800 10.661,132.289 10.800,130.600 10.800 C 128.667 10.800,128.400 10.897,128.400 11.600 C 128.400 12.303,128.133 12.400,126.200 12.400 C 124.511 12.400,124.000 12.539,124.000 13.000 C 124.000 13.404,123.596 13.600,122.763 13.600 C 121.862 13.600,121.468 13.817,121.316 14.400 C 121.152 15.027,120.770 15.200,119.553 15.200 C 118.267 15.200,118.000 15.337,118.000 16.000 C 118.000 16.693,117.733 16.800,116.000 16.800 C 114.489 16.800,114.000 16.947,114.000 17.400 C 114.000 17.768,113.626 18.000,113.033 18.000 C 111.652 18.000,110.800 18.398,110.800 19.043 C 110.800 19.399,110.354 19.600,109.563 19.600 C 108.662 19.600,108.268 19.817,108.116 20.400 C 107.959 21.001,107.570 21.200,106.553 21.200 C 105.617 21.200,105.200 21.385,105.200 21.800 C 105.200 22.133,104.844 22.400,104.400 22.400 C 103.867 22.400,103.600 22.667,103.600 23.200 C 103.600 23.848,103.333 24.000,102.200 24.000 C 101.222 24.000,100.800 24.181,100.800 24.600 C 100.800 25.004,100.396 25.200,99.563 25.200 C 98.662 25.200,98.268 25.417,98.116 26.000 C 97.960 26.597,97.570 26.800,96.580 26.800 C 95.605 26.800,95.187 27.012,95.000 27.600 C 94.860 28.040,94.488 28.400,94.173 28.400 C 93.858 28.400,93.600 28.670,93.600 29.000 C 93.600 29.419,93.178 29.600,92.200 29.600 C 91.186 29.600,90.800 29.776,90.800 30.237 C 90.800 30.588,90.440 30.969,90.000 31.084 C 89.557 31.200,89.200 31.630,89.200 32.047 C 89.200 32.641,88.904 32.800,87.800 32.800 C 86.822 32.800,86.400 32.981,86.400 33.400 C 86.400 33.733,86.044 34.000,85.600 34.000 C 85.067 34.000,84.800 34.267,84.800 34.800 C 84.800 35.448,84.533 35.600,83.400 35.600 C 82.422 35.600,82.000 35.781,82.000 36.200 C 82.000 36.530,81.713 36.800,81.363 36.800 C 81.012 36.800,80.631 37.160,80.516 37.600 C 80.401 38.040,80.041 38.400,79.716 38.400 C 79.391 38.400,79.031 38.760,78.916 39.200 C 78.759 39.801,78.370 40.000,77.353 40.000 C 76.417 40.000,76.000 40.185,76.000 40.600 C 76.000 40.930,75.730 41.200,75.400 41.200 C 75.067 41.200,74.800 41.556,74.800 42.000 C 74.800 42.533,74.533 42.800,74.000 42.800 C 73.467 42.800,73.200 43.067,73.200 43.600 C 73.200 44.224,72.933 44.400,71.987 44.400 C 71.317 44.400,70.679 44.650,70.560 44.961 C 70.441 45.269,69.997 45.612,69.572 45.723 C 69.148 45.834,68.800 46.212,68.800 46.563 C 68.800 46.913,68.530 47.200,68.200 47.200 C 67.870 47.200,67.600 47.470,67.600 47.800 C 67.600 48.133,67.244 48.400,66.800 48.400 C 66.267 48.400,66.000 48.667,66.000 49.200 C 66.000 49.733,65.733 50.000,65.200 50.000 C 64.667 50.000,64.400 50.267,64.400 50.800 C 64.400 51.244,64.133 51.600,63.800 51.600 C 63.470 51.600,63.200 51.870,63.200 52.200 C 63.200 52.533,62.844 52.800,62.400 52.800 C 61.867 52.800,61.600 53.067,61.600 53.600 C 61.600 54.133,61.333 54.400,60.800 54.400 C 60.267 54.400,60.000 54.667,60.000 55.200 C 60.000 55.644,59.733 56.000,59.400 56.000 C 59.070 56.000,58.800 56.270,58.800 56.600 C 58.800 56.933,58.444 57.200,58.000 57.200 C 57.467 57.200,57.200 57.467,57.200 58.000 C 57.200 58.444,56.933 58.800,56.600 58.800 C 56.270 58.800,56.000 59.070,56.000 59.400 C 56.000 59.733,55.644 60.000,55.200 60.000 C 54.667 60.000,54.400 60.267,54.400 60.800 C 54.400 61.333,54.133 61.600,53.600 61.600 C 53.067 61.600,52.800 61.867,52.800 62.400 C 52.800 62.844,52.533 63.200,52.200 63.200 C 51.870 63.200,51.600 63.470,51.600 63.800 C 51.600 64.133,51.244 64.400,50.800 64.400 C 50.267 64.400,50.000 64.667,50.000 65.200 C 50.000 65.733,49.733 66.000,49.200 66.000 C 48.667 66.000,48.400 66.267,48.400 66.800 C 48.400 67.244,48.133 67.600,47.800 67.600 C 47.470 67.600,47.200 67.870,47.200 68.200 C 47.200 68.530,46.924 68.800,46.587 68.800 C 46.251 68.800,45.859 69.115,45.718 69.500 C 45.576 69.885,45.222 70.344,44.930 70.520 C 44.639 70.696,44.400 71.371,44.400 72.020 C 44.400 72.933,44.219 73.200,43.600 73.200 C 43.067 73.200,42.800 73.467,42.800 74.000 C 42.800 74.533,42.533 74.800,42.000 74.800 C 41.556 74.800,41.200 75.067,41.200 75.400 C 41.200 75.730,40.930 76.000,40.600 76.000 C 40.185 76.000,40.000 76.417,40.000 77.353 C 40.000 78.370,39.801 78.759,39.200 78.916 C 38.760 79.031,38.400 79.391,38.400 79.716 C 38.400 80.041,38.040 80.401,37.600 80.516 C 37.160 80.631,36.800 81.012,36.800 81.363 C 36.800 81.713,36.530 82.000,36.200 82.000 C 35.781 82.000,35.600 82.422,35.600 83.400 C 35.600 84.533,35.448 84.800,34.800 84.800 C 34.267 84.800,34.000 85.067,34.000 85.600 C 34.000 86.044,33.733 86.400,33.400 86.400 C 32.981 86.400,32.800 86.822,32.800 87.800 C 32.800 88.933,32.648 89.200,32.000 89.200 C 31.535 89.200,31.200 89.467,31.200 89.837 C 31.200 90.188,30.840 90.569,30.400 90.684 C 29.799 90.841,29.600 91.230,29.600 92.247 C 29.600 93.183,29.415 93.600,29.000 93.600 C 28.670 93.600,28.400 93.858,28.400 94.173 C 28.400 94.488,28.040 94.860,27.600 95.000 C 27.012 95.187,26.800 95.605,26.800 96.580 C 26.800 97.570,26.597 97.960,26.000 98.116 C 25.417 98.268,25.200 98.662,25.200 99.563 C 25.200 100.396,25.004 100.800,24.600 100.800 C 24.181 100.800,24.000 101.222,24.000 102.200 C 24.000 103.333,23.848 103.600,23.200 103.600 C 22.667 103.600,22.400 103.867,22.400 104.400 C 22.400 104.844,22.133 105.200,21.800 105.200 C 21.385 105.200,21.200 105.617,21.200 106.553 C 21.200 107.570,21.001 107.959,20.400 108.116 C 19.817 108.268,19.600 108.662,19.600 109.563 C 19.600 110.354,19.399 110.800,19.043 110.800 C 18.398 110.800,18.000 111.652,18.000 113.033 C 18.000 113.626,17.768 114.000,17.400 114.000 C 16.947 114.000,16.800 114.489,16.800 116.000 C 16.800 117.733,16.693 118.000,16.000 118.000 C 15.337 118.000,15.200 118.267,15.200 119.553 C 15.200 120.770,15.027 121.152,14.400 121.316 C 13.817 121.468,13.600 121.862,13.600 122.763 C 13.600 123.596,13.404 124.000,13.000 124.000 C 12.539 124.000,12.400 124.511,12.400 126.200 C 12.400 128.133,12.303 128.400,11.600 128.400 C 10.897 128.400,10.800 128.667,10.800 130.600 C 10.800 132.289,10.661 132.800,10.200 132.800 C 9.749 132.800,9.600 133.284,9.600 134.753 C 9.600 136.370,9.462 136.743,8.800 136.916 C 8.135 137.090,8.000 137.462,8.000 139.116 C 8.000 140.770,7.865 141.142,7.200 141.316 C 6.532 141.491,6.400 141.862,6.400 143.563 C 6.400 145.107,6.255 145.600,5.800 145.600 C 5.320 145.600,5.200 146.200,5.200 148.600 C 5.200 151.333,5.129 151.600,4.400 151.600 C 3.677 151.600,3.600 151.867,3.600 154.380 C 3.600 156.588,3.459 157.239,2.916 157.543 C 2.359 157.855,2.201 158.680,2.069 161.963 C 1.945 165.056,1.778 166.000,1.353 166.000 C 0.916 166.000,0.800 166.920,0.800 170.400 C 0.800 173.067,0.642 174.800,0.400 174.800 C 0.138 174.800,0.000 183.467,0.000 200.000 C 0.000 216.533,0.138 225.200,0.400 225.200 C 0.642 225.200,0.800 226.933,0.800 229.600 C 0.800 233.080,0.916 234.000,1.353 234.000 C 1.778 234.000,1.945 234.944,2.069 238.037 C 2.201 241.320,2.359 242.145,2.916 242.457 C 3.459 242.761,3.600 243.412,3.600 245.620 C 3.600 248.133,3.677 248.400,4.400 248.400 C 5.129 248.400,5.200 248.667,5.200 251.400 C 5.200 253.800,5.320 254.400,5.800 254.400 C 6.255 254.400,6.400 254.893,6.400 256.437 C 6.400 258.138,6.532 258.509,7.200 258.684 C 7.865 258.858,8.000 259.230,8.000 260.884 C 8.000 262.538,8.135 262.910,8.800 263.084 C 9.462 263.257,9.600 263.630,9.600 265.247 C 9.600 266.716,9.749 267.200,10.200 267.200 C 10.661 267.200,10.800 267.711,10.800 269.400 C 10.800 271.333,10.897 271.600,11.600 271.600 C 12.303 271.600,12.400 271.867,12.400 273.800 C 12.400 275.489,12.539 276.000,13.000 276.000 C 13.404 276.000,13.600 276.404,13.600 277.237 C 13.600 278.138,13.817 278.532,14.400 278.684 C 15.027 278.848,15.200 279.230,15.200 280.447 C 15.200 281.733,15.337 282.000,16.000 282.000 C 16.693 282.000,16.800 282.267,16.800 284.000 C 16.800 285.511,16.947 286.000,17.400 286.000 C 17.768 286.000,18.000 286.374,18.000 286.967 C 18.000 288.348,18.398 289.200,19.043 289.200 C 19.399 289.200,19.600 289.646,19.600 290.437 C 19.600 291.338,19.817 291.732,20.400 291.884 C 21.001 292.041,21.200 292.430,21.200 293.447 C 21.200 294.383,21.385 294.800,21.800 294.800 C 22.133 294.800,22.400 295.156,22.400 295.600 C 22.400 296.133,22.667 296.400,23.200 296.400 C 23.848 296.400,24.000 296.667,24.000 297.800 C 24.000 298.778,24.181 299.200,24.600 299.200 C 25.004 299.200,25.200 299.604,25.200 300.437 C 25.200 301.338,25.417 301.732,26.000 301.884 C 26.597 302.040,26.800 302.430,26.800 303.420 C 26.800 304.395,27.012 304.813,27.600 305.000 C 28.040 305.140,28.400 305.512,28.400 305.827 C 28.400 306.142,28.670 306.400,29.000 306.400 C 29.422 306.400,29.600 306.826,29.600 307.837 C 29.600 308.938,29.787 309.324,30.400 309.484 C 30.840 309.599,31.200 309.942,31.200 310.247 C 31.200 310.551,31.560 310.800,32.000 310.800 C 32.648 310.800,32.800 311.067,32.800 312.200 C 32.800 313.178,32.981 313.600,33.400 313.600 C 33.733 313.600,34.000 313.956,34.000 314.400 C 34.000 314.933,34.267 315.200,34.800 315.200 C 35.448 315.200,35.600 315.467,35.600 316.600 C 35.600 317.578,35.781 318.000,36.200 318.000 C 36.530 318.000,36.800 318.287,36.800 318.637 C 36.800 318.988,37.160 319.369,37.600 319.484 C 38.043 319.600,38.400 320.030,38.400 320.447 C 38.400 320.933,38.683 321.200,39.200 321.200 C 39.848 321.200,40.000 321.467,40.000 322.600 C 40.000 323.578,40.181 324.000,40.600 324.000 C 40.930 324.000,41.200 324.270,41.200 324.600 C 41.200 324.933,41.556 325.200,42.000 325.200 C 42.533 325.200,42.800 325.467,42.800 326.000 C 42.800 326.533,43.067 326.800,43.600 326.800 C 44.224 326.800,44.400 327.067,44.400 328.013 C 44.400 328.721,44.649 329.321,45.000 329.455 C 45.330 329.582,45.600 329.953,45.600 330.280 C 45.600 330.607,45.960 330.969,46.400 331.084 C 46.840 331.199,47.200 331.548,47.200 331.859 C 47.200 332.170,47.470 332.529,47.800 332.655 C 48.130 332.782,48.400 333.136,48.400 333.443 C 48.400 333.749,48.760 334.000,49.200 334.000 C 49.733 334.000,50.000 334.267,50.000 334.800 C 50.000 335.333,50.267 335.600,50.800 335.600 C 51.244 335.600,51.600 335.867,51.600 336.200 C 51.600 336.530,51.870 336.800,52.200 336.800 C 52.533 336.800,52.800 337.156,52.800 337.600 C 52.800 338.133,53.067 338.400,53.600 338.400 C 54.133 338.400,54.400 338.667,54.400 339.200 C 54.400 339.733,54.667 340.000,55.200 340.000 C 55.644 340.000,56.000 340.267,56.000 340.600 C 56.000 340.930,56.270 341.200,56.600 341.200 C 56.933 341.200,57.200 341.556,57.200 342.000 C 57.200 342.533,57.467 342.800,58.000 342.800 C 58.533 342.800,58.800 343.067,58.800 343.600 C 58.800 344.044,59.067 344.400,59.400 344.400 C 59.730 344.400,60.000 344.670,60.000 345.000 C 60.000 345.333,60.356 345.600,60.800 345.600 C 61.333 345.600,61.600 345.867,61.600 346.400 C 61.600 346.933,61.867 347.200,62.400 347.200 C 62.844 347.200,63.200 347.467,63.200 347.800 C 63.200 348.130,63.470 348.400,63.800 348.400 C 64.133 348.400,64.400 348.756,64.400 349.200 C 64.400 349.733,64.667 350.000,65.200 350.000 C 65.733 350.000,66.000 350.267,66.000 350.800 C 66.000 351.333,66.267 351.600,66.800 351.600 C 67.244 351.600,67.600 351.867,67.600 352.200 C 67.600 352.530,67.870 352.800,68.200 352.800 C 68.530 352.800,68.800 353.076,68.800 353.413 C 68.800 353.749,69.115 354.141,69.500 354.282 C 69.885 354.424,70.344 354.778,70.520 355.070 C 70.696 355.361,71.371 355.600,72.020 355.600 C 72.933 355.600,73.200 355.781,73.200 356.400 C 73.200 356.933,73.467 357.200,74.000 357.200 C 74.533 357.200,74.800 357.467,74.800 358.000 C 74.800 358.444,75.067 358.800,75.400 358.800 C 75.730 358.800,76.000 359.070,76.000 359.400 C 76.000 359.819,76.422 360.000,77.400 360.000 C 78.414 360.000,78.800 360.176,78.800 360.637 C 78.800 360.988,79.160 361.369,79.600 361.484 C 80.040 361.599,80.400 361.959,80.400 362.284 C 80.400 362.609,80.760 362.969,81.200 363.084 C 81.640 363.199,82.000 363.542,82.000 363.847 C 82.000 364.212,82.475 364.400,83.400 364.400 C 84.533 364.400,84.800 364.552,84.800 365.200 C 84.800 365.733,85.067 366.000,85.600 366.000 C 86.044 366.000,86.400 366.267,86.400 366.600 C 86.400 367.019,86.822 367.200,87.800 367.200 C 88.904 367.200,89.200 367.359,89.200 367.953 C 89.200 368.370,89.557 368.800,90.000 368.916 C 90.440 369.031,90.800 369.412,90.800 369.763 C 90.800 370.224,91.186 370.400,92.200 370.400 C 93.178 370.400,93.600 370.581,93.600 371.000 C 93.600 371.330,93.858 371.600,94.173 371.600 C 94.488 371.600,94.860 371.960,95.000 372.400 C 95.189 372.995,95.605 373.200,96.627 373.200 C 97.733 373.200,98.000 373.355,98.000 374.000 C 98.000 374.648,98.267 374.800,99.400 374.800 C 100.378 374.800,100.800 374.981,100.800 375.400 C 100.800 375.819,101.222 376.000,102.200 376.000 C 103.333 376.000,103.600 376.152,103.600 376.800 C 103.600 377.333,103.867 377.600,104.400 377.600 C 104.844 377.600,105.200 377.867,105.200 378.200 C 105.200 378.619,105.622 378.800,106.600 378.800 C 107.733 378.800,108.000 378.952,108.000 379.600 C 108.000 380.248,108.267 380.400,109.400 380.400 C 110.330 380.400,110.800 380.587,110.800 380.957 C 110.800 381.602,111.652 382.000,113.033 382.000 C 113.626 382.000,114.000 382.232,114.000 382.600 C 114.000 383.053,114.489 383.200,116.000 383.200 C 117.733 383.200,118.000 383.307,118.000 384.000 C 118.000 384.663,118.267 384.800,119.553 384.800 C 120.770 384.800,121.152 384.973,121.316 385.600 C 121.468 386.183,121.862 386.400,122.763 386.400 C 123.596 386.400,124.000 386.596,124.000 387.000 C 124.000 387.461,124.511 387.600,126.200 387.600 C 128.133 387.600,128.400 387.697,128.400 388.400 C 128.400 389.103,128.667 389.200,130.600 389.200 C 132.289 389.200,132.800 389.339,132.800 389.800 C 132.800 390.251,133.284 390.400,134.753 390.400 C 136.370 390.400,136.743 390.538,136.916 391.200 C 137.090 391.865,137.462 392.000,139.116 392.000 C 140.770 392.000,141.142 392.135,141.316 392.800 C 141.491 393.468,141.862 393.600,143.563 393.600 C 145.107 393.600,145.600 393.745,145.600 394.200 C 145.600 394.680,146.200 394.800,148.600 394.800 C 151.333 394.800,151.600 394.871,151.600 395.600 C 151.600 396.323,151.867 396.400,154.380 396.400 C 156.612 396.400,157.237 396.538,157.552 397.100 C 157.875 397.679,158.642 397.824,161.971 397.937 C 165.101 398.044,166.000 398.200,166.000 398.637 C 166.000 399.087,166.886 399.200,170.400 399.200 C 173.067 399.200,174.800 399.358,174.800 399.600 C 174.800 399.862,183.467 400.000,200.000 400.000 C 216.533 400.000,225.200 399.862,225.200 399.600 C 225.200 399.358,226.933 399.200,229.600 399.200 C 233.114 399.200,234.000 399.087,234.000 398.637 C 234.000 398.200,234.899 398.044,238.029 397.937 C 241.358 397.824,242.125 397.679,242.448 397.100 C 242.763 396.538,243.388 396.400,245.620 396.400 C 248.133 396.400,248.400 396.323,248.400 395.600 C 248.400 394.871,248.667 394.800,251.400 394.800 C 253.800 394.800,254.400 394.680,254.400 394.200 C 254.400 393.745,254.893 393.600,256.437 393.600 C 258.138 393.600,258.509 393.468,258.684 392.800 C 258.858 392.135,259.230 392.000,260.884 392.000 C 262.538 392.000,262.910 391.865,263.084 391.200 C 263.257 390.538,263.630 390.400,265.247 390.400 C 266.716 390.400,267.200 390.251,267.200 389.800 C 267.200 389.339,267.711 389.200,269.400 389.200 C 271.333 389.200,271.600 389.103,271.600 388.400 C 271.600 387.697,271.867 387.600,273.800 387.600 C 275.489 387.600,276.000 387.461,276.000 387.000 C 276.000 386.581,276.422 386.400,277.400 386.400 C 278.533 386.400,278.800 386.248,278.800 385.600 C 278.800 384.933,279.067 384.800,280.400 384.800 C 281.733 384.800,282.000 384.667,282.000 384.000 C 282.000 383.307,282.267 383.200,284.000 383.200 C 285.511 383.200,286.000 383.053,286.000 382.600 C 286.000 382.232,286.374 382.000,286.967 382.000 C 288.348 382.000,289.200 381.602,289.200 380.957 C 289.200 380.587,289.670 380.400,290.600 380.400 C 291.733 380.400,292.000 380.248,292.000 379.600 C 292.000 378.952,292.267 378.800,293.400 378.800 C 294.378 378.800,294.800 378.619,294.800 378.200 C 294.800 377.867,295.156 377.600,295.600 377.600 C 296.133 377.600,296.400 377.333,296.400 376.800 C 296.400 376.152,296.667 376.000,297.800 376.000 C 298.778 376.000,299.200 375.819,299.200 375.400 C 299.200 374.981,299.622 374.800,300.600 374.800 C 301.733 374.800,302.000 374.648,302.000 374.000 C 302.000 373.355,302.267 373.200,303.373 373.200 C 304.395 373.200,304.811 372.995,305.000 372.400 C 305.140 371.960,305.512 371.600,305.827 371.600 C 306.142 371.600,306.400 371.330,306.400 371.000 C 306.400 370.578,306.826 370.400,307.837 370.400 C 308.938 370.400,309.324 370.213,309.484 369.600 C 309.599 369.160,309.942 368.800,310.247 368.800 C 310.551 368.800,310.800 368.440,310.800 368.000 C 310.800 367.352,311.067 367.200,312.200 367.200 C 313.178 367.200,313.600 367.019,313.600 366.600 C 313.600 366.267,313.956 366.000,314.400 366.000 C 314.933 366.000,315.200 365.733,315.200 365.200 C 315.200 364.552,315.467 364.400,316.600 364.400 C 317.525 364.400,318.000 364.212,318.000 363.847 C 318.000 363.542,318.360 363.199,318.800 363.084 C 319.240 362.969,319.600 362.588,319.600 362.237 C 319.600 361.867,319.935 361.600,320.400 361.600 C 320.933 361.600,321.200 361.333,321.200 360.800 C 321.200 360.152,321.467 360.000,322.600 360.000 C 323.578 360.000,324.000 359.819,324.000 359.400 C 324.000 359.070,324.270 358.800,324.600 358.800 C 324.933 358.800,325.200 358.444,325.200 358.000 C 325.200 357.467,325.467 357.200,326.000 357.200 C 326.533 357.200,326.800 356.933,326.800 356.400 C 326.800 355.776,327.067 355.600,328.013 355.600 C 328.683 355.600,329.321 355.350,329.440 355.039 C 329.559 354.731,330.003 354.388,330.428 354.277 C 330.852 354.166,331.200 353.788,331.200 353.437 C 331.200 353.067,331.535 352.800,332.000 352.800 C 332.444 352.800,332.800 352.533,332.800 352.200 C 332.800 351.870,333.070 351.600,333.400 351.600 C 333.733 351.600,334.000 351.244,334.000 350.800 C 334.000 350.267,334.267 350.000,334.800 350.000 C 335.333 350.000,335.600 349.733,335.600 349.200 C 335.600 348.756,335.867 348.400,336.200 348.400 C 336.530 348.400,336.800 348.130,336.800 347.800 C 336.800 347.467,337.156 347.200,337.600 347.200 C 338.133 347.200,338.400 346.933,338.400 346.400 C 338.400 345.867,338.667 345.600,339.200 345.600 C 339.644 345.600,340.000 345.333,340.000 345.000 C 340.000 344.670,340.270 344.400,340.600 344.400 C 340.933 344.400,341.200 344.044,341.200 343.600 C 341.200 343.067,341.467 342.800,342.000 342.800 C 342.533 342.800,342.800 342.533,342.800 342.000 C 342.800 341.467,343.067 341.200,343.600 341.200 C 344.044 341.200,344.400 340.933,344.400 340.600 C 344.400 340.270,344.670 340.000,345.000 340.000 C 345.333 340.000,345.600 339.644,345.600 339.200 C 345.600 338.667,345.867 338.400,346.400 338.400 C 346.933 338.400,347.200 338.133,347.200 337.600 C 347.200 337.156,347.467 336.800,347.800 336.800 C 348.130 336.800,348.400 336.530,348.400 336.200 C 348.400 335.867,348.756 335.600,349.200 335.600 C 349.733 335.600,350.000 335.333,350.000 334.800 C 350.000 334.267,350.267 334.000,350.800 334.000 C 351.244 334.000,351.600 333.733,351.600 333.400 C 351.600 333.070,351.870 332.800,352.200 332.800 C 352.530 332.800,352.800 332.461,352.800 332.047 C 352.800 331.630,353.157 331.200,353.600 331.084 C 354.040 330.969,354.400 330.607,354.400 330.280 C 354.400 329.953,354.670 329.582,355.000 329.455 C 355.351 329.321,355.600 328.721,355.600 328.013 C 355.600 327.067,355.776 326.800,356.400 326.800 C 356.933 326.800,357.200 326.533,357.200 326.000 C 357.200 325.467,357.467 325.200,358.000 325.200 C 358.444 325.200,358.800 324.933,358.800 324.600 C 358.800 324.270,359.070 324.000,359.400 324.000 C 359.819 324.000,360.000 323.578,360.000 322.600 C 360.000 321.467,360.152 321.200,360.800 321.200 C 361.317 321.200,361.600 320.933,361.600 320.447 C 361.600 320.030,361.957 319.600,362.400 319.484 C 362.840 319.369,363.200 318.988,363.200 318.637 C 363.200 318.287,363.470 318.000,363.800 318.000 C 364.219 318.000,364.400 317.578,364.400 316.600 C 364.400 315.467,364.552 315.200,365.200 315.200 C 365.733 315.200,366.000 314.933,366.000 314.400 C 366.000 313.956,366.267 313.600,366.600 313.600 C 367.019 313.600,367.200 313.178,367.200 312.200 C 367.200 311.067,367.352 310.800,368.000 310.800 C 368.440 310.800,368.800 310.551,368.800 310.247 C 368.800 309.942,369.160 309.599,369.600 309.484 C 370.213 309.324,370.400 308.938,370.400 307.837 C 370.400 306.826,370.578 306.400,371.000 306.400 C 371.330 306.400,371.600 306.142,371.600 305.827 C 371.600 305.512,371.960 305.140,372.400 305.000 C 372.995 304.811,373.200 304.395,373.200 303.373 C 373.200 302.267,373.355 302.000,374.000 302.000 C 374.648 302.000,374.800 301.733,374.800 300.600 C 374.800 299.622,374.981 299.200,375.400 299.200 C 375.819 299.200,376.000 298.778,376.000 297.800 C 376.000 296.667,376.152 296.400,376.800 296.400 C 377.333 296.400,377.600 296.133,377.600 295.600 C 377.600 295.156,377.867 294.800,378.200 294.800 C 378.619 294.800,378.800 294.378,378.800 293.400 C 378.800 292.267,378.952 292.000,379.600 292.000 C 380.248 292.000,380.400 291.733,380.400 290.600 C 380.400 289.670,380.587 289.200,380.957 289.200 C 381.602 289.200,382.000 288.348,382.000 286.967 C 382.000 286.374,382.232 286.000,382.600 286.000 C 383.053 286.000,383.200 285.511,383.200 284.000 C 383.200 282.267,383.307 282.000,384.000 282.000 C 384.667 282.000,384.800 281.733,384.800 280.400 C 384.800 279.067,384.933 278.800,385.600 278.800 C 386.248 278.800,386.400 278.533,386.400 277.400 C 386.400 276.422,386.581 276.000,387.000 276.000 C 387.461 276.000,387.600 275.489,387.600 273.800 C 387.600 271.867,387.697 271.600,388.400 271.600 C 389.103 271.600,389.200 271.333,389.200 269.400 C 389.200 267.711,389.339 267.200,389.800 267.200 C 390.251 267.200,390.400 266.716,390.400 265.247 C 390.400 263.630,390.538 263.257,391.200 263.084 C 391.865 262.910,392.000 262.538,392.000 260.884 C 392.000 259.230,392.135 258.858,392.800 258.684 C 393.468 258.509,393.600 258.138,393.600 256.437 C 393.600 254.893,393.745 254.400,394.200 254.400 C 394.680 254.400,394.800 253.800,394.800 251.400 C 394.800 248.667,394.871 248.400,395.600 248.400 C 396.323 248.400,396.400 248.133,396.400 245.620 C 396.400 243.388,396.538 242.763,397.100 242.448 C 397.679 242.125,397.824 241.358,397.937 238.029 C 398.044 234.899,398.200 234.000,398.637 234.000 C 399.087 234.000,399.200 233.114,399.200 229.600 C 399.200 226.933,399.358 225.200,399.600 225.200 C 399.862 225.200,400.000 216.533,400.000 200.000 C 400.000 183.467,399.862 174.800,399.600 174.800 C 399.358 174.800,399.200 173.067,399.200 170.400 C 399.200 166.886,399.087 166.000,398.637 166.000 C 398.200 166.000,398.044 165.101,397.937 161.971 C 397.824 158.642,397.679 157.875,397.100 157.552 C 396.538 157.237,396.400 156.612,396.400 154.380 C 396.400 151.867,396.323 151.600,395.600 151.600 C 394.871 151.600,394.800 151.333,394.800 148.600 C 394.800 146.200,394.680 145.600,394.200 145.600 C 393.745 145.600,393.600 145.107,393.600 143.563 C 393.600 141.862,393.468 141.491,392.800 141.316 C 392.135 141.142,392.000 140.770,392.000 139.116 C 392.000 137.462,391.865 137.090,391.200 136.916 C 390.538 136.743,390.400 136.370,390.400 134.753 C 390.400 133.284,390.251 132.800,389.800 132.800 C 389.339 132.800,389.200 132.289,389.200 130.600 C 389.200 128.667,389.103 128.400,388.400 128.400 C 387.697 128.400,387.600 128.133,387.600 126.200 C 387.600 124.511,387.461 124.000,387.000 124.000 C 386.596 124.000,386.400 123.596,386.400 122.763 C 386.400 121.862,386.183 121.468,385.600 121.316 C 384.973 121.152,384.800 120.770,384.800 119.553 C 384.800 118.267,384.663 118.000,384.000 118.000 C 383.307 118.000,383.200 117.733,383.200 116.000 C 383.200 114.489,383.053 114.000,382.600 114.000 C 382.232 114.000,382.000 113.626,382.000 113.033 C 382.000 111.652,381.602 110.800,380.957 110.800 C 380.587 110.800,380.400 110.330,380.400 109.400 C 380.400 108.267,380.248 108.000,379.600 108.000 C 378.952 108.000,378.800 107.733,378.800 106.600 C 378.800 105.622,378.619 105.200,378.200 105.200 C 377.867 105.200,377.600 104.844,377.600 104.400 C 377.600 103.867,377.333 103.600,376.800 103.600 C 376.152 103.600,376.000 103.333,376.000 102.200 C 376.000 101.222,375.819 100.800,375.400 100.800 C 374.981 100.800,374.800 100.378,374.800 99.400 C 374.800 98.267,374.648 98.000,374.000 98.000 C 373.355 98.000,373.200 97.733,373.200 96.627 C 373.200 95.605,372.995 95.189,372.400 95.000 C 371.960 94.860,371.600 94.488,371.600 94.173 C 371.600 93.858,371.330 93.600,371.000 93.600 C 370.581 93.600,370.400 93.178,370.400 92.200 C 370.400 91.186,370.224 90.800,369.763 90.800 C 369.412 90.800,369.031 90.440,368.916 90.000 C 368.800 89.557,368.370 89.200,367.953 89.200 C 367.359 89.200,367.200 88.904,367.200 87.800 C 367.200 86.822,367.019 86.400,366.600 86.400 C 366.267 86.400,366.000 86.044,366.000 85.600 C 366.000 85.067,365.733 84.800,365.200 84.800 C 364.552 84.800,364.400 84.533,364.400 83.400 C 364.400 82.475,364.212 82.000,363.847 82.000 C 363.542 82.000,363.199 81.640,363.084 81.200 C 362.969 80.760,362.609 80.400,362.284 80.400 C 361.959 80.400,361.599 80.040,361.484 79.600 C 361.369 79.160,360.988 78.800,360.637 78.800 C 360.176 78.800,360.000 78.414,360.000 77.400 C 360.000 76.422,359.819 76.000,359.400 76.000 C 359.070 76.000,358.800 75.730,358.800 75.400 C 358.800 75.067,358.444 74.800,358.000 74.800 C 357.467 74.800,357.200 74.533,357.200 74.000 C 357.200 73.467,356.933 73.200,356.400 73.200 C 355.776 73.200,355.600 72.933,355.600 71.987 C 355.600 71.317,355.350 70.679,355.039 70.560 C 354.731 70.441,354.388 69.997,354.277 69.572 C 354.166 69.148,353.788 68.800,353.437 68.800 C 353.087 68.800,352.800 68.530,352.800 68.200 C 352.800 67.870,352.530 67.600,352.200 67.600 C 351.867 67.600,351.600 67.244,351.600 66.800 C 351.600 66.267,351.333 66.000,350.800 66.000 C 350.267 66.000,350.000 65.733,350.000 65.200 C 350.000 64.667,349.733 64.400,349.200 64.400 C 348.756 64.400,348.400 64.133,348.400 63.800 C 348.400 63.470,348.130 63.200,347.800 63.200 C 347.467 63.200,347.200 62.844,347.200 62.400 C 347.200 61.867,346.933 61.600,346.400 61.600 C 345.867 61.600,345.600 61.333,345.600 60.800 C 345.600 60.356,345.333 60.000,345.000 60.000 C 344.670 60.000,344.400 59.730,344.400 59.400 C 344.400 59.067,344.044 58.800,343.600 58.800 C 343.067 58.800,342.800 58.533,342.800 58.000 C 342.800 57.467,342.533 57.200,342.000 57.200 C 341.556 57.200,341.200 56.933,341.200 56.600 C 341.200 56.270,340.930 56.000,340.600 56.000 C 340.267 56.000,340.000 55.644,340.000 55.200 C 340.000 54.667,339.733 54.400,339.200 54.400 C 338.667 54.400,338.400 54.133,338.400 53.600 C 338.400 53.067,338.133 52.800,337.600 52.800 C 337.156 52.800,336.800 52.533,336.800 52.200 C 336.800 51.870,336.530 51.600,336.200 51.600 C 335.867 51.600,335.600 51.244,335.600 50.800 C 335.600 50.267,335.333 50.000,334.800 50.000 C 334.267 50.000,334.000 49.733,334.000 49.200 C 334.000 48.760,333.749 48.400,333.443 48.400 C 333.136 48.400,332.782 48.130,332.655 47.800 C 332.529 47.470,332.149 47.200,331.813 47.200 C 331.476 47.200,331.200 46.924,331.200 46.587 C 331.200 46.251,330.885 45.859,330.500 45.718 C 330.115 45.576,329.656 45.222,329.480 44.930 C 329.304 44.639,328.629 44.400,327.980 44.400 C 327.067 44.400,326.800 44.219,326.800 43.600 C 326.800 43.067,326.533 42.800,326.000 42.800 C 325.467 42.800,325.200 42.533,325.200 42.000 C 325.200 41.556,324.933 41.200,324.600 41.200 C 324.270 41.200,324.000 40.930,324.000 40.600 C 324.000 40.181,323.578 40.000,322.600 40.000 C 321.467 40.000,321.200 39.848,321.200 39.200 C 321.200 38.667,320.933 38.400,320.400 38.400 C 319.935 38.400,319.600 38.133,319.600 37.763 C 319.600 37.412,319.240 37.031,318.800 36.916 C 318.360 36.801,318.000 36.458,318.000 36.153 C 318.000 35.788,317.525 35.600,316.600 35.600 C 315.467 35.600,315.200 35.448,315.200 34.800 C 315.200 34.267,314.933 34.000,314.400 34.000 C 313.956 34.000,313.600 33.733,313.600 33.400 C 313.600 32.981,313.178 32.800,312.200 32.800 C 311.067 32.800,310.800 32.648,310.800 32.000 C 310.800 31.560,310.551 31.200,310.247 31.200 C 309.942 31.200,309.599 30.840,309.484 30.400 C 309.324 29.787,308.938 29.600,307.837 29.600 C 306.826 29.600,306.400 29.422,306.400 29.000 C 306.400 28.670,306.142 28.400,305.827 28.400 C 305.512 28.400,305.140 28.040,305.000 27.600 C 304.813 27.012,304.395 26.800,303.420 26.800 C 302.430 26.800,302.040 26.597,301.884 26.000 C 301.732 25.417,301.338 25.200,300.437 25.200 C 299.604 25.200,299.200 25.004,299.200 24.600 C 299.200 24.181,298.778 24.000,297.800 24.000 C 296.667 24.000,296.400 23.848,296.400 23.200 C 296.400 22.667,296.133 22.400,295.600 22.400 C 295.156 22.400,294.800 22.133,294.800 21.800 C 294.800 21.385,294.383 21.200,293.447 21.200 C 292.430 21.200,292.041 21.001,291.884 20.400 C 291.732 19.817,291.338 19.600,290.437 19.600 C 289.646 19.600,289.200 19.399,289.200 19.043 C 289.200 18.398,288.348 18.000,286.967 18.000 C 286.374 18.000,286.000 17.768,286.000 17.400 C 286.000 16.947,285.511 16.800,284.000 16.800 C 282.267 16.800,282.000 16.693,282.000 16.000 C 282.000 15.337,281.733 15.200,280.447 15.200 C 279.230 15.200,278.848 15.027,278.684 14.400 C 278.532 13.817,278.138 13.600,277.237 13.600 C 276.404 13.600,276.000 13.404,276.000 13.000 C 276.000 12.539,275.489 12.400,273.800 12.400 C 271.867 12.400,271.600 12.303,271.600 11.600 C 271.600 10.897,271.333 10.800,269.400 10.800 C 267.711 10.800,267.200 10.661,267.200 10.200 C 267.200 9.749,266.716 9.600,265.247 9.600 C 263.630 9.600,263.257 9.462,263.084 8.800 C 262.910 8.135,262.538 8.000,260.884 8.000 C 259.230 8.000,258.858 7.865,258.684 7.200 C 258.509 6.532,258.138 6.400,256.437 6.400 C 254.893 6.400,254.400 6.255,254.400 5.800 C 254.400 5.320,253.800 5.200,251.400 5.200 C 248.667 5.200,248.400 5.129,248.400 4.400 C 248.400 3.677,248.133 3.600,245.620 3.600 C 243.412 3.600,242.761 3.459,242.457 2.916 C 242.145 2.359,241.320 2.201,238.037 2.069 C 234.944 1.945,234.000 1.778,234.000 1.353 C 234.000 0.916,233.080 0.800,229.600 0.800 C 226.933 0.800,225.200 0.642,225.200 0.400 C 225.200 0.138,216.533 0.000,200.000 0.000 C 183.467 0.000,174.800 0.138,174.800 0.400 M197.600 106.963 C 201.428 107.650,204.155 108.439,206.000 109.391 C 206.550 109.675,207.573 110.030,208.272 110.180 C 208.972 110.329,209.759 110.710,210.021 111.026 C 210.283 111.342,210.701 111.610,210.949 111.623 C 211.197 111.636,212.030 112.086,212.800 112.625 C 213.570 113.163,214.852 114.040,215.649 114.574 C 220.118 117.570,225.202 124.184,228.121 130.800 C 231.979 139.544,232.000 155.697,228.165 164.260 C 227.854 164.954,227.600 165.642,227.600 165.791 C 227.600 166.914,223.176 173.378,220.328 176.417 C 217.039 179.925,210.006 184.801,207.302 185.447 C 206.696 185.592,205.950 185.910,205.644 186.155 C 203.664 187.741,194.349 188.972,187.000 188.618 C 175.360 188.059,166.255 183.553,158.200 174.364 C 156.827 172.798,154.800 169.889,154.800 169.485 C 154.800 169.335,154.274 168.354,153.630 167.306 C 152.987 166.258,152.332 164.860,152.175 164.200 C 152.018 163.540,151.721 162.785,151.515 162.523 C 150.021 160.621,148.731 147.139,149.533 141.800 C 150.162 137.610,150.843 134.321,151.314 133.200 C 152.313 130.825,153.123 128.198,152.945 127.911 C 152.720 127.548,134.369 127.483,133.433 127.843 C 132.864 128.061,132.800 131.020,132.800 157.200 C 132.800 183.380,132.736 186.339,132.167 186.557 C 130.847 187.064,111.265 186.827,110.924 186.300 C 110.746 186.025,110.510 172.750,110.400 156.800 L 110.200 127.800 99.000 127.584 C 92.840 127.465,87.755 127.330,87.700 127.284 C 87.057 126.744,87.699 108.775,88.374 108.414 C 89.850 107.624,154.386 107.863,155.269 108.662 C 155.914 109.246,156.000 110.016,156.000 115.213 C 156.000 122.079,156.381 123.035,158.235 120.831 C 160.327 118.345,160.636 118.032,163.000 115.992 C 164.320 114.854,166.030 113.575,166.800 113.150 C 167.570 112.725,168.740 112.025,169.400 111.593 C 170.060 111.162,170.870 110.690,171.200 110.545 C 180.442 106.487,188.708 105.365,197.600 106.963 M312.069 108.662 C 312.647 109.185,312.799 109.918,312.797 112.162 C 312.795 115.169,312.540 115.776,310.200 118.362 C 309.540 119.091,308.572 120.163,308.049 120.744 C 307.526 121.325,306.443 122.520,305.643 123.400 C 304.843 124.280,301.581 127.874,298.394 131.386 C 295.207 134.898,291.340 139.136,289.800 140.802 C 288.260 142.469,285.470 145.520,283.600 147.583 C 281.730 149.646,279.505 152.068,278.656 152.967 C 275.738 156.053,273.200 159.242,273.200 159.821 C 273.200 160.318,275.902 160.400,292.371 160.400 C 309.363 160.400,311.615 160.472,312.179 161.036 C 312.729 161.586,312.801 162.870,312.708 170.525 L 312.600 179.377 311.600 179.883 C 310.538 180.419,238.260 180.666,235.100 180.143 L 233.600 179.895 233.600 176.304 L 233.600 172.713 235.670 170.057 C 236.809 168.596,238.114 167.026,238.570 166.569 C 239.027 166.112,240.210 164.767,241.200 163.581 C 243.024 161.394,247.435 156.230,249.042 154.400 C 250.981 152.192,257.473 144.599,258.581 143.245 C 259.230 142.450,260.943 140.450,262.387 138.800 C 268.406 131.922,270.105 129.609,269.593 128.991 C 269.185 128.500,266.341 128.392,251.454 128.304 L 233.800 128.200 233.693 118.608 C 233.633 113.332,233.673 108.787,233.780 108.508 C 234.118 107.626,311.092 107.778,312.069 108.662 M185.689 127.598 C 170.871 130.748,166.958 155.392,179.787 164.775 C 191.805 173.566,206.941 165.479,208.564 149.400 C 208.878 146.291,207.512 138.358,206.541 137.649 C 206.353 137.512,205.840 136.680,205.400 135.800 C 202.270 129.539,193.576 125.922,185.689 127.598 M178.069 191.062 C 178.761 191.689,178.800 192.975,178.807 215.362 C 178.816 245.274,179.112 246.808,185.455 249.809 C 192.255 253.026,201.536 250.344,204.719 244.242 L 205.785 242.200 205.992 216.618 L 206.200 191.036 207.200 190.758 C 209.797 190.036,226.648 190.369,227.361 191.157 C 227.996 191.859,228.035 193.886,227.902 219.257 L 227.757 246.600 226.754 249.200 C 223.351 258.024,215.774 266.528,209.800 268.227 C 209.360 268.352,208.460 268.701,207.800 269.002 C 196.666 274.080,179.479 272.180,169.348 264.751 C 165.574 261.983,159.600 254.648,159.600 252.781 C 159.600 252.554,159.264 251.700,158.852 250.884 C 157.109 247.423,157.008 245.606,157.004 217.618 L 157.000 191.036 158.000 190.758 C 160.341 190.107,177.297 190.363,178.069 191.062 M150.308 191.134 C 150.699 191.383,150.791 193.598,150.708 200.828 L 150.600 210.200 134.221 210.305 C 121.728 210.384,117.767 210.527,117.527 210.905 C 117.058 211.643,117.134 222.329,117.614 223.226 C 118.011 223.967,118.586 224.000,131.165 224.000 C 141.828 224.000,144.388 224.104,144.759 224.550 C 145.079 224.936,145.183 227.785,145.108 234.050 L 145.000 243.000 131.634 243.105 C 122.585 243.177,118.096 243.354,117.734 243.654 C 117.309 244.007,117.200 246.691,117.200 256.806 C 117.200 268.025,117.126 269.543,116.567 269.757 C 115.297 270.245,96.188 270.028,95.680 269.520 C 94.854 268.694,94.999 192.258,95.829 191.429 C 96.521 190.736,149.231 190.451,150.308 191.134 M312.173 191.430 C 312.741 191.998,312.793 198.006,312.701 253.130 L 312.600 314.200 302.800 314.200 L 293.000 314.200 292.800 302.800 L 292.600 291.400 263.400 291.200 L 234.200 291.000 234.093 280.567 L 233.987 270.134 235.012 269.667 C 235.763 269.325,243.629 269.200,264.419 269.200 L 292.800 269.200 292.800 241.243 C 292.800 216.118,292.736 213.261,292.167 213.043 C 290.828 212.529,280.517 212.777,280.054 213.334 C 279.754 213.696,279.577 218.185,279.505 227.234 L 279.400 240.600 270.800 240.713 C 266.070 240.775,261.795 240.727,261.300 240.605 L 260.400 240.385 260.400 227.035 C 260.400 214.719,260.346 213.659,259.700 213.343 C 259.315 213.154,253.330 212.910,246.400 212.800 L 233.800 212.600 233.693 202.028 C 233.610 193.836,233.701 191.383,234.093 191.134 C 235.176 190.447,311.479 190.736,312.173 191.430 " stroke="none" fill="#141414" fill-rule="evenodd"></path></g></svg>