<svg id="svg" version="1.1" xmlns="http://www.w3.org/2000/svg" xmlns:xlink="http://www.w3.org/1999/xlink" width="400" height="400" viewBox="0, 0, 400,400"><g id="svgg"><path id="path0" d="M244.375 96.014 C 221.283 98.276,202.386 115.303,197.775 138.000 C 196.429 144.627,196.489 154.008,197.913 159.688 C 198.141 160.597,193.310 160.324,183.250 158.860 C 148.567 153.814,114.952 135.212,92.247 108.500 C 89.246 104.969,89.748 105.012,88.177 108.152 C 76.748 130.981,83.404 159.323,103.649 174.032 C 104.804 174.871,105.750 175.583,105.750 175.612 C 105.750 175.730,102.724 175.453,100.125 175.097 C 95.057 174.403,89.560 172.743,84.829 170.478 C 83.418 169.803,82.191 169.250,82.102 169.250 C 82.013 169.250,82.019 170.459,82.114 171.938 C 83.698 196.395,98.781 214.576,122.875 221.070 L 124.125 221.407 122.250 221.829 C 115.664 223.310,106.037 223.538,101.058 222.331 L 100.490 222.193 101.141 224.034 C 107.902 243.176,125.618 256.711,146.370 258.590 L 149.615 258.884 146.995 260.787 C 131.720 271.884,115.316 278.310,96.250 280.667 C 92.107 281.179,77.419 281.294,73.908 280.842 C 71.558 280.540,71.465 280.442,76.250 283.320 C 124.318 312.237,188.479 311.046,234.875 280.376 C 275.636 253.431,301.181 206.190,301.927 156.374 L 302.058 147.623 303.590 146.499 C 311.924 140.385,326.524 124.957,327.956 120.753 C 328.000 120.622,326.832 121.020,325.360 121.637 C 318.277 124.604,308.930 127.162,300.875 128.338 C 298.095 128.744,297.853 128.718,298.978 128.136 C 306.619 124.185,316.106 112.695,320.091 102.564 C 321.270 99.568,321.269 99.566,319.438 100.621 C 311.730 105.062,301.811 109.009,292.745 111.244 C 287.564 112.521,288.049 112.587,285.589 110.259 C 274.587 99.844,259.281 94.554,244.375 96.014 " stroke="none" fill="#fbfbfb" fill-rule="evenodd"></path><path id="path1" d="M187.125 0.264 C 86.464 7.684,9.466 83.676,0.449 184.500 C 0.239 186.850,0.125 192.302,0.125 200.000 C 0.125 326.903,115.738 421.284,240.250 396.025 C 348.192 374.128,418.027 268.205,396.025 159.750 C 378.452 73.125,307.043 9.511,217.375 0.603 C 212.695 0.138,191.980 -0.094,187.125 0.264 M254.144 96.016 C 266.032 97.173,277.024 102.152,285.589 110.259 C 288.049 112.587,287.564 112.521,292.745 111.244 C 301.811 109.009,311.730 105.062,319.438 100.621 C 321.269 99.566,321.270 99.568,320.091 102.564 C 316.106 112.695,306.619 124.185,298.978 128.136 C 297.853 128.718,298.095 128.744,300.875 128.338 C 308.930 127.162,318.277 124.604,325.360 121.637 C 326.832 121.020,328.000 120.622,327.956 120.753 C 326.524 124.957,311.924 140.385,303.590 146.499 L 302.058 147.623 301.927 156.374 C 301.181 206.190,275.636 253.431,234.875 280.376 C 188.479 311.046,124.318 312.237,76.250 283.320 C 71.465 280.442,71.558 280.540,73.908 280.842 C 77.419 281.294,92.107 281.179,96.250 280.667 C 115.316 278.310,131.720 271.884,146.995 260.787 L 149.615 258.884 146.370 258.590 C 125.618 256.711,107.902 243.176,101.141 224.034 L 100.490 222.193 101.058 222.331 C 106.037 223.538,115.664 223.310,122.250 221.829 L 124.125 221.407 122.875 221.070 C 98.781 214.576,83.698 196.395,82.114 171.938 C 82.019 170.459,82.013 169.250,82.102 169.250 C 82.191 169.250,83.418 169.803,84.829 170.478 C 89.560 172.743,95.057 174.403,100.125 175.097 C 102.724 175.453,105.750 175.730,105.750 175.612 C 105.750 175.583,104.804 174.871,103.649 174.032 C 83.404 159.323,76.748 130.981,88.177 108.152 C 89.748 105.012,89.246 104.969,92.247 108.500 C 114.952 135.212,148.567 153.814,183.250 158.860 C 193.310 160.324,198.141 160.597,197.913 159.688 C 196.489 154.008,196.429 144.627,197.775 138.000 C 203.114 111.714,227.652 93.438,254.144 96.016 " stroke="none" fill="#2cace4" fill-rule="evenodd"></path></g></svg>