<?xml version="1.0" encoding="UTF-8" standalone="no"?><!DOCTYPE svg PUBLIC "-//W3C//DTD SVG 1.1//EN" "http://www.w3.org/Graphics/SVG/1.1/DTD/svg11.dtd"><svg width="100%" height="100%" viewBox="0 0 1080 1080" version="1.1" xmlns="http://www.w3.org/2000/svg" xmlns:xlink="http://www.w3.org/1999/xlink" xml:space="preserve" xmlns:serif="http://www.serif.com/" style="fill-rule:evenodd;clip-rule:evenodd;stroke-linejoin:round;stroke-miterlimit:2;"><path d="M17.887,5.693c-6.903,-0 -12.5,5.596 -12.5,12.5c0,4.033 1.306,108.872 1.348,113.927c0.11,13.239 -0.132,45.514 1.556,61.025c1.501,13.8 -0.627,161.396 -0.91,166.395c-1.168,20.616 0.64,123.108 0.38,137.338c-0.207,11.363 -3.311,104.419 -3.292,105.141c0.444,16.612 1.624,144.194 1.624,173.164c0,14.109 -2.233,60.75 -1.389,72.09c0.446,5.977 0.77,40.13 0.796,42.552c0.186,17.727 1.805,55.265 -1.903,91.127c-1.354,13.092 -0.434,38.941 3.178,56.198c2.092,9.991 5.665,17.514 9.123,20.972c6.094,6.094 17.591,10.183 32,11.577c25.498,2.467 61.609,-2.049 77.751,-1.165c10.275,0.563 64.832,0.019 83.232,0.019c41.71,0 218.973,4.364 247.263,1.929c8.293,-0.714 18.631,-0.659 27.1,-1.429c11.312,-1.027 135.305,5.119 147.665,5.119c39.812,0 146.896,-2.414 153.785,-2.713c5.683,-0.246 29.483,1.371 35.152,1.836c10.084,0.826 78.176,-4.309 91.765,-3.619c16.027,0.813 90.581,7.751 126.404,7.133c11.638,-0.2 20.037,-1.727 23.409,-3.44c0.709,-0.36 6.581,-3.515 7.028,-12.155c0.483,-9.342 -0.188,-54.745 -0.188,-60.189c-0,-18.923 3.327,-129.762 2.219,-142.961c-2.572,-30.628 2.205,-136.566 2.063,-151.178c-0.246,-25.476 0.078,-92.758 -1.401,-109.099c-1.838,-20.307 -2.757,-77.148 -2.757,-98.493c-0,-60.898 -1.725,-110.197 -1.725,-170.957c0,-21.098 5.414,-150.13 3.98,-158.184c-1.089,-6.118 3.399,-77.647 1.263,-89.693c-0.727,-4.103 0.67,-46.715 -0.483,-56.616c-0.641,-5.505 -3.09,-8.435 -4.065,-9.41c-3.847,-3.848 -12.971,-7.336 -25.084,-8.438c-19.639,-1.786 -49.016,0.278 -60.61,0.31c-10.476,0.029 -195.764,3.153 -208.587,4.004c-9.569,0.636 -154.216,-3.282 -162.096,-2.855c-9.975,0.54 -47.647,4.333 -59.565,1.812c-2.36,-0.499 -114.909,-6.1 -129.049,-6.1c-71.943,-0 -145.363,1.423 -216.333,1.423c-7.353,-0 -74.048,-0.054 -75.204,0.057c-12.764,1.227 -97.77,1.046 -112.943,1.046Zm1028.71,26.258c0.008,13.626 0.093,49.471 0.696,52.874c2.137,12.049 -2.349,83.591 -1.26,89.709c1.394,7.833 -4.367,133.287 -4.367,153.803c0,60.76 1.725,110.059 1.725,170.957c-0,21.834 0.979,79.975 2.859,100.746c1.452,16.04 1.059,82.082 1.301,107.088c0.143,14.791 -4.581,122.026 -1.978,153.028c1.092,13.006 -2.306,122.223 -2.306,140.869c-0,4.303 0.453,34.123 0.377,50.242c-5.46,0.314 -13.257,0.626 -20.497,0.451c-38.115,-0.923 -96.378,-6.305 -110.266,-7.01c-13.475,-0.684 -80.99,4.49 -90.989,3.67c-6.172,-0.506 -32.089,-2.163 -38.277,-1.895c-6.841,0.296 -113.171,2.689 -152.703,2.689c-12.549,0 -138.442,-6.059 -149.927,-5.016c-8.432,0.766 -18.725,0.707 -26.983,1.418c-28.044,2.414 -203.769,-2.021 -245.118,-2.021c-18.097,0 -71.758,0.573 -81.864,0.019c-13.82,-0.757 -42.294,2.458 -66.185,1.848c-7.063,-0.18 -13.678,-0.696 -19.206,-1.893c-3.18,-0.689 -5.953,-1.305 -7.682,-2.748c-0.374,-1.14 -2.931,-9.073 -3.86,-15.344c-2.123,-14.327 -2.626,-32.181 -1.62,-41.912c3.824,-36.978 2.227,-75.682 2.034,-93.961c-0.026,-2.513 -0.401,-37.945 -0.863,-44.146c-0.823,-11.048 1.458,-56.487 1.458,-70.233c0,-29.082 -1.187,-157.156 -1.633,-173.832c-0.019,-0.714 3.092,-92.775 3.297,-104.018c0.258,-14.131 -1.576,-115.907 -0.416,-136.379c0.29,-5.123 2.342,-156.372 0.803,-170.514c-1.619,-14.876 -1.304,-45.831 -1.41,-58.527c-0.034,-4.055 -0.883,-72.427 -1.215,-101.219l-0,-0c29.2,-0.007 91.793,-0.113 102.703,-1.161c1.12,-0.108 65.693,0.057 72.812,0.057c70.97,-0 144.39,-1.423 216.333,-1.423c13.571,-0 121.61,5.08 123.876,5.559c13.22,2.796 55.026,-0.708 66.09,-1.308c7.895,-0.428 152.814,3.474 162.402,2.837c12.725,-0.845 196.602,-3.921 206.998,-3.949c11.147,-0.031 39.393,-2.13 58.276,-0.412c2.117,0.192 4.57,0.636 6.585,1.057Z"/></svg>